  0
SECTION
  2
HEADER
  9
$ACADVER
  1
AC1024
  9
$ACADMAINTVER
 70
6
  9
$DWGCODEPAGE
  3
ANSI_1252
  9
$LASTSAVEDBY
  1
ezdxf
  9
$INSBASE
 10
0.0
 20
0.0
 30
0.0
  9
$EXTMIN
 10
1e+20
 20
1e+20
 30
1e+20
  9
$EXTMAX
 10
-1e+20
 20
-1e+20
 30
-1e+20
  9
$LIMMIN
 10
0.0
 20
0.0
  9
$LIMMAX
 10
420.0
 20
297.0
  9
$ORTHOMODE
 70
0
  9
$REGENMODE
 70
1
  9
$FILLMODE
 70
1
  9
$QTEXTMODE
 70
0
  9
$MIRRTEXT
 70
1
  9
$LTSCALE
 40
1.0
  9
$ATTMODE
 70
1
  9
$TEXTSIZE
 40
2.5
  9
$TRACEWID
 40
1.0
  9
$TEXTSTYLE
  7
Standard
  9
$CLAYER
  8
0
  9
$CELTYPE
  6
ByLayer
  9
$CECOLOR
 62
256
  9
$CELTSCALE
 40
1.0
  9
$DISPSILH
 70
0
  9
$DIMSCALE
 40
1.0
  9
$DIMASZ
 40
2.5
  9
$DIMEXO
 40
0.625
  9
$DIMDLI
 40
3.75
  9
$DIMRND
 40
0.0
  9
$DIMDLE
 40
0.0
  9
$DIMEXE
 40
1.25
  9
$DIMTP
 40
0.0
  9
$DIMTM
 40
0.0
  9
$DIMTXT
 40
2.5
  9
$DIMCEN
 40
2.5
  9
$DIMTSZ
 40
0.0
  9
$DIMTOL
 70
0
  9
$DIMLIM
 70
0
  9
$DIMTIH
 70
0
  9
$DIMTOH
 70
0
  9
$DIMSE1
 70
0
  9
$DIMSE2
 70
0
  9
$DIMTAD
 70
1
  9
$DIMZIN
 70
8
  9
$DIMBLK
  1

  9
$DIMASO
 70
1
  9
$DIMSHO
 70
1
  9
$DIMPOST
  1

  9
$DIMAPOST
  1

  9
$DIMALT
 70
0
  9
$DIMALTD
 70
3
  9
$DIMALTF
 40
0.03937007874
  9
$DIMLFAC
 40
1.0
  9
$DIMTOFL
 70
1
  9
$DIMTVP
 40
0.0
  9
$DIMTIX
 70
0
  9
$DIMSOXD
 70
0
  9
$DIMSAH
 70
0
  9
$DIMBLK1
  1

  9
$DIMBLK2
  1

  9
$DIMSTYLE
  2
ISO-25
  9
$DIMCLRD
 70
0
  9
$DIMCLRE
 70
0
  9
$DIMCLRT
 70
0
  9
$DIMTFAC
 40
1.0
  9
$DIMGAP
 40
0.625
  9
$DIMJUST
 70
0
  9
$DIMSD1
 70
0
  9
$DIMSD2
 70
0
  9
$DIMTOLJ
 70
0
  9
$DIMTZIN
 70
8
  9
$DIMALTZ
 70
0
  9
$DIMALTTZ
 70
0
  9
$DIMUPT
 70
0
  9
$DIMDEC
 70
2
  9
$DIMTDEC
 70
2
  9
$DIMALTU
 70
2
  9
$DIMALTTD
 70
3
  9
$DIMTXSTY
  7
Standard
  9
$DIMAUNIT
 70
0
  9
$DIMADEC
 70
0
  9
$DIMALTRND
 40
0.0
  9
$DIMAZIN
 70
0
  9
$DIMDSEP
 70
44
  9
$DIMATFIT
 70
3
  9
$DIMFRAC
 70
0
  9
$DIMLDRBLK
  1

  9
$DIMLUNIT
 70
2
  9
$DIMLWD
 70
-2
  9
$DIMLWE
 70
-2
  9
$DIMTMOVE
 70
0
  9
$DIMFXL
 40
1.0
  9
$DIMFXLON
 70
0
  9
$DIMJOGANG
 40
0.785398163397
  9
$DIMTFILL
 70
0
  9
$DIMTFILLCLR
 70
0
  9
$DIMARCSYM
 70
0
  9
$DIMLTYPE
  6

  9
$DIMLTEX1
  6

  9
$DIMLTEX2
  6

  9
$DIMTXTDIRECTION
 70
0
  9
$LUNITS
 70
2
  9
$LUPREC
 70
4
  9
$SKETCHINC
 40
1.0
  9
$FILLETRAD
 40
10.0
  9
$AUNITS
 70
0
  9
$AUPREC
 70
2
  9
$MENU
  1
.
  9
$ELEVATION
 40
0.0
  9
$PELEVATION
 40
0.0
  9
$THICKNESS
 40
0.0
  9
$LIMCHECK
 70
0
  9
$CHAMFERA
 40
0.0
  9
$CHAMFERB
 40
0.0
  9
$CHAMFERC
 40
0.0
  9
$CHAMFERD
 40
0.0
  9
$SKPOLY
 70
0
  9
$TDCREATE
 40
2460060.42681713
  9
$TDUCREATE
 40
2458532.153996898
  9
$TDUPDATE
 40
2460060.42681713
  9
$TDUUPDATE
 40
2458532.1544311
  9
$TDINDWG
 40
0.0
  9
$TDUSRTIMER
 40
0.0
  9
$USRTIMER
 70
1
  9
$ANGBASE
 50
0.0
  9
$ANGDIR
 70
0
  9
$PDMODE
 70
0
  9
$PDSIZE
 40
0.0
  9
$PLINEWID
 40
0.0
  9
$SPLFRAME
 70
0
  9
$SPLINETYPE
 70
6
  9
$SPLINESEGS
 70
8
  9
$HANDSEED
  5
36A
  9
$SURFTAB1
 70
6
  9
$SURFTAB2
 70
6
  9
$SURFTYPE
 70
6
  9
$SURFU
 70
6
  9
$SURFV
 70
6
  9
$UCSBASE
  2

  9
$UCSNAME
  2

  9
$UCSORG
 10
0.0
 20
0.0
 30
0.0
  9
$UCSXDIR
 10
1.0
 20
0.0
 30
0.0
  9
$UCSYDIR
 10
0.0
 20
1.0
 30
0.0
  9
$UCSORTHOREF
  2

  9
$UCSORTHOVIEW
 70
0
  9
$UCSORGTOP
 10
0.0
 20
0.0
 30
0.0
  9
$UCSORGBOTTOM
 10
0.0
 20
0.0
 30
0.0
  9
$UCSORGLEFT
 10
0.0
 20
0.0
 30
0.0
  9
$UCSORGRIGHT
 10
0.0
 20
0.0
 30
0.0
  9
$UCSORGFRONT
 10
0.0
 20
0.0
 30
0.0
  9
$UCSORGBACK
 10
0.0
 20
0.0
 30
0.0
  9
$PUCSBASE
  2

  9
$PUCSNAME
  2

  9
$PUCSORG
 10
0.0
 20
0.0
 30
0.0
  9
$PUCSXDIR
 10
1.0
 20
0.0
 30
0.0
  9
$PUCSYDIR
 10
0.0
 20
1.0
 30
0.0
  9
$PUCSORTHOREF
  2

  9
$PUCSORTHOVIEW
 70
0
  9
$PUCSORGTOP
 10
0.0
 20
0.0
 30
0.0
  9
$PUCSORGBOTTOM
 10
0.0
 20
0.0
 30
0.0
  9
$PUCSORGLEFT
 10
0.0
 20
0.0
 30
0.0
  9
$PUCSORGRIGHT
 10
0.0
 20
0.0
 30
0.0
  9
$PUCSORGFRONT
 10
0.0
 20
0.0
 30
0.0
  9
$PUCSORGBACK
 10
0.0
 20
0.0
 30
0.0
  9
$USERI1
 70
0
  9
$USERI2
 70
0
  9
$USERI3
 70
0
  9
$USERI4
 70
0
  9
$USERI5
 70
0
  9
$USERR1
 40
0.0
  9
$USERR2
 40
0.0
  9
$USERR3
 40
0.0
  9
$USERR4
 40
0.0
  9
$USERR5
 40
0.0
  9
$WORLDVIEW
 70
1
  9
$SHADEDGE
 70
3
  9
$SHADEDIF
 70
70
  9
$TILEMODE
 70
1
  9
$MAXACTVP
 70
64
  9
$PINSBASE
 10
0.0
 20
0.0
 30
0.0
  9
$PLIMCHECK
 70
0
  9
$PEXTMIN
 10
1e+20
 20
1e+20
 30
1e+20
  9
$PEXTMAX
 10
-1e+20
 20
-1e+20
 30
-1e+20
  9
$PLIMMIN
 10
0.0
 20
0.0
  9
$PLIMMAX
 10
420.0
 20
297.0
  9
$UNITMODE
 70
0
  9
$VISRETAIN
 70
1
  9
$PLINEGEN
 70
0
  9
$PSLTSCALE
 70
1
  9
$TREEDEPTH
 70
3020
  9
$CMLSTYLE
  2
Standard
  9
$CMLJUST
 70
0
  9
$CMLSCALE
 40
20.0
  9
$PROXYGRAPHICS
 70
1
  9
$MEASUREMENT
 70
1
  9
$CELWEIGHT
370
-1
  9
$ENDCAPS
280
0
  9
$JOINSTYLE
280
0
  9
$LWDISPLAY
290
0
  9
$INSUNITS
 70
6
  9
$HYPERLINKBASE
  1

  9
$STYLESHEET
  1

  9
$XEDIT
290
1
  9
$CEPSNTYPE
380
0
  9
$PSTYLEMODE
290
1
  9
$FINGERPRINTGUID
  2
{2F3B4A0E-5F9A-431F-A4A1-60B2BC7F5CCB}
  9
$VERSIONGUID
  2
{0A1E6D39-3E64-462D-8F21-9481DE6FF6E0}
  9
$EXTNAMES
290
1
  9
$PSVPSCALE
 40
0.0
  9
$OLESTARTUP
290
0
  9
$SORTENTS
280
127
  9
$INDEXCTL
280
0
  9
$HIDETEXT
280
1
  9
$XCLIPFRAME
280
0
  9
$HALOGAP
280
0
  9
$OBSCOLOR
 70
257
  9
$OBSLTYPE
280
0
  9
$INTERSECTIONDISPLAY
280
0
  9
$INTERSECTIONCOLOR
 70
257
  9
$DIMASSOC
280
2
  9
$PROJECTNAME
  1

  9
$CAMERADISPLAY
290
0
  9
$LENSLENGTH
 40
50.0
  9
$CAMERAHEIGHT
 40
0.0
  9
$STEPSPERSEC
 40
24.0
  9
$STEPSIZE
 40
100.0
  9
$3DDWFPREC
 40
2.0
  9
$PSOLWIDTH
 40
0.005
  9
$PSOLHEIGHT
 40
0.08
  9
$LOFTANG1
 40
1.570796326795
  9
$LOFTANG2
 40
1.570796326795
  9
$LOFTMAG1
 40
0.0
  9
$LOFTMAG2
 40
0.0
  9
$LOFTPARAM
 70
7
  9
$LOFTNORMALS
280
1
  9
$LATITUDE
 40
37.795
  9
$LONGITUDE
 40
-122.394
  9
$NORTHDIRECTION
 40
0.0
  9
$TIMEZONE
 70
-8000
  9
$LIGHTGLYPHDISPLAY
280
1
  9
$TILEMODELIGHTSYNCH
280
1
  9
$CMATERIAL
347
20
  9
$SOLIDHIST
280
0
  9
$SHOWHIST
280
1
  9
$DWFFRAME
280
2
  9
$DGNFRAME
280
2
  9
$REALWORLDSCALE
290
1
  9
$INTERFERECOLOR
 62
256
  9
$CSHADOW
280
0
  9
$SHADOWPLANELOCATION
 40
0.0
  0
ENDSEC
  0
SECTION
  2
CLASSES
  0
CLASS
  1
ACDBDICTIONARYWDFLT
  2
AcDbDictionaryWithDefault
  3
ObjectDBX Classes
 90
0
 91
0
280
0
281
0
  0
CLASS
  1
SUN
  2
AcDbSun
  3
SCENEOE
 90
1153
 91
0
280
0
281
0
  0
CLASS
  1
VISUALSTYLE
  2
AcDbVisualStyle
  3
ObjectDBX Classes
 90
4095
 91
0
280
0
281
0
  0
CLASS
  1
MATERIAL
  2
AcDbMaterial
  3
ObjectDBX Classes
 90
1153
 91
0
280
0
281
0
  0
CLASS
  1
SCALE
  2
AcDbScale
  3
ObjectDBX Classes
 90
1153
 91
0
280
0
281
0
  0
CLASS
  1
TABLESTYLE
  2
AcDbTableStyle
  3
ObjectDBX Classes
 90
4095
 91
0
280
0
281
0
  0
CLASS
  1
MLEADERSTYLE
  2
AcDbMLeaderStyle
  3
ACDB_MLEADERSTYLE_CLASS
 90
4095
 91
0
280
0
281
0
  0
CLASS
  1
DICTIONARYVAR
  2
AcDbDictionaryVar
  3
ObjectDBX Classes
 90
0
 91
0
280
0
281
0
  0
CLASS
  1
CELLSTYLEMAP
  2
AcDbCellStyleMap
  3
ObjectDBX Classes
 90
1152
 91
0
280
0
281
0
  0
CLASS
  1
MENTALRAYRENDERSETTINGS
  2
AcDbMentalRayRenderSettings
  3
SCENEOE
 90
1024
 91
0
280
0
281
0
  0
CLASS
  1
ACDBDETAILVIEWSTYLE
  2
AcDbDetailViewStyle
  3
ObjectDBX Classes
 90
1025
 91
0
280
0
281
0
  0
CLASS
  1
ACDBSECTIONVIEWSTYLE
  2
AcDbSectionViewStyle
  3
ObjectDBX Classes
 90
1025
 91
0
280
0
281
0
  0
CLASS
  1
RASTERVARIABLES
  2
AcDbRasterVariables
  3
ISM
 90
0
 91
0
280
0
281
0
  0
CLASS
  1
ACDBPLACEHOLDER
  2
AcDbPlaceHolder
  3
ObjectDBX Classes
 90
0
 91
0
280
0
281
0
  0
CLASS
  1
LAYOUT
  2
AcDbLayout
  3
ObjectDBX Classes
 90
0
 91
0
280
0
281
0
  0
ENDSEC
  0
SECTION
  2
TABLES
  0
TABLE
  2
VPORT
  5
8
330
0
100
AcDbSymbolTable
 70
1
  0
VPORT
  5
23
330
8
100
AcDbSymbolTableRecord
100
AcDbViewportTableRecord
  2
*Active
 70
0
 10
0.0
 20
0.0
 11
1.0
 21
1.0
 12
0.0
 22
0.0
 13
0.0
 23
0.0
 14
0.5
 24
0.5
 15
0.5
 25
0.5
 16
0.0
 26
0.0
 36
1.0
 17
0.0
 27
0.0
 37
0.0
 40
1000.0
 41
1.34
 42
50.0
 43
0.0
 44
0.0
 50
0.0
 51
0.0
 71
0
 72
1000
 73
1
 74
3
 75
0
 76
0
 77
0
 78
0
281
0
 65
0
146
0.0
  0
ENDTAB
  0
TABLE
  2
LTYPE
  5
2
330
0
100
AcDbSymbolTable
 70
3
  0
LTYPE
  5
24
330
2
100
AcDbSymbolTableRecord
100
AcDbLinetypeTableRecord
  2
ByBlock
 70
0
  3

 72
65
 73
0
 40
0.0
  0
LTYPE
  5
25
330
2
100
AcDbSymbolTableRecord
100
AcDbLinetypeTableRecord
  2
ByLayer
 70
0
  3

 72
65
 73
0
 40
0.0
  0
LTYPE
  5
26
330
2
100
AcDbSymbolTableRecord
100
AcDbLinetypeTableRecord
  2
Continuous
 70
0
  3

 72
65
 73
0
 40
0.0
  0
ENDTAB
  0
TABLE
  2
LAYER
  5
1
330
0
100
AcDbSymbolTable
 70
3
  0
LAYER
  5
27
330
1
100
AcDbSymbolTableRecord
100
AcDbLayerTableRecord
  2
0
 70
0
 62
7
  6
Continuous
370
-3
390
13
347
21
  0
LAYER
  5
28
330
1
100
AcDbSymbolTableRecord
100
AcDbLayerTableRecord
  2
Defpoints
 70
0
 62
7
  6
Continuous
290
0
370
-3
390
13
347
21
  0
LAYER
  5
2F
330
1
100
AcDbSymbolTableRecord
100
AcDbLayerTableRecord
  2
greeny green lines
 70
0
 62
3
  6
Continuous
370
-3
390
13
347
21
  0
ENDTAB
  0
TABLE
  2
STYLE
  5
5
330
0
100
AcDbSymbolTable
 70
1
  0
STYLE
  5
29
330
5
100
AcDbSymbolTableRecord
100
AcDbTextStyleTableRecord
  2
Standard
 70
0
 40
0.0
 41
1.0
 50
0.0
 71
0
 42
2.5
  3
txt
  4

  0
ENDTAB
  0
TABLE
  2
VIEW
  5
7
330
0
100
AcDbSymbolTable
 70
0
  0
ENDTAB
  0
TABLE
  2
UCS
  5
6
330
0
100
AcDbSymbolTable
 70
0
  0
ENDTAB
  0
TABLE
  2
APPID
  5
3
330
0
100
AcDbSymbolTable
 70
3
  0
APPID
  5
2A
330
3
100
AcDbSymbolTableRecord
100
AcDbRegAppTableRecord
  2
ACAD
 70
0
  0
APPID
  5
367
330
3
100
AcDbSymbolTableRecord
100
AcDbRegAppTableRecord
  2
HATCHBACKGROUNDCOLOR
 70
0
  0
APPID
  5
368
330
3
100
AcDbSymbolTableRecord
100
AcDbRegAppTableRecord
  2
EZDXF
 70
0
  0
ENDTAB
  0
TABLE
  2
DIMSTYLE
  5
4
330
0
100
AcDbSymbolTable
 70
1
100
AcDbDimStyleTable
  0
DIMSTYLE
105
2B
330
4
100
AcDbSymbolTableRecord
100
AcDbDimStyleTableRecord
  2
Standard
 70
0
 40
1.0
 41
2.5
 42
0.625
 43
3.75
 44
1.25
 45
0.0
 46
0.0
 47
0.0
 48
0.0
 49
2.5
140
2.5
141
2.5
142
0.0
143
0.03937007874
144
1.0
145
0.0
146
1.0
147
0.625
148
0.0
 69
0
 70
0
 71
0
 72
0
 73
0
 74
0
 75
0
 76
0
 77
1
 78
8
 79
3
170
0
171
3
172
1
173
0
174
0
175
0
176
0
177
0
178
0
179
2
271
2
272
2
273
2
274
3
275
0
276
0
277
2
278
44
279
0
280
0
281
0
282
0
283
0
284
8
285
0
286
0
288
0
289
3
290
0
371
-2
372
-2
  0
ENDTAB
  0
TABLE
  2
BLOCK_RECORD
  5
9
330
0
100
AcDbSymbolTable
 70
2
  0
BLOCK_RECORD
  5
17
330
9
100
AcDbSymbolTableRecord
100
AcDbBlockTableRecord
  2
*Model_Space
340
1A
 70
0
280
1
281
0
  0
BLOCK_RECORD
  5
1B
330
9
100
AcDbSymbolTableRecord
100
AcDbBlockTableRecord
  2
*Paper_Space
340
1E
 70
0
280
1
281
0
  0
ENDTAB
  0
ENDSEC
  0
SECTION
  2
BLOCKS
  0
BLOCK
  5
18
330
17
100
AcDbEntity
  8
0
100
AcDbBlockBegin
  2
*Model_Space
 70
0
 10
0.0
 20
0.0
 30
0.0
  3
*Model_Space
  1

  0
ENDBLK
  5
19
330
17
100
AcDbEntity
  8
0
100
AcDbBlockEnd
  0
BLOCK
  5
1C
330
1B
100
AcDbEntity
  8
0
100
AcDbBlockBegin
  2
*Paper_Space
 70
0
 10
0.0
 20
0.0
 30
0.0
  3
*Paper_Space
  1

  0
ENDBLK
  5
1D
330
1B
100
AcDbEntity
  8
0
100
AcDbBlockEnd
  0
ENDSEC
  0
SECTION
  2
ENTITIES
  0
LINE
  5
30
330
17
100
AcDbEntity
  8
single line
370
20
100
AcDbLine
 10
79.0
 20
82.0
 30
0.0
 11
82.0
 21
82.0
 31
0.0
  0
LINE
  5
31
330
17
100
AcDbEntity
  8
single line
370
20
100
AcDbLine
 10
82.0
 20
82.0
 30
0.0
 11
83.0
 21
83.0
 31
0.0
  0
LINE
  5
32
330
17
100
AcDbEntity
  8
single line
370
20
100
AcDbLine
 10
83.0
 20
83.0
 30
0.0
 11
84.0
 21
83.0
 31
0.0
  0
LINE
  5
33
330
17
100
AcDbEntity
  8
single line
370
20
100
AcDbLine
 10
84.0
 20
83.0
 30
0.0
 11
85.0
 21
84.0
 31
0.0
  0
LINE
  5
34
330
17
100
AcDbEntity
  8
single line
370
20
100
AcDbLine
 10
85.0
 20
84.0
 30
0.0
 11
86.0
 21
84.0
 31
0.0
  0
LINE
  5
35
330
17
100
AcDbEntity
  8
single line
370
20
100
AcDbLine
 10
86.0
 20
84.0
 30
0.0
 11
87.0
 21
85.0
 31
0.0
  0
LINE
  5
36
330
17
100
AcDbEntity
  8
single line
370
20
100
AcDbLine
 10
87.0
 20
85.0
 30
0.0
 11
88.0
 21
85.0
 31
0.0
  0
LINE
  5
37
330
17
100
AcDbEntity
  8
single line
370
20
100
AcDbLine
 10
88.0
 20
85.0
 30
0.0
 11
89.0
 21
86.0
 31
0.0
  0
LINE
  5
38
330
17
100
AcDbEntity
  8
single line
370
20
100
AcDbLine
 10
89.0
 20
86.0
 30
0.0
 11
90.0
 21
86.0
 31
0.0
  0
LINE
  5
39
330
17
100
AcDbEntity
  8
single line
370
20
100
AcDbLine
 10
90.0
 20
86.0
 30
0.0
 11
92.0
 21
88.0
 31
0.0
  0
LINE
  5
3A
330
17
100
AcDbEntity
  8
single line
370
20
100
AcDbLine
 10
92.0
 20
88.0
 30
0.0
 11
93.0
 21
88.0
 31
0.0
  0
LINE
  5
3B
330
17
100
AcDbEntity
  8
single line
370
20
100
AcDbLine
 10
93.0
 20
88.0
 30
0.0
 11
94.0
 21
89.0
 31
0.0
  0
LINE
  5
3C
330
17
100
AcDbEntity
  8
single line
370
20
100
AcDbLine
 10
94.0
 20
89.0
 30
0.0
 11
95.0
 21
89.0
 31
0.0
  0
LINE
  5
3D
330
17
100
AcDbEntity
  8
single line
370
20
100
AcDbLine
 10
95.0
 20
89.0
 30
0.0
 11
96.0
 21
90.0
 31
0.0
  0
LINE
  5
3E
330
17
100
AcDbEntity
  8
single line
370
20
100
AcDbLine
 10
96.0
 20
90.0
 30
0.0
 11
97.0
 21
90.0
 31
0.0
  0
LINE
  5
3F
330
17
100
AcDbEntity
  8
single line
370
20
100
AcDbLine
 10
97.0
 20
90.0
 30
0.0
 11
98.0
 21
91.0
 31
0.0
  0
LINE
  5
40
330
17
100
AcDbEntity
  8
single line
370
20
100
AcDbLine
 10
98.0
 20
91.0
 30
0.0
 11
99.0
 21
91.0
 31
0.0
  0
LINE
  5
41
330
17
100
AcDbEntity
  8
single line
370
20
100
AcDbLine
 10
99.0
 20
91.0
 30
0.0
 11
100.0
 21
92.0
 31
0.0
  0
LINE
  5
42
330
17
100
AcDbEntity
  8
single line
370
20
100
AcDbLine
 10
100.0
 20
92.0
 30
0.0
 11
101.0
 21
92.0
 31
0.0
  0
LINE
  5
43
330
17
100
AcDbEntity
  8
single line
370
20
100
AcDbLine
 10
101.0
 20
92.0
 30
0.0
 11
103.0
 21
94.0
 31
0.0
  0
LINE
  5
44
330
17
100
AcDbEntity
  8
single line
370
20
100
AcDbLine
 10
103.0
 20
94.0
 30
0.0
 11
105.0
 21
94.0
 31
0.0
  0
LINE
  5
45
330
17
100
AcDbEntity
  8
single line
370
20
100
AcDbLine
 10
105.0
 20
94.0
 30
0.0
 11
107.0
 21
96.0
 31
0.0
  0
LINE
  5
46
330
17
100
AcDbEntity
  8
single line
370
20
100
AcDbLine
 10
107.0
 20
96.0
 30
0.0
 11
109.0
 21
96.0
 31
0.0
  0
LINE
  5
47
330
17
100
AcDbEntity
  8
single line
370
20
100
AcDbLine
 10
109.0
 20
96.0
 30
0.0
 11
111.0
 21
98.0
 31
0.0
  0
LINE
  5
48
330
17
100
AcDbEntity
  8
single line
370
20
100
AcDbLine
 10
111.0
 20
98.0
 30
0.0
 11
112.0
 21
98.0
 31
0.0
  0
LINE
  5
49
330
17
100
AcDbEntity
  8
single line
370
20
100
AcDbLine
 10
112.0
 20
98.0
 30
0.0
 11
113.0
 21
99.0
 31
0.0
  0
LINE
  5
4A
330
17
100
AcDbEntity
  8
single line
370
20
100
AcDbLine
 10
113.0
 20
99.0
 30
0.0
 11
114.0
 21
99.0
 31
0.0
  0
LINE
  5
4B
330
17
100
AcDbEntity
  8
single line
370
20
100
AcDbLine
 10
114.0
 20
99.0
 30
0.0
 11
116.0
 21
101.0
 31
0.0
  0
LINE
  5
4C
330
17
100
AcDbEntity
  8
single line
370
20
100
AcDbLine
 10
116.0
 20
101.0
 30
0.0
 11
118.0
 21
101.0
 31
0.0
  0
LINE
  5
4D
330
17
100
AcDbEntity
  8
single line
370
20
100
AcDbLine
 10
118.0
 20
101.0
 30
0.0
 11
120.0
 21
103.0
 31
0.0
  0
LINE
  5
4E
330
17
100
AcDbEntity
  8
single line
370
20
100
AcDbLine
 10
120.0
 20
103.0
 30
0.0
 11
121.0
 21
103.0
 31
0.0
  0
LINE
  5
4F
330
17
100
AcDbEntity
  8
single line
370
20
100
AcDbLine
 10
121.0
 20
103.0
 30
0.0
 11
122.0
 21
104.0
 31
0.0
  0
LINE
  5
50
330
17
100
AcDbEntity
  8
single line
370
20
100
AcDbLine
 10
122.0
 20
104.0
 30
0.0
 11
123.0
 21
104.0
 31
0.0
  0
LINE
  5
51
330
17
100
AcDbEntity
  8
single line
370
20
100
AcDbLine
 10
123.0
 20
104.0
 30
0.0
 11
124.0
 21
105.0
 31
0.0
  0
LINE
  5
52
330
17
100
AcDbEntity
  8
single line
370
20
100
AcDbLine
 10
124.0
 20
105.0
 30
0.0
 11
125.0
 21
105.0
 31
0.0
  0
LINE
  5
53
330
17
100
AcDbEntity
  8
single line
370
20
100
AcDbLine
 10
125.0
 20
105.0
 30
0.0
 11
126.0
 21
106.0
 31
0.0
  0
LINE
  5
54
330
17
100
AcDbEntity
  8
single line
370
20
100
AcDbLine
 10
126.0
 20
106.0
 30
0.0
 11
127.0
 21
106.0
 31
0.0
  0
LINE
  5
55
330
17
100
AcDbEntity
  8
single line
370
20
100
AcDbLine
 10
127.0
 20
106.0
 30
0.0
 11
133.0
 21
112.0
 31
0.0
  0
LINE
  5
56
330
17
100
AcDbEntity
  8
single line
370
20
100
AcDbLine
 10
133.0
 20
112.0
 30
0.0
 11
134.0
 21
112.0
 31
0.0
  0
LINE
  5
57
330
17
100
AcDbEntity
  8
single line
370
20
100
AcDbLine
 10
134.0
 20
112.0
 30
0.0
 11
135.0
 21
113.0
 31
0.0
  0
LINE
  5
58
330
17
100
AcDbEntity
  8
single line
370
20
100
AcDbLine
 10
135.0
 20
113.0
 30
0.0
 11
135.0
 21
114.0
 31
0.0
  0
LINE
  5
59
330
17
100
AcDbEntity
  8
single line
370
20
100
AcDbLine
 10
135.0
 20
114.0
 30
0.0
 11
136.0
 21
115.0
 31
0.0
  0
LINE
  5
5A
330
17
100
AcDbEntity
  8
single line
370
20
100
AcDbLine
 10
136.0
 20
115.0
 30
0.0
 11
137.0
 21
115.0
 31
0.0
  0
LINE
  5
5B
330
17
100
AcDbEntity
  8
single line
370
20
100
AcDbLine
 10
137.0
 20
115.0
 30
0.0
 11
140.0
 21
118.0
 31
0.0
  0
LINE
  5
5C
330
17
100
AcDbEntity
  8
single line
370
20
100
AcDbLine
 10
140.0
 20
118.0
 30
0.0
 11
140.0
 21
119.0
 31
0.0
  0
LINE
  5
5D
330
17
100
AcDbEntity
  8
single line
370
20
100
AcDbLine
 10
140.0
 20
119.0
 30
0.0
 11
141.0
 21
119.0
 31
0.0
  0
LINE
  5
5E
330
17
100
AcDbEntity
  8
single line
370
20
100
AcDbLine
 10
141.0
 20
119.0
 30
0.0
 11
143.0
 21
121.0
 31
0.0
  0
LINE
  5
5F
330
17
100
AcDbEntity
  8
single line
370
20
100
AcDbLine
 10
143.0
 20
121.0
 30
0.0
 11
143.0
 21
122.0
 31
0.0
  0
LINE
  5
60
330
17
100
AcDbEntity
  8
single line
370
20
100
AcDbLine
 10
143.0
 20
122.0
 30
0.0
 11
149.0
 21
128.0
 31
0.0
  0
LINE
  5
61
330
17
100
AcDbEntity
  8
single line
370
20
100
AcDbLine
 10
149.0
 20
128.0
 30
0.0
 11
149.0
 21
129.0
 31
0.0
  0
LINE
  5
62
330
17
100
AcDbEntity
  8
single line
370
20
100
AcDbLine
 10
149.0
 20
129.0
 30
0.0
 11
150.0
 21
130.0
 31
0.0
  0
LINE
  5
63
330
17
100
AcDbEntity
  8
single line
370
20
100
AcDbLine
 10
150.0
 20
130.0
 30
0.0
 11
151.0
 21
130.0
 31
0.0
  0
LINE
  5
64
330
17
100
AcDbEntity
  8
single line
370
20
100
AcDbLine
 10
151.0
 20
130.0
 30
0.0
 11
155.0
 21
134.0
 31
0.0
  0
LINE
  5
65
330
17
100
AcDbEntity
  8
single line
370
20
100
AcDbLine
 10
155.0
 20
134.0
 30
0.0
 11
155.0
 21
135.0
 31
0.0
  0
LINE
  5
66
330
17
100
AcDbEntity
  8
single line
370
20
100
AcDbLine
 10
155.0
 20
135.0
 30
0.0
 11
156.0
 21
136.0
 31
0.0
  0
LINE
  5
67
330
17
100
AcDbEntity
  8
single line
370
20
100
AcDbLine
 10
156.0
 20
136.0
 30
0.0
 11
154.0
 21
138.0
 31
0.0
  0
LINE
  5
68
330
17
100
AcDbEntity
  8
single line
370
20
100
AcDbLine
 10
154.0
 20
138.0
 30
0.0
 11
154.0
 21
140.0
 31
0.0
  0
LINE
  5
69
330
17
100
AcDbEntity
  8
single line
370
20
100
AcDbLine
 10
154.0
 20
140.0
 30
0.0
 11
155.0
 21
140.0
 31
0.0
  0
LINE
  5
6A
330
17
100
AcDbEntity
  8
single line
370
20
100
AcDbLine
 10
155.0
 20
140.0
 30
0.0
 11
158.0
 21
143.0
 31
0.0
  0
LINE
  5
6B
330
17
100
AcDbEntity
  8
single line
370
20
100
AcDbLine
 10
158.0
 20
143.0
 30
0.0
 11
159.0
 21
143.0
 31
0.0
  0
LINE
  5
6C
330
17
100
AcDbEntity
  8
single line
370
20
100
AcDbLine
 10
159.0
 20
143.0
 30
0.0
 11
160.0
 21
144.0
 31
0.0
  0
LINE
  5
6D
330
17
100
AcDbEntity
  8
single line
370
20
100
AcDbLine
 10
160.0
 20
144.0
 30
0.0
 11
160.0
 21
145.0
 31
0.0
  0
LINE
  5
6E
330
17
100
AcDbEntity
  8
single line
370
20
100
AcDbLine
 10
160.0
 20
145.0
 30
0.0
 11
161.0
 21
146.0
 31
0.0
  0
LINE
  5
6F
330
17
100
AcDbEntity
  8
single line
370
20
100
AcDbLine
 10
161.0
 20
146.0
 30
0.0
 11
162.0
 21
146.0
 31
0.0
  0
LINE
  5
70
330
17
100
AcDbEntity
  8
single line
370
20
100
AcDbLine
 10
162.0
 20
146.0
 30
0.0
 11
163.0
 21
147.0
 31
0.0
  0
LINE
  5
71
330
17
100
AcDbEntity
  8
single line
370
20
100
AcDbLine
 10
163.0
 20
147.0
 30
0.0
 11
164.0
 21
147.0
 31
0.0
  0
LINE
  5
72
330
17
100
AcDbEntity
  8
single line
370
20
100
AcDbLine
 10
164.0
 20
147.0
 30
0.0
 11
165.0
 21
146.0
 31
0.0
  0
LINE
  5
73
330
17
100
AcDbEntity
  8
single line
370
20
100
AcDbLine
 10
165.0
 20
146.0
 30
0.0
 11
166.0
 21
146.0
 31
0.0
  0
LINE
  5
74
330
17
100
AcDbEntity
  8
single line
370
20
100
AcDbLine
 10
166.0
 20
146.0
 30
0.0
 11
168.0
 21
144.0
 31
0.0
  0
LINE
  5
75
330
17
100
AcDbEntity
  8
single line
370
20
100
AcDbLine
 10
168.0
 20
144.0
 30
0.0
 11
169.0
 21
145.0
 31
0.0
  0
LINE
  5
76
330
17
100
AcDbEntity
  8
single line
370
20
100
AcDbLine
 10
169.0
 20
145.0
 30
0.0
 11
170.0
 21
145.0
 31
0.0
  0
LINE
  5
77
330
17
100
AcDbEntity
  8
single line
370
20
100
AcDbLine
 10
170.0
 20
145.0
 30
0.0
 11
171.0
 21
146.0
 31
0.0
  0
LINE
  5
78
330
17
100
AcDbEntity
  8
single line
370
20
100
AcDbLine
 10
171.0
 20
146.0
 30
0.0
 11
172.0
 21
146.0
 31
0.0
  0
LINE
  5
79
330
17
100
AcDbEntity
  8
single line
370
20
100
AcDbLine
 10
172.0
 20
146.0
 30
0.0
 11
173.0
 21
147.0
 31
0.0
  0
LINE
  5
7A
330
17
100
AcDbEntity
  8
single line
370
20
100
AcDbLine
 10
173.0
 20
147.0
 30
0.0
 11
174.0
 21
147.0
 31
0.0
  0
LINE
  5
7B
330
17
100
AcDbEntity
  8
single line
370
20
100
AcDbLine
 10
174.0
 20
147.0
 30
0.0
 11
175.0
 21
148.0
 31
0.0
  0
LINE
  5
7C
330
17
100
AcDbEntity
  8
single line
370
20
100
AcDbLine
 10
175.0
 20
148.0
 30
0.0
 11
176.0
 21
148.0
 31
0.0
  0
LINE
  5
7D
330
17
100
AcDbEntity
  8
single line
370
20
100
AcDbLine
 10
176.0
 20
148.0
 30
0.0
 11
178.0
 21
150.0
 31
0.0
  0
LINE
  5
7E
330
17
100
AcDbEntity
  8
single line
370
20
100
AcDbLine
 10
178.0
 20
150.0
 30
0.0
 11
179.0
 21
150.0
 31
0.0
  0
LINE
  5
7F
330
17
100
AcDbEntity
  8
single line
370
20
100
AcDbLine
 10
179.0
 20
150.0
 30
0.0
 11
180.0
 21
151.0
 31
0.0
  0
LINE
  5
80
330
17
100
AcDbEntity
  8
single line
370
20
100
AcDbLine
 10
180.0
 20
151.0
 30
0.0
 11
181.0
 21
151.0
 31
0.0
  0
LINE
  5
81
330
17
100
AcDbEntity
  8
single line
370
20
100
AcDbLine
 10
181.0
 20
151.0
 30
0.0
 11
182.0
 21
152.0
 31
0.0
  0
LINE
  5
82
330
17
100
AcDbEntity
  8
single line
370
20
100
AcDbLine
 10
182.0
 20
152.0
 30
0.0
 11
183.0
 21
152.0
 31
0.0
  0
LINE
  5
83
330
17
100
AcDbEntity
  8
single line
370
20
100
AcDbLine
 10
183.0
 20
152.0
 30
0.0
 11
184.0
 21
153.0
 31
0.0
  0
LINE
  5
84
330
17
100
AcDbEntity
  8
single line
370
20
100
AcDbLine
 10
184.0
 20
153.0
 30
0.0
 11
185.0
 21
153.0
 31
0.0
  0
LINE
  5
85
330
17
100
AcDbEntity
  8
single line
370
20
100
AcDbLine
 10
185.0
 20
153.0
 30
0.0
 11
187.0
 21
155.0
 31
0.0
  0
LINE
  5
86
330
17
100
AcDbEntity
  8
single line
370
20
100
AcDbLine
 10
187.0
 20
155.0
 30
0.0
 11
188.0
 21
155.0
 31
0.0
  0
LINE
  5
87
330
17
100
AcDbEntity
  8
single line
370
20
100
AcDbLine
 10
188.0
 20
155.0
 30
0.0
 11
189.0
 21
156.0
 31
0.0
  0
LINE
  5
88
330
17
100
AcDbEntity
  8
single line
370
20
100
AcDbLine
 10
189.0
 20
156.0
 30
0.0
 11
192.0
 21
156.0
 31
0.0
  0
LINE
  5
89
330
17
100
AcDbEntity
  8
single line
370
20
100
AcDbLine
 10
192.0
 20
156.0
 30
0.0
 11
192.0
 21
148.0
 31
0.0
  0
LINE
  5
8A
330
17
100
AcDbEntity
  8
single line
370
20
100
AcDbLine
 10
192.0
 20
148.0
 30
0.0
 11
193.0
 21
147.0
 31
0.0
  0
LINE
  5
8B
330
17
100
AcDbEntity
  8
single line
370
20
100
AcDbLine
 10
193.0
 20
147.0
 30
0.0
 11
193.0
 21
146.0
 31
0.0
  0
LINE
  5
8C
330
17
100
AcDbEntity
  8
single line
370
20
100
AcDbLine
 10
193.0
 20
146.0
 30
0.0
 11
195.0
 21
144.0
 31
0.0
  0
LINE
  5
8D
330
17
100
AcDbEntity
  8
single line
370
20
100
AcDbLine
 10
195.0
 20
144.0
 30
0.0
 11
196.0
 21
144.0
 31
0.0
  0
LINE
  5
8E
330
17
100
AcDbEntity
  8
single line
370
20
100
AcDbLine
 10
196.0
 20
144.0
 30
0.0
 11
197.0
 21
145.0
 31
0.0
  0
LINE
  5
8F
330
17
100
AcDbEntity
  8
single line
370
20
100
AcDbLine
 10
197.0
 20
145.0
 30
0.0
 11
198.0
 21
145.0
 31
0.0
  0
LINE
  5
90
330
17
100
AcDbEntity
  8
single line
370
20
100
AcDbLine
 10
198.0
 20
145.0
 30
0.0
 11
199.0
 21
146.0
 31
0.0
  0
LINE
  5
91
330
17
100
AcDbEntity
  8
single line
370
20
100
AcDbLine
 10
199.0
 20
146.0
 30
0.0
 11
200.0
 21
146.0
 31
0.0
  0
LINE
  5
92
330
17
100
AcDbEntity
  8
single line
370
20
100
AcDbLine
 10
200.0
 20
146.0
 30
0.0
 11
201.0
 21
147.0
 31
0.0
  0
LINE
  5
93
330
17
100
AcDbEntity
  8
single line
370
20
100
AcDbLine
 10
201.0
 20
147.0
 30
0.0
 11
203.0
 21
147.0
 31
0.0
  0
LINE
  5
94
330
17
100
AcDbEntity
  8
single line
370
20
100
AcDbLine
 10
203.0
 20
147.0
 30
0.0
 11
204.0
 21
148.0
 31
0.0
  0
LINE
  5
95
330
17
100
AcDbEntity
  8
single line
370
20
100
AcDbLine
 10
204.0
 20
148.0
 30
0.0
 11
211.0
 21
148.0
 31
0.0
  0
LINE
  5
96
330
17
100
AcDbEntity
  8
single line
370
20
100
AcDbLine
 10
211.0
 20
148.0
 30
0.0
 11
212.0
 21
147.0
 31
0.0
  0
LINE
  5
97
330
17
100
AcDbEntity
  8
single line
370
20
100
AcDbLine
 10
212.0
 20
147.0
 30
0.0
 11
213.0
 21
147.0
 31
0.0
  0
LINE
  5
98
330
17
100
AcDbEntity
  8
single line
370
20
100
AcDbLine
 10
213.0
 20
147.0
 30
0.0
 11
214.0
 21
146.0
 31
0.0
  0
LINE
  5
99
330
17
100
AcDbEntity
  8
single line
370
20
100
AcDbLine
 10
214.0
 20
146.0
 30
0.0
 11
215.0
 21
146.0
 31
0.0
  0
LINE
  5
9A
330
17
100
AcDbEntity
  8
single line
370
20
100
AcDbLine
 10
215.0
 20
146.0
 30
0.0
 11
216.0
 21
145.0
 31
0.0
  0
LINE
  5
9B
330
17
100
AcDbEntity
  8
single line
370
20
100
AcDbLine
 10
216.0
 20
145.0
 30
0.0
 11
217.0
 21
145.0
 31
0.0
  0
LINE
  5
9C
330
17
100
AcDbEntity
  8
single line
370
20
100
AcDbLine
 10
217.0
 20
145.0
 30
0.0
 11
220.0
 21
142.0
 31
0.0
  0
LINE
  5
9D
330
17
100
AcDbEntity
  8
single line
370
20
100
AcDbLine
 10
220.0
 20
142.0
 30
0.0
 11
220.0
 21
141.0
 31
0.0
  0
LINE
  5
9E
330
17
100
AcDbEntity
  8
single line
370
20
100
AcDbLine
 10
220.0
 20
141.0
 30
0.0
 11
222.0
 21
139.0
 31
0.0
  0
LINE
  5
9F
330
17
100
AcDbEntity
  8
single line
370
20
100
AcDbLine
 10
222.0
 20
139.0
 30
0.0
 11
223.0
 21
139.0
 31
0.0
  0
LINE
  5
A0
330
17
100
AcDbEntity
  8
single line
370
20
100
AcDbLine
 10
223.0
 20
139.0
 30
0.0
 11
224.0
 21
138.0
 31
0.0
  0
LINE
  5
A1
330
17
100
AcDbEntity
  8
single line
370
20
100
AcDbLine
 10
224.0
 20
138.0
 30
0.0
 11
226.0
 21
138.0
 31
0.0
  0
LINE
  5
A2
330
17
100
AcDbEntity
  8
single line
370
20
100
AcDbLine
 10
226.0
 20
138.0
 30
0.0
 11
228.0
 21
140.0
 31
0.0
  0
LINE
  5
A3
330
17
100
AcDbEntity
  8
single line
370
20
100
AcDbLine
 10
228.0
 20
140.0
 30
0.0
 11
229.0
 21
140.0
 31
0.0
  0
LINE
  5
A4
330
17
100
AcDbEntity
  8
single line
370
20
100
AcDbLine
 10
229.0
 20
140.0
 30
0.0
 11
230.0
 21
141.0
 31
0.0
  0
LINE
  5
A5
330
17
100
AcDbEntity
  8
single line
370
20
100
AcDbLine
 10
230.0
 20
141.0
 30
0.0
 11
231.0
 21
141.0
 31
0.0
  0
LINE
  5
A6
330
17
100
AcDbEntity
  8
single line
370
20
100
AcDbLine
 10
231.0
 20
141.0
 30
0.0
 11
233.0
 21
143.0
 31
0.0
  0
LINE
  5
A7
330
17
100
AcDbEntity
  8
single line
370
20
100
AcDbLine
 10
233.0
 20
143.0
 30
0.0
 11
234.0
 21
143.0
 31
0.0
  0
LINE
  5
A8
330
17
100
AcDbEntity
  8
single line
370
20
100
AcDbLine
 10
234.0
 20
143.0
 30
0.0
 11
235.0
 21
144.0
 31
0.0
  0
LINE
  5
A9
330
17
100
AcDbEntity
  8
single line
370
20
100
AcDbLine
 10
235.0
 20
144.0
 30
0.0
 11
236.0
 21
144.0
 31
0.0
  0
LINE
  5
AA
330
17
100
AcDbEntity
  8
single line
370
20
100
AcDbLine
 10
236.0
 20
144.0
 30
0.0
 11
246.0
 21
154.0
 31
0.0
  0
LINE
  5
AB
330
17
100
AcDbEntity
  8
single line
370
20
100
AcDbLine
 10
246.0
 20
154.0
 30
0.0
 11
247.0
 21
154.0
 31
0.0
  0
LINE
  5
AC
330
17
100
AcDbEntity
  8
single line
370
20
100
AcDbLine
 10
247.0
 20
154.0
 30
0.0
 11
251.0
 21
158.0
 31
0.0
  0
LINE
  5
AD
330
17
100
AcDbEntity
  8
single line
370
20
100
AcDbLine
 10
251.0
 20
158.0
 30
0.0
 11
252.0
 21
158.0
 31
0.0
  0
LINE
  5
AE
330
17
100
AcDbEntity
  8
single line
370
20
100
AcDbLine
 10
252.0
 20
158.0
 30
0.0
 11
254.0
 21
160.0
 31
0.0
  0
LINE
  5
AF
330
17
100
AcDbEntity
  8
single line
370
20
100
AcDbLine
 10
254.0
 20
160.0
 30
0.0
 11
255.0
 21
160.0
 31
0.0
  0
LINE
  5
B0
330
17
100
AcDbEntity
  8
single line
370
20
100
AcDbLine
 10
255.0
 20
160.0
 30
0.0
 11
256.0
 21
161.0
 31
0.0
  0
LINE
  5
B1
330
17
100
AcDbEntity
  8
single line
370
20
100
AcDbLine
 10
256.0
 20
161.0
 30
0.0
 11
257.0
 21
161.0
 31
0.0
  0
LINE
  5
B2
330
17
100
AcDbEntity
  8
single line
370
20
100
AcDbLine
 10
257.0
 20
161.0
 30
0.0
 11
258.0
 21
162.0
 31
0.0
  0
LINE
  5
B3
330
17
100
AcDbEntity
  8
single line
370
20
100
AcDbLine
 10
258.0
 20
162.0
 30
0.0
 11
260.0
 21
162.0
 31
0.0
  0
LINE
  5
B4
330
17
100
AcDbEntity
  8
single line
370
20
100
AcDbLine
 10
260.0
 20
162.0
 30
0.0
 11
261.0
 21
163.0
 31
0.0
  0
LINE
  5
B5
330
17
100
AcDbEntity
  8
single line
370
20
100
AcDbLine
 10
261.0
 20
163.0
 30
0.0
 11
262.0
 21
163.0
 31
0.0
  0
LINE
  5
B6
330
17
100
AcDbEntity
  8
single line
370
20
100
AcDbLine
 10
262.0
 20
163.0
 30
0.0
 11
263.0
 21
164.0
 31
0.0
  0
LINE
  5
B7
330
17
100
AcDbEntity
  8
single line
370
20
100
AcDbLine
 10
263.0
 20
164.0
 30
0.0
 11
264.0
 21
164.0
 31
0.0
  0
LINE
  5
B8
330
17
100
AcDbEntity
  8
single line
370
20
100
AcDbLine
 10
264.0
 20
164.0
 30
0.0
 11
265.0
 21
165.0
 31
0.0
  0
LINE
  5
B9
330
17
100
AcDbEntity
  8
single line
370
20
100
AcDbLine
 10
265.0
 20
165.0
 30
0.0
 11
266.0
 21
165.0
 31
0.0
  0
LINE
  5
BA
330
17
100
AcDbEntity
  8
single line
370
20
100
AcDbLine
 10
266.0
 20
165.0
 30
0.0
 11
267.0
 21
166.0
 31
0.0
  0
LINE
  5
BB
330
17
100
AcDbEntity
  8
single line
370
20
100
AcDbLine
 10
267.0
 20
166.0
 30
0.0
 11
269.0
 21
166.0
 31
0.0
  0
LINE
  5
BC
330
17
100
AcDbEntity
  8
single line
370
20
100
AcDbLine
 10
269.0
 20
166.0
 30
0.0
 11
270.0
 21
167.0
 31
0.0
  0
LINE
  5
BD
330
17
100
AcDbEntity
  8
single line
370
20
100
AcDbLine
 10
270.0
 20
167.0
 30
0.0
 11
275.0
 21
167.0
 31
0.0
  0
LINE
  5
BE
330
17
100
AcDbEntity
  8
single line
370
20
100
AcDbLine
 10
275.0
 20
167.0
 30
0.0
 11
276.0
 21
168.0
 31
0.0
  0
LINE
  5
BF
330
17
100
AcDbEntity
  8
single line
370
20
100
AcDbLine
 10
276.0
 20
168.0
 30
0.0
 11
285.0
 21
168.0
 31
0.0
  0
LINE
  5
C0
330
17
100
AcDbEntity
  8
single line
370
20
100
AcDbLine
 10
285.0
 20
168.0
 30
0.0
 11
286.0
 21
169.0
 31
0.0
  0
LINE
  5
C1
330
17
100
AcDbEntity
  8
single line
370
20
100
AcDbLine
 10
286.0
 20
169.0
 30
0.0
 11
298.0
 21
169.0
 31
0.0
  0
LINE
  5
C2
330
17
100
AcDbEntity
  8
single line
370
20
100
AcDbLine
 10
298.0
 20
169.0
 30
0.0
 11
299.0
 21
170.0
 31
0.0
  0
LINE
  5
C3
330
17
100
AcDbEntity
  8
single line
370
20
100
AcDbLine
 10
299.0
 20
170.0
 30
0.0
 11
305.0
 21
170.0
 31
0.0
  0
LINE
  5
C4
330
17
100
AcDbEntity
  8
single line
370
20
100
AcDbLine
 10
305.0
 20
170.0
 30
0.0
 11
306.0
 21
171.0
 31
0.0
  0
LINE
  5
C5
330
17
100
AcDbEntity
  8
single line
370
20
100
AcDbLine
 10
306.0
 20
171.0
 30
0.0
 11
311.0
 21
171.0
 31
0.0
  0
LINE
  5
C6
330
17
100
AcDbEntity
  8
single line
370
20
100
AcDbLine
 10
311.0
 20
171.0
 30
0.0
 11
312.0
 21
172.0
 31
0.0
  0
LINE
  5
C7
330
17
100
AcDbEntity
  8
single line
370
20
100
AcDbLine
 10
312.0
 20
172.0
 30
0.0
 11
316.0
 21
172.0
 31
0.0
  0
LINE
  5
C8
330
17
100
AcDbEntity
  8
single line
370
20
100
AcDbLine
 10
316.0
 20
172.0
 30
0.0
 11
317.0
 21
173.0
 31
0.0
  0
LINE
  5
C9
330
17
100
AcDbEntity
  8
single line
370
20
100
AcDbLine
 10
317.0
 20
173.0
 30
0.0
 11
321.0
 21
173.0
 31
0.0
  0
LINE
  5
CA
330
17
100
AcDbEntity
  8
single line
370
20
100
AcDbLine
 10
321.0
 20
173.0
 30
0.0
 11
322.0
 21
174.0
 31
0.0
  0
LINE
  5
CB
330
17
100
AcDbEntity
  8
single line
370
20
100
AcDbLine
 10
322.0
 20
174.0
 30
0.0
 11
324.0
 21
174.0
 31
0.0
  0
LINE
  5
CC
330
17
100
AcDbEntity
  8
single line
370
20
100
AcDbLine
 10
324.0
 20
174.0
 30
0.0
 11
325.0
 21
175.0
 31
0.0
  0
LINE
  5
CD
330
17
100
AcDbEntity
  8
single line
370
20
100
AcDbLine
 10
325.0
 20
175.0
 30
0.0
 11
328.0
 21
175.0
 31
0.0
  0
LINE
  5
CE
330
17
100
AcDbEntity
  8
single line
370
20
100
AcDbLine
 10
328.0
 20
175.0
 30
0.0
 11
329.0
 21
176.0
 31
0.0
  0
LINE
  5
CF
330
17
100
AcDbEntity
  8
single line
370
20
100
AcDbLine
 10
329.0
 20
176.0
 30
0.0
 11
331.0
 21
176.0
 31
0.0
  0
LINE
  5
D0
330
17
100
AcDbEntity
  8
single line
370
20
100
AcDbLine
 10
331.0
 20
176.0
 30
0.0
 11
332.0
 21
177.0
 31
0.0
  0
LINE
  5
D1
330
17
100
AcDbEntity
  8
single line
370
20
100
AcDbLine
 10
332.0
 20
177.0
 30
0.0
 11
334.0
 21
177.0
 31
0.0
  0
LINE
  5
D2
330
17
100
AcDbEntity
  8
single line
370
20
100
AcDbLine
 10
334.0
 20
177.0
 30
0.0
 11
335.0
 21
178.0
 31
0.0
  0
LINE
  5
D3
330
17
100
AcDbEntity
  8
single line
370
20
100
AcDbLine
 10
335.0
 20
178.0
 30
0.0
 11
337.0
 21
178.0
 31
0.0
  0
LINE
  5
D4
330
17
100
AcDbEntity
  8
single line
370
20
100
AcDbLine
 10
337.0
 20
178.0
 30
0.0
 11
338.0
 21
179.0
 31
0.0
  0
LINE
  5
D5
330
17
100
AcDbEntity
  8
single line
370
20
100
AcDbLine
 10
338.0
 20
179.0
 30
0.0
 11
340.0
 21
179.0
 31
0.0
  0
LINE
  5
D6
330
17
100
AcDbEntity
  8
single line
370
20
100
AcDbLine
 10
340.0
 20
179.0
 30
0.0
 11
341.0
 21
180.0
 31
0.0
  0
LINE
  5
D7
330
17
100
AcDbEntity
  8
single line
370
20
100
AcDbLine
 10
341.0
 20
180.0
 30
0.0
 11
343.0
 21
180.0
 31
0.0
  0
LINE
  5
D8
330
17
100
AcDbEntity
  8
single line
370
20
100
AcDbLine
 10
343.0
 20
180.0
 30
0.0
 11
344.0
 21
181.0
 31
0.0
  0
LINE
  5
D9
330
17
100
AcDbEntity
  8
single line
370
20
100
AcDbLine
 10
344.0
 20
181.0
 30
0.0
 11
345.0
 21
181.0
 31
0.0
  0
LINE
  5
DA
330
17
100
AcDbEntity
  8
single line
370
20
100
AcDbLine
 10
345.0
 20
181.0
 30
0.0
 11
346.0
 21
182.0
 31
0.0
  0
LINE
  5
DB
330
17
100
AcDbEntity
  8
single line
370
20
100
AcDbLine
 10
346.0
 20
182.0
 30
0.0
 11
347.0
 21
182.0
 31
0.0
  0
LINE
  5
DC
330
17
100
AcDbEntity
  8
single line
370
20
100
AcDbLine
 10
347.0
 20
182.0
 30
0.0
 11
348.0
 21
183.0
 31
0.0
  0
LINE
  5
DD
330
17
100
AcDbEntity
  8
single line
370
20
100
AcDbLine
 10
348.0
 20
183.0
 30
0.0
 11
350.0
 21
183.0
 31
0.0
  0
LINE
  5
DE
330
17
100
AcDbEntity
  8
single line
370
20
100
AcDbLine
 10
350.0
 20
183.0
 30
0.0
 11
351.0
 21
184.0
 31
0.0
  0
LINE
  5
DF
330
17
100
AcDbEntity
  8
single line
370
20
100
AcDbLine
 10
351.0
 20
184.0
 30
0.0
 11
352.0
 21
184.0
 31
0.0
  0
LINE
  5
E0
330
17
100
AcDbEntity
  8
single line
370
20
100
AcDbLine
 10
352.0
 20
184.0
 30
0.0
 11
353.0
 21
185.0
 31
0.0
  0
LINE
  5
E1
330
17
100
AcDbEntity
  8
single line
370
20
100
AcDbLine
 10
353.0
 20
185.0
 30
0.0
 11
354.0
 21
185.0
 31
0.0
  0
LINE
  5
E2
330
17
100
AcDbEntity
  8
single line
370
20
100
AcDbLine
 10
354.0
 20
185.0
 30
0.0
 11
355.0
 21
186.0
 31
0.0
  0
LINE
  5
E3
330
17
100
AcDbEntity
  8
single line
370
20
100
AcDbLine
 10
355.0
 20
186.0
 30
0.0
 11
356.0
 21
186.0
 31
0.0
  0
LINE
  5
E4
330
17
100
AcDbEntity
  8
single line
370
20
100
AcDbLine
 10
356.0
 20
186.0
 30
0.0
 11
357.0
 21
187.0
 31
0.0
  0
LINE
  5
E5
330
17
100
AcDbEntity
  8
single line
370
20
100
AcDbLine
 10
357.0
 20
187.0
 30
0.0
 11
358.0
 21
187.0
 31
0.0
  0
LINE
  5
E6
330
17
100
AcDbEntity
  8
single line
370
20
100
AcDbLine
 10
358.0
 20
187.0
 30
0.0
 11
359.0
 21
188.0
 31
0.0
  0
LINE
  5
E7
330
17
100
AcDbEntity
  8
single line
370
20
100
AcDbLine
 10
359.0
 20
188.0
 30
0.0
 11
361.0
 21
188.0
 31
0.0
  0
LINE
  5
E8
330
17
100
AcDbEntity
  8
single line
370
20
100
AcDbLine
 10
361.0
 20
188.0
 30
0.0
 11
363.0
 21
190.0
 31
0.0
  0
LINE
  5
E9
330
17
100
AcDbEntity
  8
single line
370
20
100
AcDbLine
 10
363.0
 20
190.0
 30
0.0
 11
365.0
 21
190.0
 31
0.0
  0
LINE
  5
EA
330
17
100
AcDbEntity
  8
single line
370
20
100
AcDbLine
 10
365.0
 20
190.0
 30
0.0
 11
366.0
 21
191.0
 31
0.0
  0
LINE
  5
EB
330
17
100
AcDbEntity
  8
single line
370
20
100
AcDbLine
 10
366.0
 20
191.0
 30
0.0
 11
367.0
 21
191.0
 31
0.0
  0
LINE
  5
EC
330
17
100
AcDbEntity
  8
single line
370
20
100
AcDbLine
 10
367.0
 20
191.0
 30
0.0
 11
368.0
 21
192.0
 31
0.0
  0
LINE
  5
ED
330
17
100
AcDbEntity
  8
single line
370
20
100
AcDbLine
 10
368.0
 20
192.0
 30
0.0
 11
369.0
 21
192.0
 31
0.0
  0
LINE
  5
EE
330
17
100
AcDbEntity
  8
single line
370
20
100
AcDbLine
 10
369.0
 20
192.0
 30
0.0
 11
371.0
 21
194.0
 31
0.0
  0
LINE
  5
EF
330
17
100
AcDbEntity
  8
single line
370
20
100
AcDbLine
 10
371.0
 20
194.0
 30
0.0
 11
373.0
 21
194.0
 31
0.0
  0
LINE
  5
F0
330
17
100
AcDbEntity
  8
single line
370
20
100
AcDbLine
 10
373.0
 20
194.0
 30
0.0
 11
376.0
 21
197.0
 31
0.0
  0
LINE
  5
F1
330
17
100
AcDbEntity
  8
single line
370
20
100
AcDbLine
 10
376.0
 20
197.0
 30
0.0
 11
377.0
 21
197.0
 31
0.0
  0
LINE
  5
F2
330
17
100
AcDbEntity
  8
single line
370
20
100
AcDbLine
 10
377.0
 20
197.0
 30
0.0
 11
378.0
 21
198.0
 31
0.0
  0
LINE
  5
F3
330
17
100
AcDbEntity
  8
single line
370
20
100
AcDbLine
 10
378.0
 20
198.0
 30
0.0
 11
379.0
 21
198.0
 31
0.0
  0
LINE
  5
F4
330
17
100
AcDbEntity
  8
single line
370
20
100
AcDbLine
 10
379.0
 20
198.0
 30
0.0
 11
381.0
 21
200.0
 31
0.0
  0
LINE
  5
F5
330
17
100
AcDbEntity
  8
single line
370
20
100
AcDbLine
 10
381.0
 20
200.0
 30
0.0
 11
382.0
 21
200.0
 31
0.0
  0
LINE
  5
F6
330
17
100
AcDbEntity
  8
single line
370
20
100
AcDbLine
 10
382.0
 20
200.0
 30
0.0
 11
384.0
 21
202.0
 31
0.0
  0
LINE
  5
F7
330
17
100
AcDbEntity
  8
single line
370
20
100
AcDbLine
 10
384.0
 20
202.0
 30
0.0
 11
385.0
 21
202.0
 31
0.0
  0
LINE
  5
F8
330
17
100
AcDbEntity
  8
single line
370
20
100
AcDbLine
 10
385.0
 20
202.0
 30
0.0
 11
387.0
 21
204.0
 31
0.0
  0
LINE
  5
F9
330
17
100
AcDbEntity
  8
single line
370
20
100
AcDbLine
 10
387.0
 20
204.0
 30
0.0
 11
388.0
 21
204.0
 31
0.0
  0
LINE
  5
FA
330
17
100
AcDbEntity
  8
single line
370
20
100
AcDbLine
 10
388.0
 20
204.0
 30
0.0
 11
392.0
 21
208.0
 31
0.0
  0
LINE
  5
FB
330
17
100
AcDbEntity
  8
single line
370
20
100
AcDbLine
 10
392.0
 20
208.0
 30
0.0
 11
393.0
 21
208.0
 31
0.0
  0
LINE
  5
FC
330
17
100
AcDbEntity
  8
single line
370
20
100
AcDbLine
 10
393.0
 20
208.0
 30
0.0
 11
397.0
 21
212.0
 31
0.0
  0
LINE
  5
FD
330
17
100
AcDbEntity
  8
single line
370
20
100
AcDbLine
 10
397.0
 20
212.0
 30
0.0
 11
398.0
 21
212.0
 31
0.0
  0
LINE
  5
FE
330
17
100
AcDbEntity
  8
single line
370
20
100
AcDbLine
 10
398.0
 20
212.0
 30
0.0
 11
416.0
 21
230.0
 31
0.0
  0
LINE
  5
FF
330
17
100
AcDbEntity
  8
single line
370
20
100
AcDbLine
 10
416.0
 20
230.0
 30
0.0
 11
416.0
 21
231.0
 31
0.0
  0
LINE
  5
100
330
17
100
AcDbEntity
  8
single line
370
20
100
AcDbLine
 10
416.0
 20
231.0
 30
0.0
 11
421.0
 21
236.0
 31
0.0
  0
LINE
  5
101
330
17
100
AcDbEntity
  8
single line
370
20
100
AcDbLine
 10
421.0
 20
236.0
 30
0.0
 11
421.0
 21
237.0
 31
0.0
  0
LINE
  5
102
330
17
100
AcDbEntity
  8
single line
370
20
100
AcDbLine
 10
421.0
 20
237.0
 30
0.0
 11
424.0
 21
240.0
 31
0.0
  0
LINE
  5
103
330
17
100
AcDbEntity
  8
single line
370
20
100
AcDbLine
 10
424.0
 20
240.0
 30
0.0
 11
424.0
 21
241.0
 31
0.0
  0
LINE
  5
104
330
17
100
AcDbEntity
  8
single line
370
20
100
AcDbLine
 10
424.0
 20
241.0
 30
0.0
 11
428.0
 21
245.0
 31
0.0
  0
LINE
  5
105
330
17
100
AcDbEntity
  8
single line
370
20
100
AcDbLine
 10
428.0
 20
245.0
 30
0.0
 11
428.0
 21
246.0
 31
0.0
  0
LINE
  5
106
330
17
100
AcDbEntity
  8
single line
370
20
100
AcDbLine
 10
428.0
 20
246.0
 30
0.0
 11
430.0
 21
248.0
 31
0.0
  0
LINE
  5
107
330
17
100
AcDbEntity
  8
single line
370
20
100
AcDbLine
 10
430.0
 20
248.0
 30
0.0
 11
430.0
 21
249.0
 31
0.0
  0
LINE
  5
108
330
17
100
AcDbEntity
  8
single line
370
20
100
AcDbLine
 10
430.0
 20
249.0
 30
0.0
 11
432.0
 21
251.0
 31
0.0
  0
LINE
  5
109
330
17
100
AcDbEntity
  8
single line
370
20
100
AcDbLine
 10
432.0
 20
251.0
 30
0.0
 11
432.0
 21
252.0
 31
0.0
  0
LINE
  5
10A
330
17
100
AcDbEntity
  8
single line
370
20
100
AcDbLine
 10
432.0
 20
252.0
 30
0.0
 11
434.0
 21
254.0
 31
0.0
  0
LINE
  5
10B
330
17
100
AcDbEntity
  8
single line
370
20
100
AcDbLine
 10
434.0
 20
254.0
 30
0.0
 11
434.0
 21
255.0
 31
0.0
  0
LINE
  5
10C
330
17
100
AcDbEntity
  8
single line
370
20
100
AcDbLine
 10
434.0
 20
255.0
 30
0.0
 11
436.0
 21
257.0
 31
0.0
  0
LINE
  5
10D
330
17
100
AcDbEntity
  8
single line
370
20
100
AcDbLine
 10
436.0
 20
257.0
 30
0.0
 11
436.0
 21
258.0
 31
0.0
  0
LINE
  5
10E
330
17
100
AcDbEntity
  8
single line
370
20
100
AcDbLine
 10
436.0
 20
258.0
 30
0.0
 11
438.0
 21
260.0
 31
0.0
  0
LINE
  5
10F
330
17
100
AcDbEntity
  8
single line
370
20
100
AcDbLine
 10
438.0
 20
260.0
 30
0.0
 11
438.0
 21
261.0
 31
0.0
  0
LINE
  5
110
330
17
100
AcDbEntity
  8
single line
370
20
100
AcDbLine
 10
438.0
 20
261.0
 30
0.0
 11
440.0
 21
263.0
 31
0.0
  0
LINE
  5
111
330
17
100
AcDbEntity
  8
single line
370
20
100
AcDbLine
 10
440.0
 20
263.0
 30
0.0
 11
440.0
 21
264.0
 31
0.0
  0
LINE
  5
112
330
17
100
AcDbEntity
  8
single line
370
20
100
AcDbLine
 10
440.0
 20
264.0
 30
0.0
 11
441.0
 21
265.0
 31
0.0
  0
LINE
  5
113
330
17
100
AcDbEntity
  8
single line
370
20
100
AcDbLine
 10
441.0
 20
265.0
 30
0.0
 11
441.0
 21
266.0
 31
0.0
  0
LINE
  5
114
330
17
100
AcDbEntity
  8
single line
370
20
100
AcDbLine
 10
441.0
 20
266.0
 30
0.0
 11
442.0
 21
267.0
 31
0.0
  0
LINE
  5
115
330
17
100
AcDbEntity
  8
single line
370
20
100
AcDbLine
 10
442.0
 20
267.0
 30
0.0
 11
442.0
 21
268.0
 31
0.0
  0
LINE
  5
116
330
17
100
AcDbEntity
  8
single line
370
20
100
AcDbLine
 10
442.0
 20
268.0
 30
0.0
 11
443.0
 21
269.0
 31
0.0
  0
LINE
  5
117
330
17
100
AcDbEntity
  8
single line
370
20
100
AcDbLine
 10
443.0
 20
269.0
 30
0.0
 11
443.0
 21
273.0
 31
0.0
  0
LINE
  5
118
330
17
100
AcDbEntity
  8
single line
370
20
100
AcDbLine
 10
443.0
 20
273.0
 30
0.0
 11
444.0
 21
274.0
 31
0.0
  0
LINE
  5
119
330
17
100
AcDbEntity
  8
single line
370
20
100
AcDbLine
 10
444.0
 20
274.0
 30
0.0
 11
444.0
 21
280.0
 31
0.0
  0
LINE
  5
11A
330
17
100
AcDbEntity
  8
single line
370
20
100
AcDbLine
 10
444.0
 20
280.0
 30
0.0
 11
443.0
 21
281.0
 31
0.0
  0
LINE
  5
11B
330
17
100
AcDbEntity
  8
single line
370
20
100
AcDbLine
 10
443.0
 20
281.0
 30
0.0
 11
443.0
 21
282.0
 31
0.0
  0
LINE
  5
11C
330
17
100
AcDbEntity
  8
single line
370
20
100
AcDbLine
 10
443.0
 20
282.0
 30
0.0
 11
442.0
 21
283.0
 31
0.0
  0
LINE
  5
11D
330
17
100
AcDbEntity
  8
single line
370
20
100
AcDbLine
 10
442.0
 20
283.0
 30
0.0
 11
442.0
 21
284.0
 31
0.0
  0
LINE
  5
11E
330
17
100
AcDbEntity
  8
single line
370
20
100
AcDbLine
 10
442.0
 20
284.0
 30
0.0
 11
441.0
 21
285.0
 31
0.0
  0
LINE
  5
11F
330
17
100
AcDbEntity
  8
single line
370
20
100
AcDbLine
 10
441.0
 20
285.0
 30
0.0
 11
441.0
 21
286.0
 31
0.0
  0
LINE
  5
120
330
17
100
AcDbEntity
  8
single line
370
20
100
AcDbLine
 10
441.0
 20
286.0
 30
0.0
 11
436.0
 21
291.0
 31
0.0
  0
LINE
  5
121
330
17
100
AcDbEntity
  8
single line
370
20
100
AcDbLine
 10
436.0
 20
291.0
 30
0.0
 11
435.0
 21
291.0
 31
0.0
  0
LINE
  5
122
330
17
100
AcDbEntity
  8
single line
370
20
100
AcDbLine
 10
435.0
 20
291.0
 30
0.0
 11
434.0
 21
292.0
 31
0.0
  0
LINE
  5
123
330
17
100
AcDbEntity
  8
single line
370
20
100
AcDbLine
 10
434.0
 20
292.0
 30
0.0
 11
433.0
 21
292.0
 31
0.0
  0
LINE
  5
124
330
17
100
AcDbEntity
  8
single line
370
20
100
AcDbLine
 10
433.0
 20
292.0
 30
0.0
 11
432.0
 21
293.0
 31
0.0
  0
LINE
  5
125
330
17
100
AcDbEntity
  8
single line
370
20
100
AcDbLine
 10
432.0
 20
293.0
 30
0.0
 11
430.0
 21
293.0
 31
0.0
  0
LINE
  5
126
330
17
100
AcDbEntity
  8
single line
370
20
100
AcDbLine
 10
430.0
 20
293.0
 30
0.0
 11
429.0
 21
294.0
 31
0.0
  0
LINE
  5
127
330
17
100
AcDbEntity
  8
single line
370
20
100
AcDbLine
 10
429.0
 20
294.0
 30
0.0
 11
423.0
 21
294.0
 31
0.0
  0
LINE
  5
128
330
17
100
AcDbEntity
  8
single line
370
20
100
AcDbLine
 10
423.0
 20
294.0
 30
0.0
 11
422.0
 21
293.0
 31
0.0
  0
LINE
  5
129
330
17
100
AcDbEntity
  8
single line
370
20
100
AcDbLine
 10
422.0
 20
293.0
 30
0.0
 11
421.0
 21
293.0
 31
0.0
  0
LINE
  5
12A
330
17
100
AcDbEntity
  8
single line
370
20
100
AcDbLine
 10
421.0
 20
293.0
 30
0.0
 11
420.0
 21
292.0
 31
0.0
  0
LINE
  5
12B
330
17
100
AcDbEntity
  8
single line
370
20
100
AcDbLine
 10
420.0
 20
292.0
 30
0.0
 11
419.0
 21
292.0
 31
0.0
  0
LINE
  5
12C
330
17
100
AcDbEntity
  8
single line
370
20
100
AcDbLine
 10
419.0
 20
292.0
 30
0.0
 11
418.0
 21
291.0
 31
0.0
  0
LINE
  5
12D
330
17
100
AcDbEntity
  8
single line
370
20
100
AcDbLine
 10
418.0
 20
291.0
 30
0.0
 11
417.0
 21
291.0
 31
0.0
  0
LINE
  5
12E
330
17
100
AcDbEntity
  8
single line
370
20
100
AcDbLine
 10
417.0
 20
291.0
 30
0.0
 11
415.0
 21
289.0
 31
0.0
  0
LINE
  5
12F
330
17
100
AcDbEntity
  8
single line
370
20
100
AcDbLine
 10
415.0
 20
289.0
 30
0.0
 11
414.0
 21
289.0
 31
0.0
  0
LINE
  5
130
330
17
100
AcDbEntity
  8
single line
370
20
100
AcDbLine
 10
414.0
 20
289.0
 30
0.0
 11
401.0
 21
276.0
 31
0.0
  0
LINE
  5
131
330
17
100
AcDbEntity
  8
single line
370
20
100
AcDbLine
 10
401.0
 20
276.0
 30
0.0
 11
401.0
 21
275.0
 31
0.0
  0
LINE
  5
132
330
17
100
AcDbEntity
  8
single line
370
20
100
AcDbLine
 10
401.0
 20
275.0
 30
0.0
 11
395.0
 21
269.0
 31
0.0
  0
LINE
  5
133
330
17
100
AcDbEntity
  8
single line
370
20
100
AcDbLine
 10
395.0
 20
269.0
 30
0.0
 11
395.0
 21
268.0
 31
0.0
  0
LINE
  5
134
330
17
100
AcDbEntity
  8
single line
370
20
100
AcDbLine
 10
395.0
 20
268.0
 30
0.0
 11
392.0
 21
265.0
 31
0.0
  0
LINE
  5
135
330
17
100
AcDbEntity
  8
single line
370
20
100
AcDbLine
 10
392.0
 20
265.0
 30
0.0
 11
392.0
 21
264.0
 31
0.0
  0
LINE
  5
136
330
17
100
AcDbEntity
  8
single line
370
20
100
AcDbLine
 10
392.0
 20
264.0
 30
0.0
 11
391.0
 21
264.0
 31
0.0
  0
LINE
  5
137
330
17
100
AcDbEntity
  8
single line
370
20
100
AcDbLine
 10
391.0
 20
264.0
 30
0.0
 11
384.0
 21
257.0
 31
0.0
  0
LINE
  5
138
330
17
100
AcDbEntity
  8
single line
370
20
100
AcDbLine
 10
384.0
 20
257.0
 30
0.0
 11
384.0
 21
256.0
 31
0.0
  0
LINE
  5
139
330
17
100
AcDbEntity
  8
single line
370
20
100
AcDbLine
 10
384.0
 20
256.0
 30
0.0
 11
383.0
 21
256.0
 31
0.0
  0
LINE
  5
13A
330
17
100
AcDbEntity
  8
single line
370
20
100
AcDbLine
 10
383.0
 20
256.0
 30
0.0
 11
375.0
 21
248.0
 31
0.0
  0
LINE
  5
13B
330
17
100
AcDbEntity
  8
single line
370
20
100
AcDbLine
 10
375.0
 20
248.0
 30
0.0
 11
374.0
 21
248.0
 31
0.0
  0
LINE
  5
13C
330
17
100
AcDbEntity
  8
single line
370
20
100
AcDbLine
 10
374.0
 20
248.0
 30
0.0
 11
372.0
 21
246.0
 31
0.0
  0
LINE
  5
13D
330
17
100
AcDbEntity
  8
single line
370
20
100
AcDbLine
 10
372.0
 20
246.0
 30
0.0
 11
371.0
 21
246.0
 31
0.0
  0
LINE
  5
13E
330
17
100
AcDbEntity
  8
single line
370
20
100
AcDbLine
 10
371.0
 20
246.0
 30
0.0
 11
370.0
 21
245.0
 31
0.0
  0
LINE
  5
13F
330
17
100
AcDbEntity
  8
single line
370
20
100
AcDbLine
 10
370.0
 20
245.0
 30
0.0
 11
370.0
 21
244.0
 31
0.0
  0
LINE
  5
140
330
17
100
AcDbEntity
  8
single line
370
20
100
AcDbLine
 10
370.0
 20
244.0
 30
0.0
 11
369.0
 21
244.0
 31
0.0
  0
LINE
  5
141
330
17
100
AcDbEntity
  8
single line
370
20
100
AcDbLine
 10
369.0
 20
244.0
 30
0.0
 11
367.0
 21
242.0
 31
0.0
  0
LINE
  5
142
330
17
100
AcDbEntity
  8
single line
370
20
100
AcDbLine
 10
367.0
 20
242.0
 30
0.0
 11
366.0
 21
242.0
 31
0.0
  0
LINE
  5
143
330
17
100
AcDbEntity
  8
single line
370
20
100
AcDbLine
 10
366.0
 20
242.0
 30
0.0
 11
362.0
 21
238.0
 31
0.0
  0
LINE
  5
144
330
17
100
AcDbEntity
  8
single line
370
20
100
AcDbLine
 10
362.0
 20
238.0
 30
0.0
 11
361.0
 21
238.0
 31
0.0
  0
LINE
  5
145
330
17
100
AcDbEntity
  8
single line
370
20
100
AcDbLine
 10
361.0
 20
238.0
 30
0.0
 11
359.0
 21
236.0
 31
0.0
  0
LINE
  5
146
330
17
100
AcDbEntity
  8
single line
370
20
100
AcDbLine
 10
359.0
 20
236.0
 30
0.0
 11
358.0
 21
236.0
 31
0.0
  0
LINE
  5
147
330
17
100
AcDbEntity
  8
single line
370
20
100
AcDbLine
 10
358.0
 20
236.0
 30
0.0
 11
356.0
 21
234.0
 31
0.0
  0
LINE
  5
148
330
17
100
AcDbEntity
  8
single line
370
20
100
AcDbLine
 10
356.0
 20
234.0
 30
0.0
 11
355.0
 21
234.0
 31
0.0
  0
LINE
  5
149
330
17
100
AcDbEntity
  8
single line
370
20
100
AcDbLine
 10
355.0
 20
234.0
 30
0.0
 11
353.0
 21
232.0
 31
0.0
  0
LINE
  5
14A
330
17
100
AcDbEntity
  8
single line
370
20
100
AcDbLine
 10
353.0
 20
232.0
 30
0.0
 11
352.0
 21
232.0
 31
0.0
  0
LINE
  5
14B
330
17
100
AcDbEntity
  8
single line
370
20
100
AcDbLine
 10
352.0
 20
232.0
 30
0.0
 11
351.0
 21
231.0
 31
0.0
  0
LINE
  5
14C
330
17
100
AcDbEntity
  8
single line
370
20
100
AcDbLine
 10
351.0
 20
231.0
 30
0.0
 11
350.0
 21
231.0
 31
0.0
  0
LINE
  5
14D
330
17
100
AcDbEntity
  8
single line
370
20
100
AcDbLine
 10
350.0
 20
231.0
 30
0.0
 11
348.0
 21
229.0
 31
0.0
  0
LINE
  5
14E
330
17
100
AcDbEntity
  8
single line
370
20
100
AcDbLine
 10
348.0
 20
229.0
 30
0.0
 11
347.0
 21
229.0
 31
0.0
  0
LINE
  5
14F
330
17
100
AcDbEntity
  8
single line
370
20
100
AcDbLine
 10
347.0
 20
229.0
 30
0.0
 11
346.0
 21
228.0
 31
0.0
  0
LINE
  5
150
330
17
100
AcDbEntity
  8
single line
370
20
100
AcDbLine
 10
346.0
 20
228.0
 30
0.0
 11
345.0
 21
228.0
 31
0.0
  0
LINE
  5
151
330
17
100
AcDbEntity
  8
single line
370
20
100
AcDbLine
 10
345.0
 20
228.0
 30
0.0
 11
344.0
 21
227.0
 31
0.0
  0
LINE
  5
152
330
17
100
AcDbEntity
  8
single line
370
20
100
AcDbLine
 10
344.0
 20
227.0
 30
0.0
 11
343.0
 21
227.0
 31
0.0
  0
LINE
  5
153
330
17
100
AcDbEntity
  8
single line
370
20
100
AcDbLine
 10
343.0
 20
227.0
 30
0.0
 11
341.0
 21
225.0
 31
0.0
  0
LINE
  5
154
330
17
100
AcDbEntity
  8
single line
370
20
100
AcDbLine
 10
341.0
 20
225.0
 30
0.0
 11
340.0
 21
225.0
 31
0.0
  0
LINE
  5
155
330
17
100
AcDbEntity
  8
single line
370
20
100
AcDbLine
 10
340.0
 20
225.0
 30
0.0
 11
339.0
 21
224.0
 31
0.0
  0
LINE
  5
156
330
17
100
AcDbEntity
  8
single line
370
20
100
AcDbLine
 10
339.0
 20
224.0
 30
0.0
 11
337.0
 21
224.0
 31
0.0
  0
LINE
  5
157
330
17
100
AcDbEntity
  8
single line
370
20
100
AcDbLine
 10
337.0
 20
224.0
 30
0.0
 11
336.0
 21
223.0
 31
0.0
  0
LINE
  5
158
330
17
100
AcDbEntity
  8
single line
370
20
100
AcDbLine
 10
336.0
 20
223.0
 30
0.0
 11
335.0
 21
223.0
 31
0.0
  0
LINE
  5
159
330
17
100
AcDbEntity
  8
single line
370
20
100
AcDbLine
 10
335.0
 20
223.0
 30
0.0
 11
334.0
 21
222.0
 31
0.0
  0
LINE
  5
15A
330
17
100
AcDbEntity
  8
single line
370
20
100
AcDbLine
 10
334.0
 20
222.0
 30
0.0
 11
333.0
 21
222.0
 31
0.0
  0
LINE
  5
15B
330
17
100
AcDbEntity
  8
single line
370
20
100
AcDbLine
 10
333.0
 20
222.0
 30
0.0
 11
332.0
 21
221.0
 31
0.0
  0
LINE
  5
15C
330
17
100
AcDbEntity
  8
single line
370
20
100
AcDbLine
 10
332.0
 20
221.0
 30
0.0
 11
330.0
 21
221.0
 31
0.0
  0
LINE
  5
15D
330
17
100
AcDbEntity
  8
single line
370
20
100
AcDbLine
 10
330.0
 20
221.0
 30
0.0
 11
329.0
 21
220.0
 31
0.0
  0
LINE
  5
15E
330
17
100
AcDbEntity
  8
single line
370
20
100
AcDbLine
 10
329.0
 20
220.0
 30
0.0
 11
327.0
 21
220.0
 31
0.0
  0
LINE
  5
15F
330
17
100
AcDbEntity
  8
single line
370
20
100
AcDbLine
 10
327.0
 20
220.0
 30
0.0
 11
326.0
 21
219.0
 31
0.0
  0
LINE
  5
160
330
17
100
AcDbEntity
  8
single line
370
20
100
AcDbLine
 10
326.0
 20
219.0
 30
0.0
 11
324.0
 21
219.0
 31
0.0
  0
LINE
  5
161
330
17
100
AcDbEntity
  8
single line
370
20
100
AcDbLine
 10
324.0
 20
219.0
 30
0.0
 11
323.0
 21
218.0
 31
0.0
  0
LINE
  5
162
330
17
100
AcDbEntity
  8
single line
370
20
100
AcDbLine
 10
323.0
 20
218.0
 30
0.0
 11
321.0
 21
218.0
 31
0.0
  0
LINE
  5
163
330
17
100
AcDbEntity
  8
single line
370
20
100
AcDbLine
 10
321.0
 20
218.0
 30
0.0
 11
320.0
 21
217.0
 31
0.0
  0
LINE
  5
164
330
17
100
AcDbEntity
  8
single line
370
20
100
AcDbLine
 10
320.0
 20
217.0
 30
0.0
 11
317.0
 21
217.0
 31
0.0
  0
LINE
  5
165
330
17
100
AcDbEntity
  8
single line
370
20
100
AcDbLine
 10
317.0
 20
217.0
 30
0.0
 11
316.0
 21
216.0
 31
0.0
  0
LINE
  5
166
330
17
100
AcDbEntity
  8
single line
370
20
100
AcDbLine
 10
316.0
 20
216.0
 30
0.0
 11
312.0
 21
216.0
 31
0.0
  0
LINE
  5
167
330
17
100
AcDbEntity
  8
single line
370
20
100
AcDbLine
 10
312.0
 20
216.0
 30
0.0
 11
311.0
 21
215.0
 31
0.0
  0
LINE
  5
168
330
17
100
AcDbEntity
  8
single line
370
20
100
AcDbLine
 10
311.0
 20
215.0
 30
0.0
 11
308.0
 21
215.0
 31
0.0
  0
LINE
  5
169
330
17
100
AcDbEntity
  8
single line
370
20
100
AcDbLine
 10
308.0
 20
215.0
 30
0.0
 11
307.0
 21
214.0
 31
0.0
  0
LINE
  5
16A
330
17
100
AcDbEntity
  8
single line
370
20
100
AcDbLine
 10
307.0
 20
214.0
 30
0.0
 11
303.0
 21
214.0
 31
0.0
  0
LINE
  5
16B
330
17
100
AcDbEntity
  8
single line
370
20
100
AcDbLine
 10
303.0
 20
214.0
 30
0.0
 11
302.0
 21
213.0
 31
0.0
  0
LINE
  5
16C
330
17
100
AcDbEntity
  8
single line
370
20
100
AcDbLine
 10
302.0
 20
213.0
 30
0.0
 11
297.0
 21
213.0
 31
0.0
  0
LINE
  5
16D
330
17
100
AcDbEntity
  8
single line
370
20
100
AcDbLine
 10
297.0
 20
213.0
 30
0.0
 11
296.0
 21
212.0
 31
0.0
  0
LINE
  5
16E
330
17
100
AcDbEntity
  8
single line
370
20
100
AcDbLine
 10
296.0
 20
212.0
 30
0.0
 11
292.0
 21
212.0
 31
0.0
  0
LINE
  5
16F
330
17
100
AcDbEntity
  8
single line
370
20
100
AcDbLine
 10
292.0
 20
212.0
 30
0.0
 11
291.0
 21
211.0
 31
0.0
  0
LINE
  5
170
330
17
100
AcDbEntity
  8
single line
370
20
100
AcDbLine
 10
291.0
 20
211.0
 30
0.0
 11
284.0
 21
211.0
 31
0.0
  0
LINE
  5
171
330
17
100
AcDbEntity
  8
single line
370
20
100
AcDbLine
 10
284.0
 20
211.0
 30
0.0
 11
283.0
 21
210.0
 31
0.0
  0
LINE
  5
172
330
17
100
AcDbEntity
  8
single line
370
20
100
AcDbLine
 10
283.0
 20
210.0
 30
0.0
 11
278.0
 21
210.0
 31
0.0
  0
LINE
  5
173
330
17
100
AcDbEntity
  8
single line
370
20
100
AcDbLine
 10
278.0
 20
210.0
 30
0.0
 11
277.0
 21
209.0
 31
0.0
  0
LINE
  5
174
330
17
100
AcDbEntity
  8
single line
370
20
100
AcDbLine
 10
277.0
 20
209.0
 30
0.0
 11
273.0
 21
209.0
 31
0.0
  0
LINE
  5
175
330
17
100
AcDbEntity
  8
single line
370
20
100
AcDbLine
 10
273.0
 20
209.0
 30
0.0
 11
272.0
 21
208.0
 31
0.0
  0
LINE
  5
176
330
17
100
AcDbEntity
  8
single line
370
20
100
AcDbLine
 10
272.0
 20
208.0
 30
0.0
 11
266.0
 21
208.0
 31
0.0
  0
LINE
  5
177
330
17
100
AcDbEntity
  8
single line
370
20
100
AcDbLine
 10
266.0
 20
208.0
 30
0.0
 11
265.0
 21
207.0
 31
0.0
  0
LINE
  5
178
330
17
100
AcDbEntity
  8
single line
370
20
100
AcDbLine
 10
265.0
 20
207.0
 30
0.0
 11
261.0
 21
207.0
 31
0.0
  0
LINE
  5
179
330
17
100
AcDbEntity
  8
single line
370
20
100
AcDbLine
 10
261.0
 20
207.0
 30
0.0
 11
260.0
 21
206.0
 31
0.0
  0
LINE
  5
17A
330
17
100
AcDbEntity
  8
single line
370
20
100
AcDbLine
 10
260.0
 20
206.0
 30
0.0
 11
257.0
 21
206.0
 31
0.0
  0
LINE
  5
17B
330
17
100
AcDbEntity
  8
single line
370
20
100
AcDbLine
 10
257.0
 20
206.0
 30
0.0
 11
256.0
 21
205.0
 31
0.0
  0
LINE
  5
17C
330
17
100
AcDbEntity
  8
single line
370
20
100
AcDbLine
 10
256.0
 20
205.0
 30
0.0
 11
253.0
 21
205.0
 31
0.0
  0
LINE
  5
17D
330
17
100
AcDbEntity
  8
single line
370
20
100
AcDbLine
 10
253.0
 20
205.0
 30
0.0
 11
252.0
 21
204.0
 31
0.0
  0
LINE
  5
17E
330
17
100
AcDbEntity
  8
single line
370
20
100
AcDbLine
 10
252.0
 20
204.0
 30
0.0
 11
249.0
 21
204.0
 31
0.0
  0
LINE
  5
17F
330
17
100
AcDbEntity
  8
single line
370
20
100
AcDbLine
 10
249.0
 20
204.0
 30
0.0
 11
248.0
 21
203.0
 31
0.0
  0
LINE
  5
180
330
17
100
AcDbEntity
  8
single line
370
20
100
AcDbLine
 10
248.0
 20
203.0
 30
0.0
 11
236.0
 21
203.0
 31
0.0
  0
LINE
  5
181
330
17
100
AcDbEntity
  8
single line
370
20
100
AcDbLine
 10
236.0
 20
203.0
 30
0.0
 11
235.0
 21
204.0
 31
0.0
  0
LINE
  5
182
330
17
100
AcDbEntity
  8
single line
370
20
100
AcDbLine
 10
235.0
 20
204.0
 30
0.0
 11
234.0
 21
204.0
 31
0.0
  0
LINE
  5
183
330
17
100
AcDbEntity
  8
single line
370
20
100
AcDbLine
 10
234.0
 20
204.0
 30
0.0
 11
233.0
 21
205.0
 31
0.0
  0
LINE
  5
184
330
17
100
AcDbEntity
  8
single line
370
20
100
AcDbLine
 10
233.0
 20
205.0
 30
0.0
 11
226.0
 21
205.0
 31
0.0
  0
LINE
  5
185
330
17
100
AcDbEntity
  8
single line
370
20
100
AcDbLine
 10
226.0
 20
205.0
 30
0.0
 11
225.0
 21
204.0
 31
0.0
  0
LINE
  5
186
330
17
100
AcDbEntity
  8
single line
370
20
100
AcDbLine
 10
225.0
 20
204.0
 30
0.0
 11
224.0
 21
204.0
 31
0.0
  0
LINE
  5
187
330
17
100
AcDbEntity
  8
single line
370
20
100
AcDbLine
 10
224.0
 20
204.0
 30
0.0
 11
223.0
 21
203.0
 31
0.0
  0
LINE
  5
188
330
17
100
AcDbEntity
  8
single line
370
20
100
AcDbLine
 10
223.0
 20
203.0
 30
0.0
 11
222.0
 21
203.0
 31
0.0
  0
LINE
  5
189
330
17
100
AcDbEntity
  8
single line
370
20
100
AcDbLine
 10
222.0
 20
203.0
 30
0.0
 11
221.0
 21
202.0
 31
0.0
  0
LINE
  5
18A
330
17
100
AcDbEntity
  8
single line
370
20
100
AcDbLine
 10
221.0
 20
202.0
 30
0.0
 11
219.0
 21
202.0
 31
0.0
  0
LINE
  5
18B
330
17
100
AcDbEntity
  8
single line
370
20
100
AcDbLine
 10
219.0
 20
202.0
 30
0.0
 11
218.0
 21
201.0
 31
0.0
  0
LINE
  5
18C
330
17
100
AcDbEntity
  8
single line
370
20
100
AcDbLine
 10
218.0
 20
201.0
 30
0.0
 11
215.0
 21
201.0
 31
0.0
  0
LINE
  5
18D
330
17
100
AcDbEntity
  8
single line
370
20
100
AcDbLine
 10
215.0
 20
201.0
 30
0.0
 11
214.0
 21
200.0
 31
0.0
  0
LINE
  5
18E
330
17
100
AcDbEntity
  8
single line
370
20
100
AcDbLine
 10
214.0
 20
200.0
 30
0.0
 11
212.0
 21
200.0
 31
0.0
  0
LINE
  5
18F
330
17
100
AcDbEntity
  8
single line
370
20
100
AcDbLine
 10
212.0
 20
200.0
 30
0.0
 11
211.0
 21
199.0
 31
0.0
  0
LINE
  5
190
330
17
100
AcDbEntity
  8
single line
370
20
100
AcDbLine
 10
211.0
 20
199.0
 30
0.0
 11
210.0
 21
199.0
 31
0.0
  0
LINE
  5
191
330
17
100
AcDbEntity
  8
single line
370
20
100
AcDbLine
 10
210.0
 20
199.0
 30
0.0
 11
208.0
 21
197.0
 31
0.0
  0
LINE
  5
192
330
17
100
AcDbEntity
  8
single line
370
20
100
AcDbLine
 10
208.0
 20
197.0
 30
0.0
 11
208.0
 21
196.0
 31
0.0
  0
LINE
  5
193
330
17
100
AcDbEntity
  8
single line
370
20
100
AcDbLine
 10
208.0
 20
196.0
 30
0.0
 11
207.0
 21
195.0
 31
0.0
  0
LINE
  5
194
330
17
100
AcDbEntity
  8
single line
370
20
100
AcDbLine
 10
207.0
 20
195.0
 30
0.0
 11
207.0
 21
194.0
 31
0.0
  0
LINE
  5
195
330
17
100
AcDbEntity
  8
single line
370
20
100
AcDbLine
 10
207.0
 20
194.0
 30
0.0
 11
184.0
 21
194.0
 31
0.0
  0
LINE
  5
196
330
17
100
AcDbEntity
  8
single line
370
20
100
AcDbLine
 10
184.0
 20
194.0
 30
0.0
 11
183.0
 21
195.0
 31
0.0
  0
LINE
  5
197
330
17
100
AcDbEntity
  8
single line
370
20
100
AcDbLine
 10
183.0
 20
195.0
 30
0.0
 11
183.0
 21
196.0
 31
0.0
  0
LINE
  5
198
330
17
100
AcDbEntity
  8
single line
370
20
100
AcDbLine
 10
183.0
 20
196.0
 30
0.0
 11
184.0
 21
197.0
 31
0.0
  0
LINE
  5
199
330
17
100
AcDbEntity
  8
single line
370
20
100
AcDbLine
 10
184.0
 20
197.0
 30
0.0
 11
184.0
 21
205.0
 31
0.0
  0
LINE
  5
19A
330
17
100
AcDbEntity
  8
single line
370
20
100
AcDbLine
 10
184.0
 20
205.0
 30
0.0
 11
185.0
 21
206.0
 31
0.0
  0
LINE
  5
19B
330
17
100
AcDbEntity
  8
single line
370
20
100
AcDbLine
 10
185.0
 20
206.0
 30
0.0
 11
185.0
 21
211.0
 31
0.0
  0
LINE
  5
19C
330
17
100
AcDbEntity
  8
single line
370
20
100
AcDbLine
 10
185.0
 20
211.0
 30
0.0
 11
186.0
 21
212.0
 31
0.0
  0
LINE
  5
19D
330
17
100
AcDbEntity
  8
single line
370
20
100
AcDbLine
 10
186.0
 20
212.0
 30
0.0
 11
186.0
 21
220.0
 31
0.0
  0
LINE
  5
19E
330
17
100
AcDbEntity
  8
single line
370
20
100
AcDbLine
 10
186.0
 20
220.0
 30
0.0
 11
188.0
 21
222.0
 31
0.0
  0
LINE
  5
19F
330
17
100
AcDbEntity
  8
single line
370
20
100
AcDbLine
 10
188.0
 20
222.0
 30
0.0
 11
189.0
 21
222.0
 31
0.0
  0
LINE
  5
1A0
330
17
100
AcDbEntity
  8
single line
370
20
100
AcDbLine
 10
189.0
 20
222.0
 30
0.0
 11
190.0
 21
223.0
 31
0.0
  0
LINE
  5
1A1
330
17
100
AcDbEntity
  8
single line
370
20
100
AcDbLine
 10
190.0
 20
223.0
 30
0.0
 11
191.0
 21
223.0
 31
0.0
  0
LINE
  5
1A2
330
17
100
AcDbEntity
  8
single line
370
20
100
AcDbLine
 10
191.0
 20
223.0
 30
0.0
 11
192.0
 21
224.0
 31
0.0
  0
LINE
  5
1A3
330
17
100
AcDbEntity
  8
single line
370
20
100
AcDbLine
 10
192.0
 20
224.0
 30
0.0
 11
192.0
 21
225.0
 31
0.0
  0
LINE
  5
1A4
330
17
100
AcDbEntity
  8
single line
370
20
100
AcDbLine
 10
192.0
 20
225.0
 30
0.0
 11
193.0
 21
226.0
 31
0.0
  0
LINE
  5
1A5
330
17
100
AcDbEntity
  8
single line
370
20
100
AcDbLine
 10
193.0
 20
226.0
 30
0.0
 11
193.0
 21
227.0
 31
0.0
  0
LINE
  5
1A6
330
17
100
AcDbEntity
  8
single line
370
20
100
AcDbLine
 10
193.0
 20
227.0
 30
0.0
 11
194.0
 21
228.0
 31
0.0
  0
LINE
  5
1A7
330
17
100
AcDbEntity
  8
single line
370
20
100
AcDbLine
 10
194.0
 20
228.0
 30
0.0
 11
194.0
 21
229.0
 31
0.0
  0
LINE
  5
1A8
330
17
100
AcDbEntity
  8
single line
370
20
100
AcDbLine
 10
194.0
 20
229.0
 30
0.0
 11
195.0
 21
230.0
 31
0.0
  0
LINE
  5
1A9
330
17
100
AcDbEntity
  8
single line
370
20
100
AcDbLine
 10
195.0
 20
230.0
 30
0.0
 11
195.0
 21
231.0
 31
0.0
  0
LINE
  5
1AA
330
17
100
AcDbEntity
  8
single line
370
20
100
AcDbLine
 10
195.0
 20
231.0
 30
0.0
 11
197.0
 21
233.0
 31
0.0
  0
LINE
  5
1AB
330
17
100
AcDbEntity
  8
single line
370
20
100
AcDbLine
 10
197.0
 20
233.0
 30
0.0
 11
197.0
 21
234.0
 31
0.0
  0
LINE
  5
1AC
330
17
100
AcDbEntity
  8
single line
370
20
100
AcDbLine
 10
197.0
 20
234.0
 30
0.0
 11
200.0
 21
237.0
 31
0.0
  0
LINE
  5
1AD
330
17
100
AcDbEntity
  8
single line
370
20
100
AcDbLine
 10
200.0
 20
237.0
 30
0.0
 11
200.0
 21
238.0
 31
0.0
  0
LINE
  5
1AE
330
17
100
AcDbEntity
  8
single line
370
20
100
AcDbLine
 10
200.0
 20
238.0
 30
0.0
 11
201.0
 21
239.0
 31
0.0
  0
LINE
  5
1AF
330
17
100
AcDbEntity
  8
single line
370
20
100
AcDbLine
 10
201.0
 20
239.0
 30
0.0
 11
201.0
 21
244.0
 31
0.0
  0
LINE
  5
1B0
330
17
100
AcDbEntity
  8
single line
370
20
100
AcDbLine
 10
201.0
 20
244.0
 30
0.0
 11
200.0
 21
245.0
 31
0.0
  0
LINE
  5
1B1
330
17
100
AcDbEntity
  8
single line
370
20
100
AcDbLine
 10
200.0
 20
245.0
 30
0.0
 11
200.0
 21
246.0
 31
0.0
  0
LINE
  5
1B2
330
17
100
AcDbEntity
  8
single line
370
20
100
AcDbLine
 10
200.0
 20
246.0
 30
0.0
 11
199.0
 21
247.0
 31
0.0
  0
LINE
  5
1B3
330
17
100
AcDbEntity
  8
single line
370
20
100
AcDbLine
 10
199.0
 20
247.0
 30
0.0
 11
199.0
 21
248.0
 31
0.0
  0
LINE
  5
1B4
330
17
100
AcDbEntity
  8
single line
370
20
100
AcDbLine
 10
199.0
 20
248.0
 30
0.0
 11
200.0
 21
249.0
 31
0.0
  0
LINE
  5
1B5
330
17
100
AcDbEntity
  8
single line
370
20
100
AcDbLine
 10
200.0
 20
249.0
 30
0.0
 11
200.0
 21
252.0
 31
0.0
  0
LINE
  5
1B6
330
17
100
AcDbEntity
  8
single line
370
20
100
AcDbLine
 10
200.0
 20
252.0
 30
0.0
 11
201.0
 21
253.0
 31
0.0
  0
LINE
  5
1B7
330
17
100
AcDbEntity
  8
single line
370
20
100
AcDbLine
 10
201.0
 20
253.0
 30
0.0
 11
201.0
 21
254.0
 31
0.0
  0
LINE
  5
1B8
330
17
100
AcDbEntity
  8
single line
370
20
100
AcDbLine
 10
201.0
 20
254.0
 30
0.0
 11
202.0
 21
255.0
 31
0.0
  0
LINE
  5
1B9
330
17
100
AcDbEntity
  8
single line
370
20
100
AcDbLine
 10
202.0
 20
255.0
 30
0.0
 11
202.0
 21
257.0
 31
0.0
  0
LINE
  5
1BA
330
17
100
AcDbEntity
  8
single line
370
20
100
AcDbLine
 10
202.0
 20
257.0
 30
0.0
 11
204.0
 21
259.0
 31
0.0
  0
LINE
  5
1BB
330
17
100
AcDbEntity
  8
single line
370
20
100
AcDbLine
 10
204.0
 20
259.0
 30
0.0
 11
204.0
 21
261.0
 31
0.0
  0
LINE
  5
1BC
330
17
100
AcDbEntity
  8
single line
370
20
100
AcDbLine
 10
204.0
 20
261.0
 30
0.0
 11
205.0
 21
262.0
 31
0.0
  0
LINE
  5
1BD
330
17
100
AcDbEntity
  8
single line
370
20
100
AcDbLine
 10
205.0
 20
262.0
 30
0.0
 11
205.0
 21
263.0
 31
0.0
  0
LINE
  5
1BE
330
17
100
AcDbEntity
  8
single line
370
20
100
AcDbLine
 10
205.0
 20
263.0
 30
0.0
 11
206.0
 21
264.0
 31
0.0
  0
LINE
  5
1BF
330
17
100
AcDbEntity
  8
single line
370
20
100
AcDbLine
 10
206.0
 20
264.0
 30
0.0
 11
206.0
 21
265.0
 31
0.0
  0
LINE
  5
1C0
330
17
100
AcDbEntity
  8
single line
370
20
100
AcDbLine
 10
206.0
 20
265.0
 30
0.0
 11
207.0
 21
266.0
 31
0.0
  0
LINE
  5
1C1
330
17
100
AcDbEntity
  8
single line
370
20
100
AcDbLine
 10
207.0
 20
266.0
 30
0.0
 11
207.0
 21
268.0
 31
0.0
  0
LINE
  5
1C2
330
17
100
AcDbEntity
  8
single line
370
20
100
AcDbLine
 10
207.0
 20
268.0
 30
0.0
 11
208.0
 21
269.0
 31
0.0
  0
LINE
  5
1C3
330
17
100
AcDbEntity
  8
single line
370
20
100
AcDbLine
 10
208.0
 20
269.0
 30
0.0
 11
208.0
 21
270.0
 31
0.0
  0
LINE
  5
1C4
330
17
100
AcDbEntity
  8
single line
370
20
100
AcDbLine
 10
208.0
 20
270.0
 30
0.0
 11
209.0
 21
271.0
 31
0.0
  0
LINE
  5
1C5
330
17
100
AcDbEntity
  8
single line
370
20
100
AcDbLine
 10
209.0
 20
271.0
 30
0.0
 11
209.0
 21
272.0
 31
0.0
  0
LINE
  5
1C6
330
17
100
AcDbEntity
  8
single line
370
20
100
AcDbLine
 10
209.0
 20
272.0
 30
0.0
 11
210.0
 21
273.0
 31
0.0
  0
LINE
  5
1C7
330
17
100
AcDbEntity
  8
single line
370
20
100
AcDbLine
 10
210.0
 20
273.0
 30
0.0
 11
210.0
 21
274.0
 31
0.0
  0
LINE
  5
1C8
330
17
100
AcDbEntity
  8
single line
370
20
100
AcDbLine
 10
210.0
 20
274.0
 30
0.0
 11
211.0
 21
275.0
 31
0.0
  0
LINE
  5
1C9
330
17
100
AcDbEntity
  8
single line
370
20
100
AcDbLine
 10
211.0
 20
275.0
 30
0.0
 11
211.0
 21
277.0
 31
0.0
  0
LINE
  5
1CA
330
17
100
AcDbEntity
  8
single line
370
20
100
AcDbLine
 10
211.0
 20
277.0
 30
0.0
 11
212.0
 21
278.0
 31
0.0
  0
LINE
  5
1CB
330
17
100
AcDbEntity
  8
single line
370
20
100
AcDbLine
 10
212.0
 20
278.0
 30
0.0
 11
212.0
 21
279.0
 31
0.0
  0
LINE
  5
1CC
330
17
100
AcDbEntity
  8
single line
370
20
100
AcDbLine
 10
212.0
 20
279.0
 30
0.0
 11
213.0
 21
280.0
 31
0.0
  0
LINE
  5
1CD
330
17
100
AcDbEntity
  8
single line
370
20
100
AcDbLine
 10
213.0
 20
280.0
 30
0.0
 11
213.0
 21
283.0
 31
0.0
  0
LINE
  5
1CE
330
17
100
AcDbEntity
  8
single line
370
20
100
AcDbLine
 10
213.0
 20
283.0
 30
0.0
 11
214.0
 21
284.0
 31
0.0
  0
LINE
  5
1CF
330
17
100
AcDbEntity
  8
single line
370
20
100
AcDbLine
 10
214.0
 20
284.0
 30
0.0
 11
214.0
 21
285.0
 31
0.0
  0
LINE
  5
1D0
330
17
100
AcDbEntity
  8
single line
370
20
100
AcDbLine
 10
214.0
 20
285.0
 30
0.0
 11
215.0
 21
286.0
 31
0.0
  0
LINE
  5
1D1
330
17
100
AcDbEntity
  8
single line
370
20
100
AcDbLine
 10
215.0
 20
286.0
 30
0.0
 11
215.0
 21
288.0
 31
0.0
  0
LINE
  5
1D2
330
17
100
AcDbEntity
  8
single line
370
20
100
AcDbLine
 10
215.0
 20
288.0
 30
0.0
 11
216.0
 21
289.0
 31
0.0
  0
LINE
  5
1D3
330
17
100
AcDbEntity
  8
single line
370
20
100
AcDbLine
 10
216.0
 20
289.0
 30
0.0
 11
216.0
 21
290.0
 31
0.0
  0
LINE
  5
1D4
330
17
100
AcDbEntity
  8
single line
370
20
100
AcDbLine
 10
216.0
 20
290.0
 30
0.0
 11
217.0
 21
291.0
 31
0.0
  0
LINE
  5
1D5
330
17
100
AcDbEntity
  8
single line
370
20
100
AcDbLine
 10
217.0
 20
291.0
 30
0.0
 11
217.0
 21
292.0
 31
0.0
  0
LINE
  5
1D6
330
17
100
AcDbEntity
  8
single line
370
20
100
AcDbLine
 10
217.0
 20
292.0
 30
0.0
 11
218.0
 21
293.0
 31
0.0
  0
LINE
  5
1D7
330
17
100
AcDbEntity
  8
single line
370
20
100
AcDbLine
 10
218.0
 20
293.0
 30
0.0
 11
218.0
 21
295.0
 31
0.0
  0
LINE
  5
1D8
330
17
100
AcDbEntity
  8
single line
370
20
100
AcDbLine
 10
218.0
 20
295.0
 30
0.0
 11
219.0
 21
296.0
 31
0.0
  0
LINE
  5
1D9
330
17
100
AcDbEntity
  8
single line
370
20
100
AcDbLine
 10
219.0
 20
296.0
 30
0.0
 11
219.0
 21
297.0
 31
0.0
  0
LINE
  5
1DA
330
17
100
AcDbEntity
  8
single line
370
20
100
AcDbLine
 10
219.0
 20
297.0
 30
0.0
 11
220.0
 21
298.0
 31
0.0
  0
LINE
  5
1DB
330
17
100
AcDbEntity
  8
single line
370
20
100
AcDbLine
 10
220.0
 20
298.0
 30
0.0
 11
220.0
 21
299.0
 31
0.0
  0
LINE
  5
1DC
330
17
100
AcDbEntity
  8
single line
370
20
100
AcDbLine
 10
220.0
 20
299.0
 30
0.0
 11
221.0
 21
300.0
 31
0.0
  0
LINE
  5
1DD
330
17
100
AcDbEntity
  8
single line
370
20
100
AcDbLine
 10
221.0
 20
300.0
 30
0.0
 11
221.0
 21
301.0
 31
0.0
  0
LINE
  5
1DE
330
17
100
AcDbEntity
  8
single line
370
20
100
AcDbLine
 10
221.0
 20
301.0
 30
0.0
 11
222.0
 21
302.0
 31
0.0
  0
LINE
  5
1DF
330
17
100
AcDbEntity
  8
single line
370
20
100
AcDbLine
 10
222.0
 20
302.0
 30
0.0
 11
222.0
 21
304.0
 31
0.0
  0
LINE
  5
1E0
330
17
100
AcDbEntity
  8
single line
370
20
100
AcDbLine
 10
222.0
 20
304.0
 30
0.0
 11
223.0
 21
305.0
 31
0.0
  0
LINE
  5
1E1
330
17
100
AcDbEntity
  8
single line
370
20
100
AcDbLine
 10
223.0
 20
305.0
 30
0.0
 11
223.0
 21
306.0
 31
0.0
  0
LINE
  5
1E2
330
17
100
AcDbEntity
  8
single line
370
20
100
AcDbLine
 10
223.0
 20
306.0
 30
0.0
 11
224.0
 21
307.0
 31
0.0
  0
LINE
  5
1E3
330
17
100
AcDbEntity
  8
single line
370
20
100
AcDbLine
 10
224.0
 20
307.0
 30
0.0
 11
224.0
 21
309.0
 31
0.0
  0
LINE
  5
1E4
330
17
100
AcDbEntity
  8
single line
370
20
100
AcDbLine
 10
224.0
 20
309.0
 30
0.0
 11
225.0
 21
310.0
 31
0.0
  0
LINE
  5
1E5
330
17
100
AcDbEntity
  8
single line
370
20
100
AcDbLine
 10
225.0
 20
310.0
 30
0.0
 11
225.0
 21
311.0
 31
0.0
  0
LINE
  5
1E6
330
17
100
AcDbEntity
  8
single line
370
20
100
AcDbLine
 10
225.0
 20
311.0
 30
0.0
 11
226.0
 21
312.0
 31
0.0
  0
LINE
  5
1E7
330
17
100
AcDbEntity
  8
single line
370
20
100
AcDbLine
 10
226.0
 20
312.0
 30
0.0
 11
226.0
 21
313.0
 31
0.0
  0
LINE
  5
1E8
330
17
100
AcDbEntity
  8
single line
370
20
100
AcDbLine
 10
226.0
 20
313.0
 30
0.0
 11
227.0
 21
314.0
 31
0.0
  0
LINE
  5
1E9
330
17
100
AcDbEntity
  8
single line
370
20
100
AcDbLine
 10
227.0
 20
314.0
 30
0.0
 11
227.0
 21
315.0
 31
0.0
  0
LINE
  5
1EA
330
17
100
AcDbEntity
  8
single line
370
20
100
AcDbLine
 10
227.0
 20
315.0
 30
0.0
 11
228.0
 21
316.0
 31
0.0
  0
LINE
  5
1EB
330
17
100
AcDbEntity
  8
single line
370
20
100
AcDbLine
 10
228.0
 20
316.0
 30
0.0
 11
228.0
 21
317.0
 31
0.0
  0
LINE
  5
1EC
330
17
100
AcDbEntity
  8
single line
370
20
100
AcDbLine
 10
228.0
 20
317.0
 30
0.0
 11
229.0
 21
318.0
 31
0.0
  0
LINE
  5
1ED
330
17
100
AcDbEntity
  8
single line
370
20
100
AcDbLine
 10
229.0
 20
318.0
 30
0.0
 11
229.0
 21
319.0
 31
0.0
  0
LINE
  5
1EE
330
17
100
AcDbEntity
  8
single line
370
20
100
AcDbLine
 10
229.0
 20
319.0
 30
0.0
 11
230.0
 21
320.0
 31
0.0
  0
LINE
  5
1EF
330
17
100
AcDbEntity
  8
single line
370
20
100
AcDbLine
 10
230.0
 20
320.0
 30
0.0
 11
230.0
 21
321.0
 31
0.0
  0
LINE
  5
1F0
330
17
100
AcDbEntity
  8
single line
370
20
100
AcDbLine
 10
230.0
 20
321.0
 30
0.0
 11
232.0
 21
323.0
 31
0.0
  0
LINE
  5
1F1
330
17
100
AcDbEntity
  8
single line
370
20
100
AcDbLine
 10
232.0
 20
323.0
 30
0.0
 11
232.0
 21
325.0
 31
0.0
  0
LINE
  5
1F2
330
17
100
AcDbEntity
  8
single line
370
20
100
AcDbLine
 10
232.0
 20
325.0
 30
0.0
 11
234.0
 21
327.0
 31
0.0
  0
LINE
  5
1F3
330
17
100
AcDbEntity
  8
single line
370
20
100
AcDbLine
 10
234.0
 20
327.0
 30
0.0
 11
234.0
 21
328.0
 31
0.0
  0
LINE
  5
1F4
330
17
100
AcDbEntity
  8
single line
370
20
100
AcDbLine
 10
234.0
 20
328.0
 30
0.0
 11
235.0
 21
329.0
 31
0.0
  0
LINE
  5
1F5
330
17
100
AcDbEntity
  8
single line
370
20
100
AcDbLine
 10
235.0
 20
329.0
 30
0.0
 11
235.0
 21
330.0
 31
0.0
  0
LINE
  5
1F6
330
17
100
AcDbEntity
  8
single line
370
20
100
AcDbLine
 10
235.0
 20
330.0
 30
0.0
 11
237.0
 21
332.0
 31
0.0
  0
LINE
  5
1F7
330
17
100
AcDbEntity
  8
single line
370
20
100
AcDbLine
 10
237.0
 20
332.0
 30
0.0
 11
237.0
 21
333.0
 31
0.0
  0
LINE
  5
1F8
330
17
100
AcDbEntity
  8
single line
370
20
100
AcDbLine
 10
237.0
 20
333.0
 30
0.0
 11
240.0
 21
336.0
 31
0.0
  0
LINE
  5
1F9
330
17
100
AcDbEntity
  8
single line
370
20
100
AcDbLine
 10
240.0
 20
336.0
 30
0.0
 11
240.0
 21
337.0
 31
0.0
  0
LINE
  5
1FA
330
17
100
AcDbEntity
  8
single line
370
20
100
AcDbLine
 10
240.0
 20
337.0
 30
0.0
 11
244.0
 21
341.0
 31
0.0
  0
LINE
  5
1FB
330
17
100
AcDbEntity
  8
single line
370
20
100
AcDbLine
 10
244.0
 20
341.0
 30
0.0
 11
244.0
 21
342.0
 31
0.0
  0
LINE
  5
1FC
330
17
100
AcDbEntity
  8
single line
370
20
100
AcDbLine
 10
244.0
 20
342.0
 30
0.0
 11
263.0
 21
361.0
 31
0.0
  0
LINE
  5
1FD
330
17
100
AcDbEntity
  8
single line
370
20
100
AcDbLine
 10
263.0
 20
361.0
 30
0.0
 11
264.0
 21
361.0
 31
0.0
  0
LINE
  5
1FE
330
17
100
AcDbEntity
  8
single line
370
20
100
AcDbLine
 10
264.0
 20
361.0
 30
0.0
 11
271.0
 21
368.0
 31
0.0
  0
LINE
  5
1FF
330
17
100
AcDbEntity
  8
single line
370
20
100
AcDbLine
 10
271.0
 20
368.0
 30
0.0
 11
272.0
 21
368.0
 31
0.0
  0
LINE
  5
200
330
17
100
AcDbEntity
  8
single line
370
20
100
AcDbLine
 10
272.0
 20
368.0
 30
0.0
 11
275.0
 21
371.0
 31
0.0
  0
LINE
  5
201
330
17
100
AcDbEntity
  8
single line
370
20
100
AcDbLine
 10
275.0
 20
371.0
 30
0.0
 11
276.0
 21
371.0
 31
0.0
  0
LINE
  5
202
330
17
100
AcDbEntity
  8
single line
370
20
100
AcDbLine
 10
276.0
 20
371.0
 30
0.0
 11
279.0
 21
374.0
 31
0.0
  0
LINE
  5
203
330
17
100
AcDbEntity
  8
single line
370
20
100
AcDbLine
 10
279.0
 20
374.0
 30
0.0
 11
280.0
 21
374.0
 31
0.0
  0
LINE
  5
204
330
17
100
AcDbEntity
  8
single line
370
20
100
AcDbLine
 10
280.0
 20
374.0
 30
0.0
 11
283.0
 21
377.0
 31
0.0
  0
LINE
  5
205
330
17
100
AcDbEntity
  8
single line
370
20
100
AcDbLine
 10
283.0
 20
377.0
 30
0.0
 11
284.0
 21
377.0
 31
0.0
  0
LINE
  5
206
330
17
100
AcDbEntity
  8
single line
370
20
100
AcDbLine
 10
284.0
 20
377.0
 30
0.0
 11
286.0
 21
379.0
 31
0.0
  0
LINE
  5
207
330
17
100
AcDbEntity
  8
single line
370
20
100
AcDbLine
 10
286.0
 20
379.0
 30
0.0
 11
287.0
 21
379.0
 31
0.0
  0
LINE
  5
208
330
17
100
AcDbEntity
  8
single line
370
20
100
AcDbLine
 10
287.0
 20
379.0
 30
0.0
 11
289.0
 21
381.0
 31
0.0
  0
LINE
  5
209
330
17
100
AcDbEntity
  8
single line
370
20
100
AcDbLine
 10
289.0
 20
381.0
 30
0.0
 11
291.0
 21
381.0
 31
0.0
  0
LINE
  5
20A
330
17
100
AcDbEntity
  8
single line
370
20
100
AcDbLine
 10
291.0
 20
381.0
 30
0.0
 11
294.0
 21
384.0
 31
0.0
  0
LINE
  5
20B
330
17
100
AcDbEntity
  8
single line
370
20
100
AcDbLine
 10
294.0
 20
384.0
 30
0.0
 11
295.0
 21
384.0
 31
0.0
  0
LINE
  5
20C
330
17
100
AcDbEntity
  8
single line
370
20
100
AcDbLine
 10
295.0
 20
384.0
 30
0.0
 11
296.0
 21
385.0
 31
0.0
  0
LINE
  5
20D
330
17
100
AcDbEntity
  8
single line
370
20
100
AcDbLine
 10
296.0
 20
385.0
 30
0.0
 11
297.0
 21
385.0
 31
0.0
  0
LINE
  5
20E
330
17
100
AcDbEntity
  8
single line
370
20
100
AcDbLine
 10
297.0
 20
385.0
 30
0.0
 11
298.0
 21
386.0
 31
0.0
  0
LINE
  5
20F
330
17
100
AcDbEntity
  8
single line
370
20
100
AcDbLine
 10
298.0
 20
386.0
 30
0.0
 11
299.0
 21
386.0
 31
0.0
  0
LINE
  5
210
330
17
100
AcDbEntity
  8
single line
370
20
100
AcDbLine
 10
299.0
 20
386.0
 30
0.0
 11
300.0
 21
387.0
 31
0.0
  0
LINE
  5
211
330
17
100
AcDbEntity
  8
single line
370
20
100
AcDbLine
 10
300.0
 20
387.0
 30
0.0
 11
301.0
 21
387.0
 31
0.0
  0
LINE
  5
212
330
17
100
AcDbEntity
  8
single line
370
20
100
AcDbLine
 10
301.0
 20
387.0
 30
0.0
 11
302.0
 21
388.0
 31
0.0
  0
LINE
  5
213
330
17
100
AcDbEntity
  8
single line
370
20
100
AcDbLine
 10
302.0
 20
388.0
 30
0.0
 11
303.0
 21
388.0
 31
0.0
  0
LINE
  5
214
330
17
100
AcDbEntity
  8
single line
370
20
100
AcDbLine
 10
303.0
 20
388.0
 30
0.0
 11
305.0
 21
390.0
 31
0.0
  0
LINE
  5
215
330
17
100
AcDbEntity
  8
single line
370
20
100
AcDbLine
 10
305.0
 20
390.0
 30
0.0
 11
306.0
 21
390.0
 31
0.0
  0
LINE
  5
216
330
17
100
AcDbEntity
  8
single line
370
20
100
AcDbLine
 10
306.0
 20
390.0
 30
0.0
 11
308.0
 21
392.0
 31
0.0
  0
LINE
  5
217
330
17
100
AcDbEntity
  8
single line
370
20
100
AcDbLine
 10
308.0
 20
392.0
 30
0.0
 11
309.0
 21
392.0
 31
0.0
  0
LINE
  5
218
330
17
100
AcDbEntity
  8
single line
370
20
100
AcDbLine
 10
309.0
 20
392.0
 30
0.0
 11
311.0
 21
394.0
 31
0.0
  0
LINE
  5
219
330
17
100
AcDbEntity
  8
single line
370
20
100
AcDbLine
 10
311.0
 20
394.0
 30
0.0
 11
312.0
 21
394.0
 31
0.0
  0
LINE
  5
21A
330
17
100
AcDbEntity
  8
single line
370
20
100
AcDbLine
 10
312.0
 20
394.0
 30
0.0
 11
313.0
 21
395.0
 31
0.0
  0
LINE
  5
21B
330
17
100
AcDbEntity
  8
single line
370
20
100
AcDbLine
 10
313.0
 20
395.0
 30
0.0
 11
314.0
 21
395.0
 31
0.0
  0
LINE
  5
21C
330
17
100
AcDbEntity
  8
single line
370
20
100
AcDbLine
 10
314.0
 20
395.0
 30
0.0
 11
316.0
 21
397.0
 31
0.0
  0
LINE
  5
21D
330
17
100
AcDbEntity
  8
single line
370
20
100
AcDbLine
 10
316.0
 20
397.0
 30
0.0
 11
317.0
 21
397.0
 31
0.0
  0
LINE
  5
21E
330
17
100
AcDbEntity
  8
single line
370
20
100
AcDbLine
 10
317.0
 20
397.0
 30
0.0
 11
320.0
 21
400.0
 31
0.0
  0
LINE
  5
21F
330
17
100
AcDbEntity
  8
single line
370
20
100
AcDbLine
 10
320.0
 20
400.0
 30
0.0
 11
321.0
 21
400.0
 31
0.0
  0
LINE
  5
220
330
17
100
AcDbEntity
  8
single line
370
20
100
AcDbLine
 10
321.0
 20
400.0
 30
0.0
 11
326.0
 21
405.0
 31
0.0
  0
LINE
  5
221
330
17
100
AcDbEntity
  8
single line
370
20
100
AcDbLine
 10
326.0
 20
405.0
 30
0.0
 11
326.0
 21
406.0
 31
0.0
  0
LINE
  5
222
330
17
100
AcDbEntity
  8
single line
370
20
100
AcDbLine
 10
326.0
 20
406.0
 30
0.0
 11
327.0
 21
407.0
 31
0.0
  0
LINE
  5
223
330
17
100
AcDbEntity
  8
single line
370
20
100
AcDbLine
 10
327.0
 20
407.0
 30
0.0
 11
327.0
 21
410.0
 31
0.0
  0
LINE
  5
224
330
17
100
AcDbEntity
  8
single line
370
20
100
AcDbLine
 10
327.0
 20
410.0
 30
0.0
 11
328.0
 21
411.0
 31
0.0
  0
LINE
  5
225
330
17
100
AcDbEntity
  8
single line
370
20
100
AcDbLine
 10
328.0
 20
411.0
 30
0.0
 11
328.0
 21
414.0
 31
0.0
  0
LINE
  5
226
330
17
100
AcDbEntity
  8
single line
370
20
100
AcDbLine
 10
328.0
 20
414.0
 30
0.0
 11
327.0
 21
415.0
 31
0.0
  0
LINE
  5
227
330
17
100
AcDbEntity
  8
single line
370
20
100
AcDbLine
 10
327.0
 20
415.0
 30
0.0
 11
327.0
 21
417.0
 31
0.0
  0
LINE
  5
228
330
17
100
AcDbEntity
  8
single line
370
20
100
AcDbLine
 10
327.0
 20
417.0
 30
0.0
 11
326.0
 21
418.0
 31
0.0
  0
LINE
  5
229
330
17
100
AcDbEntity
  8
single line
370
20
100
AcDbLine
 10
326.0
 20
418.0
 30
0.0
 11
326.0
 21
419.0
 31
0.0
  0
LINE
  5
22A
330
17
100
AcDbEntity
  8
single line
370
20
100
AcDbLine
 10
326.0
 20
419.0
 30
0.0
 11
325.0
 21
420.0
 31
0.0
  0
LINE
  5
22B
330
17
100
AcDbEntity
  8
single line
370
20
100
AcDbLine
 10
325.0
 20
420.0
 30
0.0
 11
325.0
 21
421.0
 31
0.0
  0
LINE
  5
22C
330
17
100
AcDbEntity
  8
single line
370
20
100
AcDbLine
 10
325.0
 20
421.0
 30
0.0
 11
323.0
 21
423.0
 31
0.0
  0
LINE
  5
22D
330
17
100
AcDbEntity
  8
single line
370
20
100
AcDbLine
 10
323.0
 20
423.0
 30
0.0
 11
323.0
 21
424.0
 31
0.0
  0
LINE
  5
22E
330
17
100
AcDbEntity
  8
single line
370
20
100
AcDbLine
 10
323.0
 20
424.0
 30
0.0
 11
319.0
 21
428.0
 31
0.0
  0
LINE
  5
22F
330
17
100
AcDbEntity
  8
single line
370
20
100
AcDbLine
 10
319.0
 20
428.0
 30
0.0
 11
318.0
 21
428.0
 31
0.0
  0
LINE
  5
230
330
17
100
AcDbEntity
  8
single line
370
20
100
AcDbLine
 10
318.0
 20
428.0
 30
0.0
 11
317.0
 21
429.0
 31
0.0
  0
LINE
  5
231
330
17
100
AcDbEntity
  8
single line
370
20
100
AcDbLine
 10
317.0
 20
429.0
 30
0.0
 11
316.0
 21
429.0
 31
0.0
  0
LINE
  5
232
330
17
100
AcDbEntity
  8
single line
370
20
100
AcDbLine
 10
316.0
 20
429.0
 30
0.0
 11
315.0
 21
430.0
 31
0.0
  0
LINE
  5
233
330
17
100
AcDbEntity
  8
single line
370
20
100
AcDbLine
 10
315.0
 20
430.0
 30
0.0
 11
313.0
 21
430.0
 31
0.0
  0
LINE
  5
234
330
17
100
AcDbEntity
  8
single line
370
20
100
AcDbLine
 10
313.0
 20
430.0
 30
0.0
 11
312.0
 21
431.0
 31
0.0
  0
LINE
  5
235
330
17
100
AcDbEntity
  8
single line
370
20
100
AcDbLine
 10
312.0
 20
431.0
 30
0.0
 11
306.0
 21
431.0
 31
0.0
  0
LINE
  5
236
330
17
100
AcDbEntity
  8
single line
370
20
100
AcDbLine
 10
306.0
 20
431.0
 30
0.0
 11
305.0
 21
430.0
 31
0.0
  0
LINE
  5
237
330
17
100
AcDbEntity
  8
single line
370
20
100
AcDbLine
 10
305.0
 20
430.0
 30
0.0
 11
302.0
 21
430.0
 31
0.0
  0
LINE
  5
238
330
17
100
AcDbEntity
  8
single line
370
20
100
AcDbLine
 10
302.0
 20
430.0
 30
0.0
 11
301.0
 21
429.0
 31
0.0
  0
LINE
  5
239
330
17
100
AcDbEntity
  8
single line
370
20
100
AcDbLine
 10
301.0
 20
429.0
 30
0.0
 11
300.0
 21
429.0
 31
0.0
  0
LINE
  5
23A
330
17
100
AcDbEntity
  8
single line
370
20
100
AcDbLine
 10
300.0
 20
429.0
 30
0.0
 11
299.0
 21
428.0
 31
0.0
  0
LINE
  5
23B
330
17
100
AcDbEntity
  8
single line
370
20
100
AcDbLine
 10
299.0
 20
428.0
 30
0.0
 11
297.0
 21
428.0
 31
0.0
  0
LINE
  5
23C
330
17
100
AcDbEntity
  8
single line
370
20
100
AcDbLine
 10
297.0
 20
428.0
 30
0.0
 11
296.0
 21
427.0
 31
0.0
  0
LINE
  5
23D
330
17
100
AcDbEntity
  8
single line
370
20
100
AcDbLine
 10
296.0
 20
427.0
 30
0.0
 11
295.0
 21
427.0
 31
0.0
  0
LINE
  5
23E
330
17
100
AcDbEntity
  8
single line
370
20
100
AcDbLine
 10
295.0
 20
427.0
 30
0.0
 11
294.0
 21
426.0
 31
0.0
  0
LINE
  5
23F
330
17
100
AcDbEntity
  8
single line
370
20
100
AcDbLine
 10
294.0
 20
426.0
 30
0.0
 11
292.0
 21
426.0
 31
0.0
  0
LINE
  5
240
330
17
100
AcDbEntity
  8
single line
370
20
100
AcDbLine
 10
292.0
 20
426.0
 30
0.0
 11
291.0
 21
425.0
 31
0.0
  0
LINE
  5
241
330
17
100
AcDbEntity
  8
single line
370
20
100
AcDbLine
 10
291.0
 20
425.0
 30
0.0
 11
290.0
 21
425.0
 31
0.0
  0
LINE
  5
242
330
17
100
AcDbEntity
  8
single line
370
20
100
AcDbLine
 10
290.0
 20
425.0
 30
0.0
 11
289.0
 21
424.0
 31
0.0
  0
LINE
  5
243
330
17
100
AcDbEntity
  8
single line
370
20
100
AcDbLine
 10
289.0
 20
424.0
 30
0.0
 11
288.0
 21
424.0
 31
0.0
  0
LINE
  5
244
330
17
100
AcDbEntity
  8
single line
370
20
100
AcDbLine
 10
288.0
 20
424.0
 30
0.0
 11
287.0
 21
423.0
 31
0.0
  0
LINE
  5
245
330
17
100
AcDbEntity
  8
single line
370
20
100
AcDbLine
 10
287.0
 20
423.0
 30
0.0
 11
285.0
 21
423.0
 31
0.0
  0
LINE
  5
246
330
17
100
AcDbEntity
  8
single line
370
20
100
AcDbLine
 10
285.0
 20
423.0
 30
0.0
 11
284.0
 21
422.0
 31
0.0
  0
LINE
  5
247
330
17
100
AcDbEntity
  8
single line
370
20
100
AcDbLine
 10
284.0
 20
422.0
 30
0.0
 11
283.0
 21
422.0
 31
0.0
  0
LINE
  5
248
330
17
100
AcDbEntity
  8
single line
370
20
100
AcDbLine
 10
283.0
 20
422.0
 30
0.0
 11
282.0
 21
421.0
 31
0.0
  0
LINE
  5
249
330
17
100
AcDbEntity
  8
single line
370
20
100
AcDbLine
 10
282.0
 20
421.0
 30
0.0
 11
280.0
 21
421.0
 31
0.0
  0
LINE
  5
24A
330
17
100
AcDbEntity
  8
single line
370
20
100
AcDbLine
 10
280.0
 20
421.0
 30
0.0
 11
279.0
 21
420.0
 31
0.0
  0
LINE
  5
24B
330
17
100
AcDbEntity
  8
single line
370
20
100
AcDbLine
 10
279.0
 20
420.0
 30
0.0
 11
278.0
 21
420.0
 31
0.0
  0
LINE
  5
24C
330
17
100
AcDbEntity
  8
single line
370
20
100
AcDbLine
 10
278.0
 20
420.0
 30
0.0
 11
277.0
 21
419.0
 31
0.0
  0
LINE
  5
24D
330
17
100
AcDbEntity
  8
single line
370
20
100
AcDbLine
 10
277.0
 20
419.0
 30
0.0
 11
276.0
 21
419.0
 31
0.0
  0
LINE
  5
24E
330
17
100
AcDbEntity
  8
single line
370
20
100
AcDbLine
 10
276.0
 20
419.0
 30
0.0
 11
275.0
 21
418.0
 31
0.0
  0
LINE
  5
24F
330
17
100
AcDbEntity
  8
single line
370
20
100
AcDbLine
 10
275.0
 20
418.0
 30
0.0
 11
274.0
 21
418.0
 31
0.0
  0
LINE
  5
250
330
17
100
AcDbEntity
  8
single line
370
20
100
AcDbLine
 10
274.0
 20
418.0
 30
0.0
 11
273.0
 21
417.0
 31
0.0
  0
LINE
  5
251
330
17
100
AcDbEntity
  8
single line
370
20
100
AcDbLine
 10
273.0
 20
417.0
 30
0.0
 11
272.0
 21
417.0
 31
0.0
  0
LINE
  5
252
330
17
100
AcDbEntity
  8
single line
370
20
100
AcDbLine
 10
272.0
 20
417.0
 30
0.0
 11
271.0
 21
416.0
 31
0.0
  0
LINE
  5
253
330
17
100
AcDbEntity
  8
single line
370
20
100
AcDbLine
 10
271.0
 20
416.0
 30
0.0
 11
270.0
 21
416.0
 31
0.0
  0
LINE
  5
254
330
17
100
AcDbEntity
  8
single line
370
20
100
AcDbLine
 10
270.0
 20
416.0
 30
0.0
 11
269.0
 21
415.0
 31
0.0
  0
LINE
  5
255
330
17
100
AcDbEntity
  8
single line
370
20
100
AcDbLine
 10
269.0
 20
415.0
 30
0.0
 11
268.0
 21
415.0
 31
0.0
  0
LINE
  5
256
330
17
100
AcDbEntity
  8
single line
370
20
100
AcDbLine
 10
268.0
 20
415.0
 30
0.0
 11
267.0
 21
414.0
 31
0.0
  0
LINE
  5
257
330
17
100
AcDbEntity
  8
single line
370
20
100
AcDbLine
 10
267.0
 20
414.0
 30
0.0
 11
266.0
 21
414.0
 31
0.0
  0
LINE
  5
258
330
17
100
AcDbEntity
  8
single line
370
20
100
AcDbLine
 10
266.0
 20
414.0
 30
0.0
 11
265.0
 21
413.0
 31
0.0
  0
LINE
  5
259
330
17
100
AcDbEntity
  8
single line
370
20
100
AcDbLine
 10
265.0
 20
413.0
 30
0.0
 11
264.0
 21
413.0
 31
0.0
  0
LINE
  5
25A
330
17
100
AcDbEntity
  8
single line
370
20
100
AcDbLine
 10
264.0
 20
413.0
 30
0.0
 11
263.0
 21
412.0
 31
0.0
  0
LINE
  5
25B
330
17
100
AcDbEntity
  8
single line
370
20
100
AcDbLine
 10
263.0
 20
412.0
 30
0.0
 11
262.0
 21
412.0
 31
0.0
  0
LINE
  5
25C
330
17
100
AcDbEntity
  8
single line
370
20
100
AcDbLine
 10
262.0
 20
412.0
 30
0.0
 11
261.0
 21
411.0
 31
0.0
  0
LINE
  5
25D
330
17
100
AcDbEntity
  8
single line
370
20
100
AcDbLine
 10
261.0
 20
411.0
 30
0.0
 11
260.0
 21
411.0
 31
0.0
  0
LINE
  5
25E
330
17
100
AcDbEntity
  8
single line
370
20
100
AcDbLine
 10
260.0
 20
411.0
 30
0.0
 11
258.0
 21
409.0
 31
0.0
  0
LINE
  5
25F
330
17
100
AcDbEntity
  8
single line
370
20
100
AcDbLine
 10
258.0
 20
409.0
 30
0.0
 11
257.0
 21
409.0
 31
0.0
  0
LINE
  5
260
330
17
100
AcDbEntity
  8
single line
370
20
100
AcDbLine
 10
257.0
 20
409.0
 30
0.0
 11
255.0
 21
407.0
 31
0.0
  0
LINE
  5
261
330
17
100
AcDbEntity
  8
single line
370
20
100
AcDbLine
 10
255.0
 20
407.0
 30
0.0
 11
254.0
 21
407.0
 31
0.0
  0
LINE
  5
262
330
17
100
AcDbEntity
  8
single line
370
20
100
AcDbLine
 10
254.0
 20
407.0
 30
0.0
 11
252.0
 21
405.0
 31
0.0
  0
LINE
  5
263
330
17
100
AcDbEntity
  8
single line
370
20
100
AcDbLine
 10
252.0
 20
405.0
 30
0.0
 11
251.0
 21
405.0
 31
0.0
  0
LINE
  5
264
330
17
100
AcDbEntity
  8
single line
370
20
100
AcDbLine
 10
251.0
 20
405.0
 30
0.0
 11
250.0
 21
404.0
 31
0.0
  0
LINE
  5
265
330
17
100
AcDbEntity
  8
single line
370
20
100
AcDbLine
 10
250.0
 20
404.0
 30
0.0
 11
249.0
 21
404.0
 31
0.0
  0
LINE
  5
266
330
17
100
AcDbEntity
  8
single line
370
20
100
AcDbLine
 10
249.0
 20
404.0
 30
0.0
 11
246.0
 21
401.0
 31
0.0
  0
LINE
  5
267
330
17
100
AcDbEntity
  8
single line
370
20
100
AcDbLine
 10
246.0
 20
401.0
 30
0.0
 11
245.0
 21
401.0
 31
0.0
  0
LINE
  5
268
330
17
100
AcDbEntity
  8
single line
370
20
100
AcDbLine
 10
245.0
 20
401.0
 30
0.0
 11
242.0
 21
398.0
 31
0.0
  0
LINE
  5
269
330
17
100
AcDbEntity
  8
single line
370
20
100
AcDbLine
 10
242.0
 20
398.0
 30
0.0
 11
241.0
 21
398.0
 31
0.0
  0
LINE
  5
26A
330
17
100
AcDbEntity
  8
single line
370
20
100
AcDbLine
 10
241.0
 20
398.0
 30
0.0
 11
237.0
 21
394.0
 31
0.0
  0
LINE
  5
26B
330
17
100
AcDbEntity
  8
single line
370
20
100
AcDbLine
 10
237.0
 20
394.0
 30
0.0
 11
236.0
 21
394.0
 31
0.0
  0
LINE
  5
26C
330
17
100
AcDbEntity
  8
single line
370
20
100
AcDbLine
 10
236.0
 20
394.0
 30
0.0
 11
224.0
 21
382.0
 31
0.0
  0
LINE
  5
26D
330
17
100
AcDbEntity
  8
single line
370
20
100
AcDbLine
 10
224.0
 20
382.0
 30
0.0
 11
223.0
 21
382.0
 31
0.0
  0
LINE
  5
26E
330
17
100
AcDbEntity
  8
single line
370
20
100
AcDbLine
 10
223.0
 20
382.0
 30
0.0
 11
221.0
 21
380.0
 31
0.0
  0
LINE
  5
26F
330
17
100
AcDbEntity
  8
single line
370
20
100
AcDbLine
 10
221.0
 20
380.0
 30
0.0
 11
221.0
 21
379.0
 31
0.0
  0
LINE
  5
270
330
17
100
AcDbEntity
  8
single line
370
20
100
AcDbLine
 10
221.0
 20
379.0
 30
0.0
 11
214.0
 21
372.0
 31
0.0
  0
LINE
  5
271
330
17
100
AcDbEntity
  8
single line
370
20
100
AcDbLine
 10
214.0
 20
372.0
 30
0.0
 11
214.0
 21
371.0
 31
0.0
  0
LINE
  5
272
330
17
100
AcDbEntity
  8
single line
370
20
100
AcDbLine
 10
214.0
 20
371.0
 30
0.0
 11
211.0
 21
368.0
 31
0.0
  0
LINE
  5
273
330
17
100
AcDbEntity
  8
single line
370
20
100
AcDbLine
 10
211.0
 20
368.0
 30
0.0
 11
211.0
 21
367.0
 31
0.0
  0
LINE
  5
274
330
17
100
AcDbEntity
  8
single line
370
20
100
AcDbLine
 10
211.0
 20
367.0
 30
0.0
 11
207.0
 21
363.0
 31
0.0
  0
LINE
  5
275
330
17
100
AcDbEntity
  8
single line
370
20
100
AcDbLine
 10
207.0
 20
363.0
 30
0.0
 11
207.0
 21
362.0
 31
0.0
  0
LINE
  5
276
330
17
100
AcDbEntity
  8
single line
370
20
100
AcDbLine
 10
207.0
 20
362.0
 30
0.0
 11
205.0
 21
360.0
 31
0.0
  0
LINE
  5
277
330
17
100
AcDbEntity
  8
single line
370
20
100
AcDbLine
 10
205.0
 20
360.0
 30
0.0
 11
205.0
 21
359.0
 31
0.0
  0
LINE
  5
278
330
17
100
AcDbEntity
  8
single line
370
20
100
AcDbLine
 10
205.0
 20
359.0
 30
0.0
 11
202.0
 21
356.0
 31
0.0
  0
LINE
  5
279
330
17
100
AcDbEntity
  8
single line
370
20
100
AcDbLine
 10
202.0
 20
356.0
 30
0.0
 11
202.0
 21
355.0
 31
0.0
  0
LINE
  5
27A
330
17
100
AcDbEntity
  8
single line
370
20
100
AcDbLine
 10
202.0
 20
355.0
 30
0.0
 11
200.0
 21
353.0
 31
0.0
  0
LINE
  5
27B
330
17
100
AcDbEntity
  8
single line
370
20
100
AcDbLine
 10
200.0
 20
353.0
 30
0.0
 11
200.0
 21
352.0
 31
0.0
  0
LINE
  5
27C
330
17
100
AcDbEntity
  8
single line
370
20
100
AcDbLine
 10
200.0
 20
352.0
 30
0.0
 11
198.0
 21
350.0
 31
0.0
  0
LINE
  5
27D
330
17
100
AcDbEntity
  8
single line
370
20
100
AcDbLine
 10
198.0
 20
350.0
 30
0.0
 11
198.0
 21
349.0
 31
0.0
  0
LINE
  5
27E
330
17
100
AcDbEntity
  8
single line
370
20
100
AcDbLine
 10
198.0
 20
349.0
 30
0.0
 11
197.0
 21
348.0
 31
0.0
  0
LINE
  5
27F
330
17
100
AcDbEntity
  8
single line
370
20
100
AcDbLine
 10
197.0
 20
348.0
 30
0.0
 11
197.0
 21
347.0
 31
0.0
  0
LINE
  5
280
330
17
100
AcDbEntity
  8
single line
370
20
100
AcDbLine
 10
197.0
 20
347.0
 30
0.0
 11
195.0
 21
345.0
 31
0.0
  0
LINE
  5
281
330
17
100
AcDbEntity
  8
single line
370
20
100
AcDbLine
 10
195.0
 20
345.0
 30
0.0
 11
195.0
 21
344.0
 31
0.0
  0
LINE
  5
282
330
17
100
AcDbEntity
  8
single line
370
20
100
AcDbLine
 10
195.0
 20
344.0
 30
0.0
 11
193.0
 21
342.0
 31
0.0
  0
LINE
  5
283
330
17
100
AcDbEntity
  8
single line
370
20
100
AcDbLine
 10
193.0
 20
342.0
 30
0.0
 11
193.0
 21
341.0
 31
0.0
  0
LINE
  5
284
330
17
100
AcDbEntity
  8
single line
370
20
100
AcDbLine
 10
193.0
 20
341.0
 30
0.0
 11
192.0
 21
340.0
 31
0.0
  0
LINE
  5
285
330
17
100
AcDbEntity
  8
single line
370
20
100
AcDbLine
 10
192.0
 20
340.0
 30
0.0
 11
192.0
 21
339.0
 31
0.0
  0
LINE
  5
286
330
17
100
AcDbEntity
  8
single line
370
20
100
AcDbLine
 10
192.0
 20
339.0
 30
0.0
 11
190.0
 21
337.0
 31
0.0
  0
LINE
  5
287
330
17
100
AcDbEntity
  8
single line
370
20
100
AcDbLine
 10
190.0
 20
337.0
 30
0.0
 11
190.0
 21
335.0
 31
0.0
  0
LINE
  5
288
330
17
100
AcDbEntity
  8
single line
370
20
100
AcDbLine
 10
190.0
 20
335.0
 30
0.0
 11
189.0
 21
334.0
 31
0.0
  0
LINE
  5
289
330
17
100
AcDbEntity
  8
single line
370
20
100
AcDbLine
 10
189.0
 20
334.0
 30
0.0
 11
189.0
 21
333.0
 31
0.0
  0
LINE
  5
28A
330
17
100
AcDbEntity
  8
single line
370
20
100
AcDbLine
 10
189.0
 20
333.0
 30
0.0
 11
188.0
 21
332.0
 31
0.0
  0
LINE
  5
28B
330
17
100
AcDbEntity
  8
single line
370
20
100
AcDbLine
 10
188.0
 20
332.0
 30
0.0
 11
188.0
 21
331.0
 31
0.0
  0
LINE
  5
28C
330
17
100
AcDbEntity
  8
single line
370
20
100
AcDbLine
 10
188.0
 20
331.0
 30
0.0
 11
187.0
 21
330.0
 31
0.0
  0
LINE
  5
28D
330
17
100
AcDbEntity
  8
single line
370
20
100
AcDbLine
 10
187.0
 20
330.0
 30
0.0
 11
187.0
 21
329.0
 31
0.0
  0
LINE
  5
28E
330
17
100
AcDbEntity
  8
single line
370
20
100
AcDbLine
 10
187.0
 20
329.0
 30
0.0
 11
185.0
 21
327.0
 31
0.0
  0
LINE
  5
28F
330
17
100
AcDbEntity
  8
single line
370
20
100
AcDbLine
 10
185.0
 20
327.0
 30
0.0
 11
185.0
 21
326.0
 31
0.0
  0
LINE
  5
290
330
17
100
AcDbEntity
  8
single line
370
20
100
AcDbLine
 10
185.0
 20
326.0
 30
0.0
 11
184.0
 21
325.0
 31
0.0
  0
LINE
  5
291
330
17
100
AcDbEntity
  8
single line
370
20
100
AcDbLine
 10
184.0
 20
325.0
 30
0.0
 11
184.0
 21
323.0
 31
0.0
  0
LINE
  5
292
330
17
100
AcDbEntity
  8
single line
370
20
100
AcDbLine
 10
184.0
 20
323.0
 30
0.0
 11
183.0
 21
322.0
 31
0.0
  0
LINE
  5
293
330
17
100
AcDbEntity
  8
single line
370
20
100
AcDbLine
 10
183.0
 20
322.0
 30
0.0
 11
183.0
 21
321.0
 31
0.0
  0
LINE
  5
294
330
17
100
AcDbEntity
  8
single line
370
20
100
AcDbLine
 10
183.0
 20
321.0
 30
0.0
 11
182.0
 21
320.0
 31
0.0
  0
LINE
  5
295
330
17
100
AcDbEntity
  8
single line
370
20
100
AcDbLine
 10
182.0
 20
320.0
 30
0.0
 11
182.0
 21
318.0
 31
0.0
  0
LINE
  5
296
330
17
100
AcDbEntity
  8
single line
370
20
100
AcDbLine
 10
182.0
 20
318.0
 30
0.0
 11
181.0
 21
317.0
 31
0.0
  0
LINE
  5
297
330
17
100
AcDbEntity
  8
single line
370
20
100
AcDbLine
 10
181.0
 20
317.0
 30
0.0
 11
181.0
 21
315.0
 31
0.0
  0
LINE
  5
298
330
17
100
AcDbEntity
  8
single line
370
20
100
AcDbLine
 10
181.0
 20
315.0
 30
0.0
 11
180.0
 21
314.0
 31
0.0
  0
LINE
  5
299
330
17
100
AcDbEntity
  8
single line
370
20
100
AcDbLine
 10
180.0
 20
314.0
 30
0.0
 11
180.0
 21
312.0
 31
0.0
  0
LINE
  5
29A
330
17
100
AcDbEntity
  8
single line
370
20
100
AcDbLine
 10
180.0
 20
312.0
 30
0.0
 11
179.0
 21
311.0
 31
0.0
  0
LINE
  5
29B
330
17
100
AcDbEntity
  8
single line
370
20
100
AcDbLine
 10
179.0
 20
311.0
 30
0.0
 11
179.0
 21
309.0
 31
0.0
  0
LINE
  5
29C
330
17
100
AcDbEntity
  8
single line
370
20
100
AcDbLine
 10
179.0
 20
309.0
 30
0.0
 11
178.0
 21
308.0
 31
0.0
  0
LINE
  5
29D
330
17
100
AcDbEntity
  8
single line
370
20
100
AcDbLine
 10
178.0
 20
308.0
 30
0.0
 11
178.0
 21
306.0
 31
0.0
  0
LINE
  5
29E
330
17
100
AcDbEntity
  8
single line
370
20
100
AcDbLine
 10
178.0
 20
306.0
 30
0.0
 11
177.0
 21
305.0
 31
0.0
  0
LINE
  5
29F
330
17
100
AcDbEntity
  8
single line
370
20
100
AcDbLine
 10
177.0
 20
305.0
 30
0.0
 11
177.0
 21
303.0
 31
0.0
  0
LINE
  5
2A0
330
17
100
AcDbEntity
  8
single line
370
20
100
AcDbLine
 10
177.0
 20
303.0
 30
0.0
 11
176.0
 21
302.0
 31
0.0
  0
LINE
  5
2A1
330
17
100
AcDbEntity
  8
single line
370
20
100
AcDbLine
 10
176.0
 20
302.0
 30
0.0
 11
176.0
 21
301.0
 31
0.0
  0
LINE
  5
2A2
330
17
100
AcDbEntity
  8
single line
370
20
100
AcDbLine
 10
176.0
 20
301.0
 30
0.0
 11
175.0
 21
300.0
 31
0.0
  0
LINE
  5
2A3
330
17
100
AcDbEntity
  8
single line
370
20
100
AcDbLine
 10
175.0
 20
300.0
 30
0.0
 11
175.0
 21
298.0
 31
0.0
  0
LINE
  5
2A4
330
17
100
AcDbEntity
  8
single line
370
20
100
AcDbLine
 10
175.0
 20
298.0
 30
0.0
 11
174.0
 21
297.0
 31
0.0
  0
LINE
  5
2A5
330
17
100
AcDbEntity
  8
single line
370
20
100
AcDbLine
 10
174.0
 20
297.0
 30
0.0
 11
174.0
 21
295.0
 31
0.0
  0
LINE
  5
2A6
330
17
100
AcDbEntity
  8
single line
370
20
100
AcDbLine
 10
174.0
 20
295.0
 30
0.0
 11
173.0
 21
294.0
 31
0.0
  0
LINE
  5
2A7
330
17
100
AcDbEntity
  8
single line
370
20
100
AcDbLine
 10
173.0
 20
294.0
 30
0.0
 11
173.0
 21
292.0
 31
0.0
  0
LINE
  5
2A8
330
17
100
AcDbEntity
  8
single line
370
20
100
AcDbLine
 10
173.0
 20
292.0
 30
0.0
 11
172.0
 21
291.0
 31
0.0
  0
LINE
  5
2A9
330
17
100
AcDbEntity
  8
single line
370
20
100
AcDbLine
 10
172.0
 20
291.0
 30
0.0
 11
172.0
 21
290.0
 31
0.0
  0
LINE
  5
2AA
330
17
100
AcDbEntity
  8
single line
370
20
100
AcDbLine
 10
172.0
 20
290.0
 30
0.0
 11
171.0
 21
289.0
 31
0.0
  0
LINE
  5
2AB
330
17
100
AcDbEntity
  8
single line
370
20
100
AcDbLine
 10
171.0
 20
289.0
 30
0.0
 11
171.0
 21
287.0
 31
0.0
  0
LINE
  5
2AC
330
17
100
AcDbEntity
  8
single line
370
20
100
AcDbLine
 10
171.0
 20
287.0
 30
0.0
 11
170.0
 21
286.0
 31
0.0
  0
LINE
  5
2AD
330
17
100
AcDbEntity
  8
single line
370
20
100
AcDbLine
 10
170.0
 20
286.0
 30
0.0
 11
170.0
 21
285.0
 31
0.0
  0
LINE
  5
2AE
330
17
100
AcDbEntity
  8
single line
370
20
100
AcDbLine
 10
170.0
 20
285.0
 30
0.0
 11
168.0
 21
283.0
 31
0.0
  0
LINE
  5
2AF
330
17
100
AcDbEntity
  8
single line
370
20
100
AcDbLine
 10
168.0
 20
283.0
 30
0.0
 11
168.0
 21
282.0
 31
0.0
  0
LINE
  5
2B0
330
17
100
AcDbEntity
  8
single line
370
20
100
AcDbLine
 10
168.0
 20
282.0
 30
0.0
 11
166.0
 21
280.0
 31
0.0
  0
LINE
  5
2B1
330
17
100
AcDbEntity
  8
single line
370
20
100
AcDbLine
 10
166.0
 20
280.0
 30
0.0
 11
166.0
 21
279.0
 31
0.0
  0
LINE
  5
2B2
330
17
100
AcDbEntity
  8
single line
370
20
100
AcDbLine
 10
166.0
 20
279.0
 30
0.0
 11
163.0
 21
276.0
 31
0.0
  0
LINE
  5
2B3
330
17
100
AcDbEntity
  8
single line
370
20
100
AcDbLine
 10
163.0
 20
276.0
 30
0.0
 11
163.0
 21
275.0
 31
0.0
  0
LINE
  5
2B4
330
17
100
AcDbEntity
  8
single line
370
20
100
AcDbLine
 10
163.0
 20
275.0
 30
0.0
 11
159.0
 21
271.0
 31
0.0
  0
LINE
  5
2B5
330
17
100
AcDbEntity
  8
single line
370
20
100
AcDbLine
 10
159.0
 20
271.0
 30
0.0
 11
158.0
 21
271.0
 31
0.0
  0
LINE
  5
2B6
330
17
100
AcDbEntity
  8
single line
370
20
100
AcDbLine
 10
158.0
 20
271.0
 30
0.0
 11
151.0
 21
264.0
 31
0.0
  0
LINE
  5
2B7
330
17
100
AcDbEntity
  8
single line
370
20
100
AcDbLine
 10
151.0
 20
264.0
 30
0.0
 11
150.0
 21
264.0
 31
0.0
  0
LINE
  5
2B8
330
17
100
AcDbEntity
  8
single line
370
20
100
AcDbLine
 10
150.0
 20
264.0
 30
0.0
 11
146.0
 21
260.0
 31
0.0
  0
LINE
  5
2B9
330
17
100
AcDbEntity
  8
single line
370
20
100
AcDbLine
 10
146.0
 20
260.0
 30
0.0
 11
145.0
 21
260.0
 31
0.0
  0
LINE
  5
2BA
330
17
100
AcDbEntity
  8
single line
370
20
100
AcDbLine
 10
145.0
 20
260.0
 30
0.0
 11
142.0
 21
257.0
 31
0.0
  0
LINE
  5
2BB
330
17
100
AcDbEntity
  8
single line
370
20
100
AcDbLine
 10
142.0
 20
257.0
 30
0.0
 11
142.0
 21
256.0
 31
0.0
  0
LINE
  5
2BC
330
17
100
AcDbEntity
  8
single line
370
20
100
AcDbLine
 10
142.0
 20
256.0
 30
0.0
 11
140.0
 21
254.0
 31
0.0
  0
LINE
  5
2BD
330
17
100
AcDbEntity
  8
single line
370
20
100
AcDbLine
 10
140.0
 20
254.0
 30
0.0
 11
140.0
 21
253.0
 31
0.0
  0
LINE
  5
2BE
330
17
100
AcDbEntity
  8
single line
370
20
100
AcDbLine
 10
140.0
 20
253.0
 30
0.0
 11
134.0
 21
247.0
 31
0.0
  0
LINE
  5
2BF
330
17
100
AcDbEntity
  8
single line
370
20
100
AcDbLine
 10
134.0
 20
247.0
 30
0.0
 11
134.0
 21
244.0
 31
0.0
  0
LINE
  5
2C0
330
17
100
AcDbEntity
  8
single line
370
20
100
AcDbLine
 10
134.0
 20
244.0
 30
0.0
 11
140.0
 21
238.0
 31
0.0
  0
LINE
  5
2C1
330
17
100
AcDbEntity
  8
single line
370
20
100
AcDbLine
 10
140.0
 20
238.0
 30
0.0
 11
140.0
 21
237.0
 31
0.0
  0
LINE
  5
2C2
330
17
100
AcDbEntity
  8
single line
370
20
100
AcDbLine
 10
140.0
 20
237.0
 30
0.0
 11
141.0
 21
236.0
 31
0.0
  0
LINE
  5
2C3
330
17
100
AcDbEntity
  8
single line
370
20
100
AcDbLine
 10
141.0
 20
236.0
 30
0.0
 11
141.0
 21
234.0
 31
0.0
  0
LINE
  5
2C4
330
17
100
AcDbEntity
  8
single line
370
20
100
AcDbLine
 10
141.0
 20
234.0
 30
0.0
 11
142.0
 21
233.0
 31
0.0
  0
LINE
  5
2C5
330
17
100
AcDbEntity
  8
single line
370
20
100
AcDbLine
 10
142.0
 20
233.0
 30
0.0
 11
141.0
 21
232.0
 31
0.0
  0
LINE
  5
2C6
330
17
100
AcDbEntity
  8
single line
370
20
100
AcDbLine
 10
141.0
 20
232.0
 30
0.0
 11
142.0
 21
231.0
 31
0.0
  0
LINE
  5
2C7
330
17
100
AcDbEntity
  8
single line
370
20
100
AcDbLine
 10
142.0
 20
231.0
 30
0.0
 11
142.0
 21
228.0
 31
0.0
  0
LINE
  5
2C8
330
17
100
AcDbEntity
  8
single line
370
20
100
AcDbLine
 10
142.0
 20
228.0
 30
0.0
 11
141.0
 21
227.0
 31
0.0
  0
LINE
  5
2C9
330
17
100
AcDbEntity
  8
single line
370
20
100
AcDbLine
 10
141.0
 20
227.0
 30
0.0
 11
141.0
 21
223.0
 31
0.0
  0
LINE
  5
2CA
330
17
100
AcDbEntity
  8
single line
370
20
100
AcDbLine
 10
141.0
 20
223.0
 30
0.0
 11
140.0
 21
222.0
 31
0.0
  0
LINE
  5
2CB
330
17
100
AcDbEntity
  8
single line
370
20
100
AcDbLine
 10
140.0
 20
222.0
 30
0.0
 11
140.0
 21
221.0
 31
0.0
  0
LINE
  5
2CC
330
17
100
AcDbEntity
  8
single line
370
20
100
AcDbLine
 10
140.0
 20
221.0
 30
0.0
 11
139.0
 21
220.0
 31
0.0
  0
LINE
  5
2CD
330
17
100
AcDbEntity
  8
single line
370
20
100
AcDbLine
 10
139.0
 20
220.0
 30
0.0
 11
139.0
 21
219.0
 31
0.0
  0
LINE
  5
2CE
330
17
100
AcDbEntity
  8
single line
370
20
100
AcDbLine
 10
139.0
 20
219.0
 30
0.0
 11
137.0
 21
217.0
 31
0.0
  0
LINE
  5
2CF
330
17
100
AcDbEntity
  8
single line
370
20
100
AcDbLine
 10
137.0
 20
217.0
 30
0.0
 11
137.0
 21
215.0
 31
0.0
  0
LINE
  5
2D0
330
17
100
AcDbEntity
  8
single line
370
20
100
AcDbLine
 10
137.0
 20
215.0
 30
0.0
 11
138.0
 21
214.0
 31
0.0
  0
LINE
  5
2D1
330
17
100
AcDbEntity
  8
single line
370
20
100
AcDbLine
 10
138.0
 20
214.0
 30
0.0
 11
139.0
 21
214.0
 31
0.0
  0
LINE
  5
2D2
330
17
100
AcDbEntity
  8
single line
370
20
100
AcDbLine
 10
139.0
 20
214.0
 30
0.0
 11
140.0
 21
213.0
 31
0.0
  0
LINE
  5
2D3
330
17
100
AcDbEntity
  8
single line
370
20
100
AcDbLine
 10
140.0
 20
213.0
 30
0.0
 11
142.0
 21
213.0
 31
0.0
  0
LINE
  5
2D4
330
17
100
AcDbEntity
  8
single line
370
20
100
AcDbLine
 10
142.0
 20
213.0
 30
0.0
 11
143.0
 21
212.0
 31
0.0
  0
LINE
  5
2D5
330
17
100
AcDbEntity
  8
single line
370
20
100
AcDbLine
 10
143.0
 20
212.0
 30
0.0
 11
147.0
 21
212.0
 31
0.0
  0
LINE
  5
2D6
330
17
100
AcDbEntity
  8
single line
370
20
100
AcDbLine
 10
147.0
 20
212.0
 30
0.0
 11
148.0
 21
211.0
 31
0.0
  0
LINE
  5
2D7
330
17
100
AcDbEntity
  8
single line
370
20
100
AcDbLine
 10
148.0
 20
211.0
 30
0.0
 11
148.0
 21
210.0
 31
0.0
  0
LINE
  5
2D8
330
17
100
AcDbEntity
  8
single line
370
20
100
AcDbLine
 10
148.0
 20
210.0
 30
0.0
 11
144.0
 21
206.0
 31
0.0
  0
LINE
  5
2D9
330
17
100
AcDbEntity
  8
single line
370
20
100
AcDbLine
 10
144.0
 20
206.0
 30
0.0
 11
144.0
 21
204.0
 31
0.0
  0
LINE
  5
2DA
330
17
100
AcDbEntity
  8
single line
370
20
100
AcDbLine
 10
144.0
 20
204.0
 30
0.0
 11
143.0
 21
204.0
 31
0.0
  0
LINE
  5
2DB
330
17
100
AcDbEntity
  8
single line
370
20
100
AcDbLine
 10
143.0
 20
204.0
 30
0.0
 11
142.0
 21
203.0
 31
0.0
  0
LINE
  5
2DC
330
17
100
AcDbEntity
  8
single line
370
20
100
AcDbLine
 10
142.0
 20
203.0
 30
0.0
 11
142.0
 21
202.0
 31
0.0
  0
LINE
  5
2DD
330
17
100
AcDbEntity
  8
single line
370
20
100
AcDbLine
 10
142.0
 20
202.0
 30
0.0
 11
139.0
 21
199.0
 31
0.0
  0
LINE
  5
2DE
330
17
100
AcDbEntity
  8
single line
370
20
100
AcDbLine
 10
139.0
 20
199.0
 30
0.0
 11
139.0
 21
198.0
 31
0.0
  0
LINE
  5
2DF
330
17
100
AcDbEntity
  8
single line
370
20
100
AcDbLine
 10
139.0
 20
198.0
 30
0.0
 11
135.0
 21
194.0
 31
0.0
  0
LINE
  5
2E0
330
17
100
AcDbEntity
  8
single line
370
20
100
AcDbLine
 10
135.0
 20
194.0
 30
0.0
 11
135.0
 21
193.0
 31
0.0
  0
LINE
  5
2E1
330
17
100
AcDbEntity
  8
single line
370
20
100
AcDbLine
 10
135.0
 20
193.0
 30
0.0
 11
133.0
 21
191.0
 31
0.0
  0
LINE
  5
2E2
330
17
100
AcDbEntity
  8
single line
370
20
100
AcDbLine
 10
133.0
 20
191.0
 30
0.0
 11
133.0
 21
190.0
 31
0.0
  0
LINE
  5
2E3
330
17
100
AcDbEntity
  8
single line
370
20
100
AcDbLine
 10
133.0
 20
190.0
 30
0.0
 11
131.0
 21
188.0
 31
0.0
  0
LINE
  5
2E4
330
17
100
AcDbEntity
  8
single line
370
20
100
AcDbLine
 10
131.0
 20
188.0
 30
0.0
 11
132.0
 21
187.0
 31
0.0
  0
LINE
  5
2E5
330
17
100
AcDbEntity
  8
single line
370
20
100
AcDbLine
 10
132.0
 20
187.0
 30
0.0
 11
132.0
 21
185.0
 31
0.0
  0
LINE
  5
2E6
330
17
100
AcDbEntity
  8
single line
370
20
100
AcDbLine
 10
132.0
 20
185.0
 30
0.0
 11
133.0
 21
184.0
 31
0.0
  0
LINE
  5
2E7
330
17
100
AcDbEntity
  8
single line
370
20
100
AcDbLine
 10
133.0
 20
184.0
 30
0.0
 11
133.0
 21
183.0
 31
0.0
  0
LINE
  5
2E8
330
17
100
AcDbEntity
  8
single line
370
20
100
AcDbLine
 10
133.0
 20
183.0
 30
0.0
 11
131.0
 21
181.0
 31
0.0
  0
LINE
  5
2E9
330
17
100
AcDbEntity
  8
single line
370
20
100
AcDbLine
 10
131.0
 20
181.0
 30
0.0
 11
131.0
 21
180.0
 31
0.0
  0
LINE
  5
2EA
330
17
100
AcDbEntity
  8
single line
370
20
100
AcDbLine
 10
131.0
 20
180.0
 30
0.0
 11
130.0
 21
180.0
 31
0.0
  0
LINE
  5
2EB
330
17
100
AcDbEntity
  8
single line
370
20
100
AcDbLine
 10
130.0
 20
180.0
 30
0.0
 11
129.0
 21
179.0
 31
0.0
  0
LINE
  5
2EC
330
17
100
AcDbEntity
  8
single line
370
20
100
AcDbLine
 10
129.0
 20
179.0
 30
0.0
 11
129.0
 21
178.0
 31
0.0
  0
LINE
  5
2ED
330
17
100
AcDbEntity
  8
single line
370
20
100
AcDbLine
 10
129.0
 20
178.0
 30
0.0
 11
128.0
 21
178.0
 31
0.0
  0
LINE
  5
2EE
330
17
100
AcDbEntity
  8
single line
370
20
100
AcDbLine
 10
128.0
 20
178.0
 30
0.0
 11
124.0
 21
174.0
 31
0.0
  0
LINE
  5
2EF
330
17
100
AcDbEntity
  8
single line
370
20
100
AcDbLine
 10
124.0
 20
174.0
 30
0.0
 11
122.0
 21
176.0
 31
0.0
  0
LINE
  5
2F0
330
17
100
AcDbEntity
  8
single line
370
20
100
AcDbLine
 10
122.0
 20
176.0
 30
0.0
 11
117.0
 21
176.0
 31
0.0
  0
LINE
  5
2F1
330
17
100
AcDbEntity
  8
single line
370
20
100
AcDbLine
 10
117.0
 20
176.0
 30
0.0
 11
116.0
 21
175.0
 31
0.0
  0
LINE
  5
2F2
330
17
100
AcDbEntity
  8
single line
370
20
100
AcDbLine
 10
116.0
 20
175.0
 30
0.0
 11
115.0
 21
175.0
 31
0.0
  0
LINE
  5
2F3
330
17
100
AcDbEntity
  8
single line
370
20
100
AcDbLine
 10
115.0
 20
175.0
 30
0.0
 11
112.0
 21
172.0
 31
0.0
  0
LINE
  5
2F4
330
17
100
AcDbEntity
  8
single line
370
20
100
AcDbLine
 10
112.0
 20
172.0
 30
0.0
 11
111.0
 21
172.0
 31
0.0
  0
LINE
  5
2F5
330
17
100
AcDbEntity
  8
single line
370
20
100
AcDbLine
 10
111.0
 20
172.0
 30
0.0
 11
108.0
 21
169.0
 31
0.0
  0
LINE
  5
2F6
330
17
100
AcDbEntity
  8
single line
370
20
100
AcDbLine
 10
108.0
 20
169.0
 30
0.0
 11
107.0
 21
169.0
 31
0.0
  0
LINE
  5
2F7
330
17
100
AcDbEntity
  8
single line
370
20
100
AcDbLine
 10
107.0
 20
169.0
 30
0.0
 11
106.0
 21
168.0
 31
0.0
  0
LINE
  5
2F8
330
17
100
AcDbEntity
  8
single line
370
20
100
AcDbLine
 10
106.0
 20
168.0
 30
0.0
 11
105.0
 21
168.0
 31
0.0
  0
LINE
  5
2F9
330
17
100
AcDbEntity
  8
single line
370
20
100
AcDbLine
 10
105.0
 20
168.0
 30
0.0
 11
102.0
 21
165.0
 31
0.0
  0
LINE
  5
2FA
330
17
100
AcDbEntity
  8
single line
370
20
100
AcDbLine
 10
102.0
 20
165.0
 30
0.0
 11
101.0
 21
165.0
 31
0.0
  0
LINE
  5
2FB
330
17
100
AcDbEntity
  8
single line
370
20
100
AcDbLine
 10
101.0
 20
165.0
 30
0.0
 11
98.0
 21
162.0
 31
0.0
  0
LINE
  5
2FC
330
17
100
AcDbEntity
  8
single line
370
20
100
AcDbLine
 10
98.0
 20
162.0
 30
0.0
 11
97.0
 21
162.0
 31
0.0
  0
LINE
  5
2FD
330
17
100
AcDbEntity
  8
single line
370
20
100
AcDbLine
 10
97.0
 20
162.0
 30
0.0
 11
94.0
 21
159.0
 31
0.0
  0
LINE
  5
2FE
330
17
100
AcDbEntity
  8
single line
370
20
100
AcDbLine
 10
94.0
 20
159.0
 30
0.0
 11
93.0
 21
159.0
 31
0.0
  0
LINE
  5
2FF
330
17
100
AcDbEntity
  8
single line
370
20
100
AcDbLine
 10
93.0
 20
159.0
 30
0.0
 11
92.0
 21
158.0
 31
0.0
  0
LINE
  5
300
330
17
100
AcDbEntity
  8
single line
370
20
100
AcDbLine
 10
92.0
 20
158.0
 30
0.0
 11
92.0
 21
157.0
 31
0.0
  0
LINE
  5
301
330
17
100
AcDbEntity
  8
single line
370
20
100
AcDbLine
 10
92.0
 20
157.0
 30
0.0
 11
91.0
 21
157.0
 31
0.0
  0
LINE
  5
302
330
17
100
AcDbEntity
  8
single line
370
20
100
AcDbLine
 10
91.0
 20
157.0
 30
0.0
 11
90.0
 21
156.0
 31
0.0
  0
LINE
  5
303
330
17
100
AcDbEntity
  8
single line
370
20
100
AcDbLine
 10
90.0
 20
156.0
 30
0.0
 11
90.0
 21
155.0
 31
0.0
  0
LINE
  5
304
330
17
100
AcDbEntity
  8
single line
370
20
100
AcDbLine
 10
90.0
 20
155.0
 30
0.0
 11
87.0
 21
152.0
 31
0.0
  0
LINE
  5
305
330
17
100
AcDbEntity
  8
single line
370
20
100
AcDbLine
 10
87.0
 20
152.0
 30
0.0
 11
87.0
 21
151.0
 31
0.0
  0
LINE
  5
306
330
17
100
AcDbEntity
  8
single line
370
20
100
AcDbLine
 10
87.0
 20
151.0
 30
0.0
 11
83.0
 21
147.0
 31
0.0
  0
LINE
  5
307
330
17
100
AcDbEntity
  8
single line
370
20
100
AcDbLine
 10
83.0
 20
147.0
 30
0.0
 11
83.0
 21
146.0
 31
0.0
  0
LINE
  5
308
330
17
100
AcDbEntity
  8
single line
370
20
100
AcDbLine
 10
83.0
 20
146.0
 30
0.0
 11
79.0
 21
142.0
 31
0.0
  0
LINE
  5
309
330
17
100
AcDbEntity
  8
single line
370
20
100
AcDbLine
 10
79.0
 20
142.0
 30
0.0
 11
79.0
 21
141.0
 31
0.0
  0
LINE
  5
30A
330
17
100
AcDbEntity
  8
single line
370
20
100
AcDbLine
 10
79.0
 20
141.0
 30
0.0
 11
75.0
 21
137.0
 31
0.0
  0
LINE
  5
30B
330
17
100
AcDbEntity
  8
single line
370
20
100
AcDbLine
 10
75.0
 20
137.0
 30
0.0
 11
75.0
 21
136.0
 31
0.0
  0
LINE
  5
30C
330
17
100
AcDbEntity
  8
single line
370
20
100
AcDbLine
 10
75.0
 20
136.0
 30
0.0
 11
72.0
 21
133.0
 31
0.0
  0
LINE
  5
30D
330
17
100
AcDbEntity
  8
single line
370
20
100
AcDbLine
 10
72.0
 20
133.0
 30
0.0
 11
72.0
 21
132.0
 31
0.0
  0
LINE
  5
30E
330
17
100
AcDbEntity
  8
single line
370
20
100
AcDbLine
 10
72.0
 20
132.0
 30
0.0
 11
68.0
 21
128.0
 31
0.0
  0
LINE
  5
30F
330
17
100
AcDbEntity
  8
single line
370
20
100
AcDbLine
 10
68.0
 20
128.0
 30
0.0
 11
68.0
 21
127.0
 31
0.0
  0
LINE
  5
310
330
17
100
AcDbEntity
  8
single line
370
20
100
AcDbLine
 10
68.0
 20
127.0
 30
0.0
 11
67.0
 21
126.0
 31
0.0
  0
LINE
  5
311
330
17
100
AcDbEntity
  8
single line
370
20
100
AcDbLine
 10
67.0
 20
126.0
 30
0.0
 11
67.0
 21
125.0
 31
0.0
  0
LINE
  5
312
330
17
100
AcDbEntity
  8
single line
370
20
100
AcDbLine
 10
67.0
 20
125.0
 30
0.0
 11
65.0
 21
123.0
 31
0.0
  0
LINE
  5
313
330
17
100
AcDbEntity
  8
single line
370
20
100
AcDbLine
 10
65.0
 20
123.0
 30
0.0
 11
65.0
 21
122.0
 31
0.0
  0
LINE
  5
314
330
17
100
AcDbEntity
  8
single line
370
20
100
AcDbLine
 10
65.0
 20
122.0
 30
0.0
 11
63.0
 21
120.0
 31
0.0
  0
LINE
  5
315
330
17
100
AcDbEntity
  8
single line
370
20
100
AcDbLine
 10
63.0
 20
120.0
 30
0.0
 11
63.0
 21
119.0
 31
0.0
  0
LINE
  5
316
330
17
100
AcDbEntity
  8
single line
370
20
100
AcDbLine
 10
63.0
 20
119.0
 30
0.0
 11
62.0
 21
118.0
 31
0.0
  0
LINE
  5
317
330
17
100
AcDbEntity
  8
single line
370
20
100
AcDbLine
 10
62.0
 20
118.0
 30
0.0
 11
62.0
 21
117.0
 31
0.0
  0
LINE
  5
318
330
17
100
AcDbEntity
  8
single line
370
20
100
AcDbLine
 10
62.0
 20
117.0
 30
0.0
 11
59.0
 21
114.0
 31
0.0
  0
LINE
  5
319
330
17
100
AcDbEntity
  8
single line
370
20
100
AcDbLine
 10
59.0
 20
114.0
 30
0.0
 11
59.0
 21
113.0
 31
0.0
  0
LINE
  5
31A
330
17
100
AcDbEntity
  8
single line
370
20
100
AcDbLine
 10
59.0
 20
113.0
 30
0.0
 11
57.0
 21
111.0
 31
0.0
  0
LINE
  5
31B
330
17
100
AcDbEntity
  8
single line
370
20
100
AcDbLine
 10
57.0
 20
111.0
 30
0.0
 11
57.0
 21
107.0
 31
0.0
  0
LINE
  5
31C
330
17
100
AcDbEntity
  8
single line
370
20
100
AcDbLine
 10
57.0
 20
107.0
 30
0.0
 11
59.0
 21
105.0
 31
0.0
  0
LINE
  5
31D
330
17
100
AcDbEntity
  8
single line
370
20
100
AcDbLine
 10
59.0
 20
105.0
 30
0.0
 11
60.0
 21
105.0
 31
0.0
  0
LINE
  5
31E
330
17
100
AcDbEntity
  8
single line
370
20
100
AcDbLine
 10
60.0
 20
105.0
 30
0.0
 11
61.0
 21
106.0
 31
0.0
  0
LINE
  5
31F
330
17
100
AcDbEntity
  8
single line
370
20
100
AcDbLine
 10
61.0
 20
106.0
 30
0.0
 11
63.0
 21
106.0
 31
0.0
  0
LINE
  5
320
330
17
100
AcDbEntity
  8
single line
370
20
100
AcDbLine
 10
63.0
 20
106.0
 30
0.0
 11
65.0
 21
108.0
 31
0.0
  0
LINE
  5
321
330
17
100
AcDbEntity
  8
single line
370
20
100
AcDbLine
 10
65.0
 20
108.0
 30
0.0
 11
66.0
 21
108.0
 31
0.0
  0
LINE
  5
322
330
17
100
AcDbEntity
  8
single line
370
20
100
AcDbLine
 10
66.0
 20
108.0
 30
0.0
 11
69.0
 21
111.0
 31
0.0
  0
LINE
  5
323
330
17
100
AcDbEntity
  8
single line
370
20
100
AcDbLine
 10
69.0
 20
111.0
 30
0.0
 11
70.0
 21
111.0
 31
0.0
  0
LINE
  5
324
330
17
100
AcDbEntity
  8
single line
370
20
100
AcDbLine
 10
70.0
 20
111.0
 30
0.0
 11
72.0
 21
113.0
 31
0.0
  0
LINE
  5
325
330
17
100
AcDbEntity
  8
single line
370
20
100
AcDbLine
 10
72.0
 20
113.0
 30
0.0
 11
73.0
 21
113.0
 31
0.0
  0
LINE
  5
326
330
17
100
AcDbEntity
  8
single line
370
20
100
AcDbLine
 10
73.0
 20
113.0
 30
0.0
 11
75.0
 21
115.0
 31
0.0
  0
LINE
  5
327
330
17
100
AcDbEntity
  8
single line
370
20
100
AcDbLine
 10
75.0
 20
115.0
 30
0.0
 11
76.0
 21
115.0
 31
0.0
  0
LINE
  5
328
330
17
100
AcDbEntity
  8
single line
370
20
100
AcDbLine
 10
76.0
 20
115.0
 30
0.0
 11
78.0
 21
117.0
 31
0.0
  0
LINE
  5
329
330
17
100
AcDbEntity
  8
single line
370
20
100
AcDbLine
 10
78.0
 20
117.0
 30
0.0
 11
79.0
 21
117.0
 31
0.0
  0
LINE
  5
32A
330
17
100
AcDbEntity
  8
single line
370
20
100
AcDbLine
 10
79.0
 20
117.0
 30
0.0
 11
81.0
 21
119.0
 31
0.0
  0
LINE
  5
32B
330
17
100
AcDbEntity
  8
single line
370
20
100
AcDbLine
 10
81.0
 20
119.0
 30
0.0
 11
82.0
 21
119.0
 31
0.0
  0
LINE
  5
32C
330
17
100
AcDbEntity
  8
single line
370
20
100
AcDbLine
 10
82.0
 20
119.0
 30
0.0
 11
85.0
 21
122.0
 31
0.0
  0
LINE
  5
32D
330
17
100
AcDbEntity
  8
single line
370
20
100
AcDbLine
 10
85.0
 20
122.0
 30
0.0
 11
86.0
 21
122.0
 31
0.0
  0
LINE
  5
32E
330
17
100
AcDbEntity
  8
single line
370
20
100
AcDbLine
 10
86.0
 20
122.0
 30
0.0
 11
87.0
 21
123.0
 31
0.0
  0
LINE
  5
32F
330
17
100
AcDbEntity
  8
single line
370
20
100
AcDbLine
 10
87.0
 20
123.0
 30
0.0
 11
88.0
 21
123.0
 31
0.0
  0
LINE
  5
330
330
17
100
AcDbEntity
  8
single line
370
20
100
AcDbLine
 10
88.0
 20
123.0
 30
0.0
 11
89.0
 21
124.0
 31
0.0
  0
LINE
  5
331
330
17
100
AcDbEntity
  8
single line
370
20
100
AcDbLine
 10
89.0
 20
124.0
 30
0.0
 11
89.0
 21
125.0
 31
0.0
  0
LINE
  5
332
330
17
100
AcDbEntity
  8
single line
370
20
100
AcDbLine
 10
89.0
 20
125.0
 30
0.0
 11
90.0
 21
126.0
 31
0.0
  0
LINE
  5
333
330
17
100
AcDbEntity
  8
single line
370
20
100
AcDbLine
 10
90.0
 20
126.0
 30
0.0
 11
90.0
 21
127.0
 31
0.0
  0
LINE
  5
334
330
17
100
AcDbEntity
  8
single line
370
20
100
AcDbLine
 10
90.0
 20
127.0
 30
0.0
 11
94.0
 21
131.0
 31
0.0
  0
LINE
  5
335
330
17
100
AcDbEntity
  8
single line
370
20
100
AcDbLine
 10
94.0
 20
131.0
 30
0.0
 11
95.0
 21
131.0
 31
0.0
  0
LINE
  5
336
330
17
100
AcDbEntity
  8
single line
370
20
100
AcDbLine
 10
95.0
 20
131.0
 30
0.0
 11
96.0
 21
132.0
 31
0.0
  0
LINE
  5
337
330
17
100
AcDbEntity
  8
single line
370
20
100
AcDbLine
 10
96.0
 20
132.0
 30
0.0
 11
101.0
 21
132.0
 31
0.0
  0
LINE
  5
338
330
17
100
AcDbEntity
  8
single line
370
20
100
AcDbLine
 10
101.0
 20
132.0
 30
0.0
 11
103.0
 21
134.0
 31
0.0
  0
LINE
  5
339
330
17
100
AcDbEntity
  8
single line
370
20
100
AcDbLine
 10
103.0
 20
134.0
 30
0.0
 11
104.0
 21
134.0
 31
0.0
  0
LINE
  5
33A
330
17
100
AcDbEntity
  8
single line
370
20
100
AcDbLine
 10
104.0
 20
134.0
 30
0.0
 11
106.0
 21
136.0
 31
0.0
  0
LINE
  5
33B
330
17
100
AcDbEntity
  8
single line
370
20
100
AcDbLine
 10
106.0
 20
136.0
 30
0.0
 11
107.0
 21
136.0
 31
0.0
  0
LINE
  5
33C
330
17
100
AcDbEntity
  8
single line
370
20
100
AcDbLine
 10
107.0
 20
136.0
 30
0.0
 11
108.0
 21
137.0
 31
0.0
  0
LINE
  5
33D
330
17
100
AcDbEntity
  8
single line
370
20
100
AcDbLine
 10
108.0
 20
137.0
 30
0.0
 11
109.0
 21
137.0
 31
0.0
  0
LINE
  5
33E
330
17
100
AcDbEntity
  8
single line
370
20
100
AcDbLine
 10
109.0
 20
137.0
 30
0.0
 11
111.0
 21
139.0
 31
0.0
  0
LINE
  5
33F
330
17
100
AcDbEntity
  8
single line
370
20
100
AcDbLine
 10
111.0
 20
139.0
 30
0.0
 11
112.0
 21
139.0
 31
0.0
  0
LINE
  5
340
330
17
100
AcDbEntity
  8
single line
370
20
100
AcDbLine
 10
112.0
 20
139.0
 30
0.0
 11
114.0
 21
141.0
 31
0.0
  0
LINE
  5
341
330
17
100
AcDbEntity
  8
single line
370
20
100
AcDbLine
 10
114.0
 20
141.0
 30
0.0
 11
115.0
 21
141.0
 31
0.0
  0
LINE
  5
342
330
17
100
AcDbEntity
  8
single line
370
20
100
AcDbLine
 10
115.0
 20
141.0
 30
0.0
 11
116.0
 21
142.0
 31
0.0
  0
LINE
  5
343
330
17
100
AcDbEntity
  8
single line
370
20
100
AcDbLine
 10
116.0
 20
142.0
 30
0.0
 11
117.0
 21
142.0
 31
0.0
  0
LINE
  5
344
330
17
100
AcDbEntity
  8
single line
370
20
100
AcDbLine
 10
117.0
 20
142.0
 30
0.0
 11
120.0
 21
145.0
 31
0.0
  0
LINE
  5
345
330
17
100
AcDbEntity
  8
single line
370
20
100
AcDbLine
 10
120.0
 20
145.0
 30
0.0
 11
121.0
 21
145.0
 31
0.0
  0
LINE
  5
346
330
17
100
AcDbEntity
  8
single line
370
20
100
AcDbLine
 10
121.0
 20
145.0
 30
0.0
 11
122.0
 21
146.0
 31
0.0
  0
LINE
  5
347
330
17
100
AcDbEntity
  8
single line
370
20
100
AcDbLine
 10
122.0
 20
146.0
 30
0.0
 11
123.0
 21
146.0
 31
0.0
  0
LINE
  5
348
330
17
100
AcDbEntity
  8
single line
370
20
100
AcDbLine
 10
123.0
 20
146.0
 30
0.0
 11
124.0
 21
147.0
 31
0.0
  0
LINE
  5
349
330
17
100
AcDbEntity
  8
single line
370
20
100
AcDbLine
 10
124.0
 20
147.0
 30
0.0
 11
125.0
 21
146.0
 31
0.0
  0
LINE
  5
34A
330
17
100
AcDbEntity
  8
single line
370
20
100
AcDbLine
 10
125.0
 20
146.0
 30
0.0
 11
126.0
 21
146.0
 31
0.0
  0
LINE
  5
34B
330
17
100
AcDbEntity
  8
single line
370
20
100
AcDbLine
 10
126.0
 20
146.0
 30
0.0
 11
127.0
 21
145.0
 31
0.0
  0
LINE
  5
34C
330
17
100
AcDbEntity
  8
single line
370
20
100
AcDbLine
 10
127.0
 20
145.0
 30
0.0
 11
127.0
 21
143.0
 31
0.0
  0
LINE
  5
34D
330
17
100
AcDbEntity
  8
single line
370
20
100
AcDbLine
 10
127.0
 20
143.0
 30
0.0
 11
126.0
 21
143.0
 31
0.0
  0
LINE
  5
34E
330
17
100
AcDbEntity
  8
single line
370
20
100
AcDbLine
 10
126.0
 20
143.0
 30
0.0
 11
120.0
 21
137.0
 31
0.0
  0
LINE
  5
34F
330
17
100
AcDbEntity
  8
single line
370
20
100
AcDbLine
 10
120.0
 20
137.0
 30
0.0
 11
120.0
 21
136.0
 31
0.0
  0
LINE
  5
350
330
17
100
AcDbEntity
  8
single line
370
20
100
AcDbLine
 10
120.0
 20
136.0
 30
0.0
 11
115.0
 21
131.0
 31
0.0
  0
LINE
  5
351
330
17
100
AcDbEntity
  8
single line
370
20
100
AcDbLine
 10
115.0
 20
131.0
 30
0.0
 11
115.0
 21
130.0
 31
0.0
  0
LINE
  5
352
330
17
100
AcDbEntity
  8
single line
370
20
100
AcDbLine
 10
115.0
 20
130.0
 30
0.0
 11
109.0
 21
124.0
 31
0.0
  0
LINE
  5
353
330
17
100
AcDbEntity
  8
single line
370
20
100
AcDbLine
 10
109.0
 20
124.0
 30
0.0
 11
109.0
 21
123.0
 31
0.0
  0
LINE
  5
354
330
17
100
AcDbEntity
  8
single line
370
20
100
AcDbLine
 10
109.0
 20
123.0
 30
0.0
 11
108.0
 21
122.0
 31
0.0
  0
LINE
  5
355
330
17
100
AcDbEntity
  8
single line
370
20
100
AcDbLine
 10
108.0
 20
122.0
 30
0.0
 11
108.0
 21
121.0
 31
0.0
  0
LINE
  5
356
330
17
100
AcDbEntity
  8
single line
370
20
100
AcDbLine
 10
108.0
 20
121.0
 30
0.0
 11
109.0
 21
120.0
 31
0.0
  0
LINE
  5
357
330
17
100
AcDbEntity
  8
single line
370
20
100
AcDbLine
 10
109.0
 20
120.0
 30
0.0
 11
107.0
 21
118.0
 31
0.0
  0
LINE
  5
358
330
17
100
AcDbEntity
  8
single line
370
20
100
AcDbLine
 10
107.0
 20
118.0
 30
0.0
 11
107.0
 21
117.0
 31
0.0
  0
LINE
  5
359
330
17
100
AcDbEntity
  8
single line
370
20
100
AcDbLine
 10
107.0
 20
117.0
 30
0.0
 11
105.0
 21
115.0
 31
0.0
  0
LINE
  5
35A
330
17
100
AcDbEntity
  8
single line
370
20
100
AcDbLine
 10
105.0
 20
115.0
 30
0.0
 11
105.0
 21
114.0
 31
0.0
  0
LINE
  5
35B
330
17
100
AcDbEntity
  8
single line
370
20
100
AcDbLine
 10
105.0
 20
114.0
 30
0.0
 11
104.0
 21
113.0
 31
0.0
  0
LINE
  5
35C
330
17
100
AcDbEntity
  8
single line
370
20
100
AcDbLine
 10
104.0
 20
113.0
 30
0.0
 11
103.0
 21
113.0
 31
0.0
  0
LINE
  5
35D
330
17
100
AcDbEntity
  8
single line
370
20
100
AcDbLine
 10
103.0
 20
113.0
 30
0.0
 11
102.0
 21
112.0
 31
0.0
  0
LINE
  5
35E
330
17
100
AcDbEntity
  8
single line
370
20
100
AcDbLine
 10
102.0
 20
112.0
 30
0.0
 11
101.0
 21
112.0
 31
0.0
  0
LINE
  5
35F
330
17
100
AcDbEntity
  8
single line
370
20
100
AcDbLine
 10
101.0
 20
112.0
 30
0.0
 11
100.0
 21
111.0
 31
0.0
  0
LINE
  5
360
330
17
100
AcDbEntity
  8
single line
370
20
100
AcDbLine
 10
100.0
 20
111.0
 30
0.0
 11
99.0
 21
111.0
 31
0.0
  0
LINE
  5
361
330
17
100
AcDbEntity
  8
single line
370
20
100
AcDbLine
 10
99.0
 20
111.0
 30
0.0
 11
94.0
 21
106.0
 31
0.0
  0
LINE
  5
362
330
17
100
AcDbEntity
  8
single line
370
20
100
AcDbLine
 10
94.0
 20
106.0
 30
0.0
 11
94.0
 21
105.0
 31
0.0
  0
LINE
  5
363
330
17
100
AcDbEntity
  8
single line
370
20
100
AcDbLine
 10
94.0
 20
105.0
 30
0.0
 11
85.0
 21
96.0
 31
0.0
  0
LINE
  5
364
330
17
100
AcDbEntity
  8
single line
370
20
100
AcDbLine
 10
85.0
 20
96.0
 30
0.0
 11
85.0
 21
95.0
 31
0.0
  0
LINE
  5
365
330
17
100
AcDbEntity
  8
single line
370
20
100
AcDbLine
 10
85.0
 20
95.0
 30
0.0
 11
76.0
 21
86.0
 31
0.0
  0
LINE
  5
366
330
17
100
AcDbEntity
  8
single line
370
20
100
AcDbLine
 10
76.0
 20
86.0
 30
0.0
 11
76.0
 21
85.0
 31
0.0
  0
ENDSEC
  0
SECTION
  2
OBJECTS
  0
DICTIONARY
  5
A
330
0
100
AcDbDictionary
280
0
281
1
  3
ACAD_COLOR
350
B
  3
ACAD_GROUP
350
C
  3
ACAD_LAYOUT
350
D
  3
ACAD_MATERIAL
350
E
  3
ACAD_MLEADERSTYLE
350
F
  3
ACAD_MLINESTYLE
350
10
  3
ACAD_PLOTSETTINGS
350
11
  3
ACAD_PLOTSTYLENAME
350
12
  3
ACAD_SCALELIST
350
14
  3
ACAD_TABLESTYLE
350
15
  3
ACAD_VISUALSTYLE
350
16
  3
EZDXF_META
350
2D
  0
DICTIONARY
  5
B
330
A
100
AcDbDictionary
280
0
281
1
  0
DICTIONARY
  5
C
330
A
100
AcDbDictionary
280
0
281
1
  0
DICTIONARY
  5
D
330
A
100
AcDbDictionary
280
0
281
1
  3
Model
350
1A
  3
Layout1
350
1E
  0
DICTIONARY
  5
E
330
A
100
AcDbDictionary
280
0
281
1
  3
ByBlock
350
1F
  3
ByLayer
350
20
  3
Global
350
21
  0
DICTIONARY
  5
F
330
A
100
AcDbDictionary
280
0
281
1
  3
Standard
350
2C
  0
DICTIONARY
  5
10
330
A
100
AcDbDictionary
280
0
281
1
  3
Standard
350
22
  0
DICTIONARY
  5
11
330
A
100
AcDbDictionary
280
0
281
1
  0
ACDBDICTIONARYWDFLT
  5
12
330
A
100
AcDbDictionary
280
0
281
1
  3
Normal
350
13
100
AcDbDictionaryWithDefault
340
13
  0
ACDBPLACEHOLDER
  5
13
330
12
  0
DICTIONARY
  5
14
330
A
100
AcDbDictionary
280
0
281
1
  0
DICTIONARY
  5
15
330
A
100
AcDbDictionary
280
0
281
1
  0
DICTIONARY
  5
16
330
A
100
AcDbDictionary
280
0
281
1
  0
LAYOUT
  5
1A
330
D
100
AcDbPlotSettings
  1

  2
Adobe PDF
  4
A3
  6

 40
7.5
 41
20.0
 42
7.5
 43
20.0
 44
420.0
 45
297.0
 46
0.0
 47
0.0
 48
0.0
 49
0.0
140
0.0
141
0.0
142
1.0
143
1.0
 70
1024
 72
1
 73
0
 74
5
  7

 75
16
 76
0
 77
2
 78
300
147
1.0
148
0.0
149
0.0
100
AcDbLayout
  1
Model
 70
1
 71
0
 10
0.0
 20
0.0
 11
420.0
 21
297.0
 12
0.0
 22
0.0
 32
0.0
 14
1e+20
 24
1e+20
 34
1e+20
 15
-1e+20
 25
-1e+20
 35
-1e+20
146
0.0
 13
0.0
 23
0.0
 33
0.0
 16
1.0
 26
0.0
 36
0.0
 17
0.0
 27
1.0
 37
0.0
 76
1
330
17
  0
LAYOUT
  5
1E
330
D
100
AcDbPlotSettings
  1

  2
Adobe PDF
  4
A3
  6

 40
7.5
 41
20.0
 42
7.5
 43
20.0
 44
420.0
 45
297.0
 46
0.0
 47
0.0
 48
0.0
 49
0.0
140
0.0
141
0.0
142
1.0
143
1.0
 70
0
 72
1
 73
0
 74
5
  7

 75
16
 76
0
 77
2
 78
300
147
1.0
148
0.0
149
0.0
100
AcDbLayout
  1
Layout1
 70
1
 71
1
 10
0.0
 20
0.0
 11
420.0
 21
297.0
 12
0.0
 22
0.0
 32
0.0
 14
1e+20
 24
1e+20
 34
1e+20
 15
-1e+20
 25
-1e+20
 35
-1e+20
146
0.0
 13
0.0
 23
0.0
 33
0.0
 16
1.0
 26
0.0
 36
0.0
 17
0.0
 27
1.0
 37
0.0
 76
1
330
1B
  0
MATERIAL
  5
1F
102
{ACAD_REACTORS
330
E
102
}
330
E
100
AcDbMaterial
  1
ByBlock
  2

 70
0
 40
1.0
 71
1
 41
1.0
 91
-1023410177
 42
1.0
 72
1
  3

 73
1
 74
1
 75
1
 44
0.5
 73
0
 45
1.0
 46
1.0
 77
1
  4

 78
1
 79
1
170
1
 48
1.0
171
1
  6

172
1
173
1
174
1
140
1.0
141
1.0
175
1
  7

176
1
177
1
178
1
143
1.0
179
1
  8

270
1
271
1
272
1
145
1.0
146
1.0
273
1
  9

274
1
275
1
276
1
 42
1.0
 72
1
  3

 73
1
 74
1
 75
1
 94
63
  0
MATERIAL
  5
20
102
{ACAD_REACTORS
330
E
102
}
330
E
100
AcDbMaterial
  1
ByLayer
  2

 70
0
 40
1.0
 71
1
 41
1.0
 91
-1023410177
 42
1.0
 72
1
  3

 73
1
 74
1
 75
1
 44
0.5
 73
0
 45
1.0
 46
1.0
 77
1
  4

 78
1
 79
1
170
1
 48
1.0
171
1
  6

172
1
173
1
174
1
140
1.0
141
1.0
175
1
  7

176
1
177
1
178
1
143
1.0
179
1
  8

270
1
271
1
272
1
145
1.0
146
1.0
273
1
  9

274
1
275
1
276
1
 42
1.0
 72
1
  3

 73
1
 74
1
 75
1
 94
63
  0
MATERIAL
  5
21
102
{ACAD_REACTORS
330
E
102
}
330
E
100
AcDbMaterial
  1
Global
  2

 70
0
 40
1.0
 71
1
 41
1.0
 91
-1023410177
 42
1.0
 72
1
  3

 73
1
 74
1
 75
1
 44
0.5
 73
0
 45
1.0
 46
1.0
 77
1
  4

 78
1
 79
1
170
1
 48
1.0
171
1
  6

172
1
173
1
174
1
140
1.0
141
1.0
175
1
  7

176
1
177
1
178
1
143
1.0
179
1
  8

270
1
271
1
272
1
145
1.0
146
1.0
273
1
  9

274
1
275
1
276
1
 42
1.0
 72
1
  3

 73
1
 74
1
 75
1
 94
63
  0
MLINESTYLE
  5
22
102
{ACAD_REACTORS
330
10
102
}
330
10
100
AcDbMlineStyle
  2
Standard
 70
0
  3

 62
256
 51
90.0
 52
90.0
 71
2
 49
0.5
 62
256
  6
BYLAYER
 49
-0.5
 62
256
  6
BYLAYER
  0
MLEADERSTYLE
  5
2C
102
{ACAD_REACTORS
330
F
102
}
330
F
100
AcDbMLeaderStyle
179
2
170
2
171
1
172
0
 90
2
 40
0.0
 41
0.0
173
1
 91
-1056964608
 92
-2
290
1
 42
2.0
291
1
 43
8.0
  3
Standard
 44
4.0
300

342
29
174
1
175
1
176
0
178
1
 93
-1056964608
 45
4.0
292
0
297
0
 46
4.0
 94
-1056964608
 47
1.0
 49
1.0
140
1.0
294
1
141
0.0
177
0
142
1.0
295
0
296
0
143
3.75
271
0
272
9
273
9
  0
DICTIONARY
  5
2D
330
A
100
AcDbDictionary
281
1
  3
CREATED_BY_EZDXF
350
2E
  3
WRITTEN_BY_EZDXF
350
369
  0
DICTIONARYVAR
  5
2E
330
2D
100
DictionaryVariables
280
0
  1
1.0.3 @ 2023-04-25T09:14:37.354210+00:00
  0
DICTIONARYVAR
  5
369
330
2D
100
DictionaryVariables
280
0
  1
1.0.3 @ 2023-04-25T09:14:37.387150+00:00
  0
ENDSEC
  0
EOF
