  0
SECTION
  2
HEADER
  9
$ACADVER
  1
AC1024
  9
$ACADMAINTVER
 70
6
  9
$DWGCODEPAGE
  3
ANSI_1252
  9
$LASTSAVEDBY
  1
ezdxf
  9
$INSBASE
 10
0.0
 20
0.0
 30
0.0
  9
$EXTMIN
 10
1e+20
 20
1e+20
 30
1e+20
  9
$EXTMAX
 10
-1e+20
 20
-1e+20
 30
-1e+20
  9
$LIMMIN
 10
0.0
 20
0.0
  9
$LIMMAX
 10
420.0
 20
297.0
  9
$ORTHOMODE
 70
0
  9
$REGENMODE
 70
1
  9
$FILLMODE
 70
1
  9
$QTEXTMODE
 70
0
  9
$MIRRTEXT
 70
1
  9
$LTSCALE
 40
1.0
  9
$ATTMODE
 70
1
  9
$TEXTSIZE
 40
2.5
  9
$TRACEWID
 40
1.0
  9
$TEXTSTYLE
  7
Standard
  9
$CLAYER
  8
0
  9
$CELTYPE
  6
ByLayer
  9
$CECOLOR
 62
256
  9
$CELTSCALE
 40
1.0
  9
$DISPSILH
 70
0
  9
$DIMSCALE
 40
1.0
  9
$DIMASZ
 40
2.5
  9
$DIMEXO
 40
0.625
  9
$DIMDLI
 40
3.75
  9
$DIMRND
 40
0.0
  9
$DIMDLE
 40
0.0
  9
$DIMEXE
 40
1.25
  9
$DIMTP
 40
0.0
  9
$DIMTM
 40
0.0
  9
$DIMTXT
 40
2.5
  9
$DIMCEN
 40
2.5
  9
$DIMTSZ
 40
0.0
  9
$DIMTOL
 70
0
  9
$DIMLIM
 70
0
  9
$DIMTIH
 70
0
  9
$DIMTOH
 70
0
  9
$DIMSE1
 70
0
  9
$DIMSE2
 70
0
  9
$DIMTAD
 70
1
  9
$DIMZIN
 70
8
  9
$DIMBLK
  1

  9
$DIMASO
 70
1
  9
$DIMSHO
 70
1
  9
$DIMPOST
  1

  9
$DIMAPOST
  1

  9
$DIMALT
 70
0
  9
$DIMALTD
 70
3
  9
$DIMALTF
 40
0.03937007874
  9
$DIMLFAC
 40
1.0
  9
$DIMTOFL
 70
1
  9
$DIMTVP
 40
0.0
  9
$DIMTIX
 70
0
  9
$DIMSOXD
 70
0
  9
$DIMSAH
 70
0
  9
$DIMBLK1
  1

  9
$DIMBLK2
  1

  9
$DIMSTYLE
  2
ISO-25
  9
$DIMCLRD
 70
0
  9
$DIMCLRE
 70
0
  9
$DIMCLRT
 70
0
  9
$DIMTFAC
 40
1.0
  9
$DIMGAP
 40
0.625
  9
$DIMJUST
 70
0
  9
$DIMSD1
 70
0
  9
$DIMSD2
 70
0
  9
$DIMTOLJ
 70
0
  9
$DIMTZIN
 70
8
  9
$DIMALTZ
 70
0
  9
$DIMALTTZ
 70
0
  9
$DIMUPT
 70
0
  9
$DIMDEC
 70
2
  9
$DIMTDEC
 70
2
  9
$DIMALTU
 70
2
  9
$DIMALTTD
 70
3
  9
$DIMTXSTY
  7
Standard
  9
$DIMAUNIT
 70
0
  9
$DIMADEC
 70
0
  9
$DIMALTRND
 40
0.0
  9
$DIMAZIN
 70
0
  9
$DIMDSEP
 70
44
  9
$DIMATFIT
 70
3
  9
$DIMFRAC
 70
0
  9
$DIMLDRBLK
  1

  9
$DIMLUNIT
 70
2
  9
$DIMLWD
 70
-2
  9
$DIMLWE
 70
-2
  9
$DIMTMOVE
 70
0
  9
$DIMFXL
 40
1.0
  9
$DIMFXLON
 70
0
  9
$DIMJOGANG
 40
0.785398163397
  9
$DIMTFILL
 70
0
  9
$DIMTFILLCLR
 70
0
  9
$DIMARCSYM
 70
0
  9
$DIMLTYPE
  6

  9
$DIMLTEX1
  6

  9
$DIMLTEX2
  6

  9
$DIMTXTDIRECTION
 70
0
  9
$LUNITS
 70
2
  9
$LUPREC
 70
4
  9
$SKETCHINC
 40
1.0
  9
$FILLETRAD
 40
10.0
  9
$AUNITS
 70
0
  9
$AUPREC
 70
2
  9
$MENU
  1
.
  9
$ELEVATION
 40
0.0
  9
$PELEVATION
 40
0.0
  9
$THICKNESS
 40
0.0
  9
$LIMCHECK
 70
0
  9
$CHAMFERA
 40
0.0
  9
$CHAMFERB
 40
0.0
  9
$CHAMFERC
 40
0.0
  9
$CHAMFERD
 40
0.0
  9
$SKPOLY
 70
0
  9
$TDCREATE
 40
2460059.6077314815
  9
$TDUCREATE
 40
2458532.153996898
  9
$TDUPDATE
 40
2460059.6077314815
  9
$TDUUPDATE
 40
2458532.1544311
  9
$TDINDWG
 40
0.0
  9
$TDUSRTIMER
 40
0.0
  9
$USRTIMER
 70
1
  9
$ANGBASE
 50
0.0
  9
$ANGDIR
 70
0
  9
$PDMODE
 70
0
  9
$PDSIZE
 40
0.0
  9
$PLINEWID
 40
0.0
  9
$SPLFRAME
 70
0
  9
$SPLINETYPE
 70
6
  9
$SPLINESEGS
 70
8
  9
$HANDSEED
  5
1C4
  9
$SURFTAB1
 70
6
  9
$SURFTAB2
 70
6
  9
$SURFTYPE
 70
6
  9
$SURFU
 70
6
  9
$SURFV
 70
6
  9
$UCSBASE
  2

  9
$UCSNAME
  2

  9
$UCSORG
 10
0.0
 20
0.0
 30
0.0
  9
$UCSXDIR
 10
1.0
 20
0.0
 30
0.0
  9
$UCSYDIR
 10
0.0
 20
1.0
 30
0.0
  9
$UCSORTHOREF
  2

  9
$UCSORTHOVIEW
 70
0
  9
$UCSORGTOP
 10
0.0
 20
0.0
 30
0.0
  9
$UCSORGBOTTOM
 10
0.0
 20
0.0
 30
0.0
  9
$UCSORGLEFT
 10
0.0
 20
0.0
 30
0.0
  9
$UCSORGRIGHT
 10
0.0
 20
0.0
 30
0.0
  9
$UCSORGFRONT
 10
0.0
 20
0.0
 30
0.0
  9
$UCSORGBACK
 10
0.0
 20
0.0
 30
0.0
  9
$PUCSBASE
  2

  9
$PUCSNAME
  2

  9
$PUCSORG
 10
0.0
 20
0.0
 30
0.0
  9
$PUCSXDIR
 10
1.0
 20
0.0
 30
0.0
  9
$PUCSYDIR
 10
0.0
 20
1.0
 30
0.0
  9
$PUCSORTHOREF
  2

  9
$PUCSORTHOVIEW
 70
0
  9
$PUCSORGTOP
 10
0.0
 20
0.0
 30
0.0
  9
$PUCSORGBOTTOM
 10
0.0
 20
0.0
 30
0.0
  9
$PUCSORGLEFT
 10
0.0
 20
0.0
 30
0.0
  9
$PUCSORGRIGHT
 10
0.0
 20
0.0
 30
0.0
  9
$PUCSORGFRONT
 10
0.0
 20
0.0
 30
0.0
  9
$PUCSORGBACK
 10
0.0
 20
0.0
 30
0.0
  9
$USERI1
 70
0
  9
$USERI2
 70
0
  9
$USERI3
 70
0
  9
$USERI4
 70
0
  9
$USERI5
 70
0
  9
$USERR1
 40
0.0
  9
$USERR2
 40
0.0
  9
$USERR3
 40
0.0
  9
$USERR4
 40
0.0
  9
$USERR5
 40
0.0
  9
$WORLDVIEW
 70
1
  9
$SHADEDGE
 70
3
  9
$SHADEDIF
 70
70
  9
$TILEMODE
 70
1
  9
$MAXACTVP
 70
64
  9
$PINSBASE
 10
0.0
 20
0.0
 30
0.0
  9
$PLIMCHECK
 70
0
  9
$PEXTMIN
 10
1e+20
 20
1e+20
 30
1e+20
  9
$PEXTMAX
 10
-1e+20
 20
-1e+20
 30
-1e+20
  9
$PLIMMIN
 10
0.0
 20
0.0
  9
$PLIMMAX
 10
420.0
 20
297.0
  9
$UNITMODE
 70
0
  9
$VISRETAIN
 70
1
  9
$PLINEGEN
 70
0
  9
$PSLTSCALE
 70
1
  9
$TREEDEPTH
 70
3020
  9
$CMLSTYLE
  2
Standard
  9
$CMLJUST
 70
0
  9
$CMLSCALE
 40
20.0
  9
$PROXYGRAPHICS
 70
1
  9
$MEASUREMENT
 70
1
  9
$CELWEIGHT
370
-1
  9
$ENDCAPS
280
0
  9
$JOINSTYLE
280
0
  9
$LWDISPLAY
290
0
  9
$INSUNITS
 70
6
  9
$HYPERLINKBASE
  1

  9
$STYLESHEET
  1

  9
$XEDIT
290
1
  9
$CEPSNTYPE
380
0
  9
$PSTYLEMODE
290
1
  9
$FINGERPRINTGUID
  2
{71DC5983-877E-4C01-A492-64949F75789C}
  9
$VERSIONGUID
  2
{2E0E3001-D38A-47B0-A8B1-B09066E77503}
  9
$EXTNAMES
290
1
  9
$PSVPSCALE
 40
0.0
  9
$OLESTARTUP
290
0
  9
$SORTENTS
280
127
  9
$INDEXCTL
280
0
  9
$HIDETEXT
280
1
  9
$XCLIPFRAME
280
0
  9
$HALOGAP
280
0
  9
$OBSCOLOR
 70
257
  9
$OBSLTYPE
280
0
  9
$INTERSECTIONDISPLAY
280
0
  9
$INTERSECTIONCOLOR
 70
257
  9
$DIMASSOC
280
2
  9
$PROJECTNAME
  1

  9
$CAMERADISPLAY
290
0
  9
$LENSLENGTH
 40
50.0
  9
$CAMERAHEIGHT
 40
0.0
  9
$STEPSPERSEC
 40
24.0
  9
$STEPSIZE
 40
100.0
  9
$3DDWFPREC
 40
2.0
  9
$PSOLWIDTH
 40
0.005
  9
$PSOLHEIGHT
 40
0.08
  9
$LOFTANG1
 40
1.570796326795
  9
$LOFTANG2
 40
1.570796326795
  9
$LOFTMAG1
 40
0.0
  9
$LOFTMAG2
 40
0.0
  9
$LOFTPARAM
 70
7
  9
$LOFTNORMALS
280
1
  9
$LATITUDE
 40
37.795
  9
$LONGITUDE
 40
-122.394
  9
$NORTHDIRECTION
 40
0.0
  9
$TIMEZONE
 70
-8000
  9
$LIGHTGLYPHDISPLAY
280
1
  9
$TILEMODELIGHTSYNCH
280
1
  9
$CMATERIAL
347
20
  9
$SOLIDHIST
280
0
  9
$SHOWHIST
280
1
  9
$DWFFRAME
280
2
  9
$DGNFRAME
280
2
  9
$REALWORLDSCALE
290
1
  9
$INTERFERECOLOR
 62
256
  9
$CSHADOW
280
0
  9
$SHADOWPLANELOCATION
 40
0.0
  0
ENDSEC
  0
SECTION
  2
CLASSES
  0
CLASS
  1
ACDBDICTIONARYWDFLT
  2
AcDbDictionaryWithDefault
  3
ObjectDBX Classes
 90
0
 91
0
280
0
281
0
  0
CLASS
  1
SUN
  2
AcDbSun
  3
SCENEOE
 90
1153
 91
0
280
0
281
0
  0
CLASS
  1
VISUALSTYLE
  2
AcDbVisualStyle
  3
ObjectDBX Classes
 90
4095
 91
0
280
0
281
0
  0
CLASS
  1
MATERIAL
  2
AcDbMaterial
  3
ObjectDBX Classes
 90
1153
 91
0
280
0
281
0
  0
CLASS
  1
SCALE
  2
AcDbScale
  3
ObjectDBX Classes
 90
1153
 91
0
280
0
281
0
  0
CLASS
  1
TABLESTYLE
  2
AcDbTableStyle
  3
ObjectDBX Classes
 90
4095
 91
0
280
0
281
0
  0
CLASS
  1
MLEADERSTYLE
  2
AcDbMLeaderStyle
  3
ACDB_MLEADERSTYLE_CLASS
 90
4095
 91
0
280
0
281
0
  0
CLASS
  1
DICTIONARYVAR
  2
AcDbDictionaryVar
  3
ObjectDBX Classes
 90
0
 91
0
280
0
281
0
  0
CLASS
  1
CELLSTYLEMAP
  2
AcDbCellStyleMap
  3
ObjectDBX Classes
 90
1152
 91
0
280
0
281
0
  0
CLASS
  1
MENTALRAYRENDERSETTINGS
  2
AcDbMentalRayRenderSettings
  3
SCENEOE
 90
1024
 91
0
280
0
281
0
  0
CLASS
  1
ACDBDETAILVIEWSTYLE
  2
AcDbDetailViewStyle
  3
ObjectDBX Classes
 90
1025
 91
0
280
0
281
0
  0
CLASS
  1
ACDBSECTIONVIEWSTYLE
  2
AcDbSectionViewStyle
  3
ObjectDBX Classes
 90
1025
 91
0
280
0
281
0
  0
CLASS
  1
RASTERVARIABLES
  2
AcDbRasterVariables
  3
ISM
 90
0
 91
0
280
0
281
0
  0
CLASS
  1
ACDBPLACEHOLDER
  2
AcDbPlaceHolder
  3
ObjectDBX Classes
 90
0
 91
0
280
0
281
0
  0
CLASS
  1
LAYOUT
  2
AcDbLayout
  3
ObjectDBX Classes
 90
0
 91
0
280
0
281
0
  0
ENDSEC
  0
SECTION
  2
TABLES
  0
TABLE
  2
VPORT
  5
8
330
0
100
AcDbSymbolTable
 70
1
  0
VPORT
  5
23
330
8
100
AcDbSymbolTableRecord
100
AcDbViewportTableRecord
  2
*Active
 70
0
 10
0.0
 20
0.0
 11
1.0
 21
1.0
 12
0.0
 22
0.0
 13
0.0
 23
0.0
 14
0.5
 24
0.5
 15
0.5
 25
0.5
 16
0.0
 26
0.0
 36
1.0
 17
0.0
 27
0.0
 37
0.0
 40
1000.0
 41
1.34
 42
50.0
 43
0.0
 44
0.0
 50
0.0
 51
0.0
 71
0
 72
1000
 73
1
 74
3
 75
0
 76
0
 77
0
 78
0
281
0
 65
0
146
0.0
  0
ENDTAB
  0
TABLE
  2
LTYPE
  5
2
330
0
100
AcDbSymbolTable
 70
3
  0
LTYPE
  5
24
330
2
100
AcDbSymbolTableRecord
100
AcDbLinetypeTableRecord
  2
ByBlock
 70
0
  3

 72
65
 73
0
 40
0.0
  0
LTYPE
  5
25
330
2
100
AcDbSymbolTableRecord
100
AcDbLinetypeTableRecord
  2
ByLayer
 70
0
  3

 72
65
 73
0
 40
0.0
  0
LTYPE
  5
26
330
2
100
AcDbSymbolTableRecord
100
AcDbLinetypeTableRecord
  2
Continuous
 70
0
  3

 72
65
 73
0
 40
0.0
  0
ENDTAB
  0
TABLE
  2
LAYER
  5
1
330
0
100
AcDbSymbolTable
 70
3
  0
LAYER
  5
27
330
1
100
AcDbSymbolTableRecord
100
AcDbLayerTableRecord
  2
0
 70
0
 62
7
  6
Continuous
370
-3
390
13
347
21
  0
LAYER
  5
28
330
1
100
AcDbSymbolTableRecord
100
AcDbLayerTableRecord
  2
Defpoints
 70
0
 62
7
  6
Continuous
290
0
370
-3
390
13
347
21
  0
LAYER
  5
2F
330
1
100
AcDbSymbolTableRecord
100
AcDbLayerTableRecord
  2
greeny green lines
 70
0
 62
3
  6
Continuous
370
-3
390
13
347
21
  0
ENDTAB
  0
TABLE
  2
STYLE
  5
5
330
0
100
AcDbSymbolTable
 70
1
  0
STYLE
  5
29
330
5
100
AcDbSymbolTableRecord
100
AcDbTextStyleTableRecord
  2
Standard
 70
0
 40
0.0
 41
1.0
 50
0.0
 71
0
 42
2.5
  3
txt
  4

  0
ENDTAB
  0
TABLE
  2
VIEW
  5
7
330
0
100
AcDbSymbolTable
 70
0
  0
ENDTAB
  0
TABLE
  2
UCS
  5
6
330
0
100
AcDbSymbolTable
 70
0
  0
ENDTAB
  0
TABLE
  2
APPID
  5
3
330
0
100
AcDbSymbolTable
 70
3
  0
APPID
  5
2A
330
3
100
AcDbSymbolTableRecord
100
AcDbRegAppTableRecord
  2
ACAD
 70
0
  0
APPID
  5
1C1
330
3
100
AcDbSymbolTableRecord
100
AcDbRegAppTableRecord
  2
HATCHBACKGROUNDCOLOR
 70
0
  0
APPID
  5
1C2
330
3
100
AcDbSymbolTableRecord
100
AcDbRegAppTableRecord
  2
EZDXF
 70
0
  0
ENDTAB
  0
TABLE
  2
DIMSTYLE
  5
4
330
0
100
AcDbSymbolTable
 70
1
100
AcDbDimStyleTable
  0
DIMSTYLE
105
2B
330
4
100
AcDbSymbolTableRecord
100
AcDbDimStyleTableRecord
  2
Standard
 70
0
 40
1.0
 41
2.5
 42
0.625
 43
3.75
 44
1.25
 45
0.0
 46
0.0
 47
0.0
 48
0.0
 49
2.5
140
2.5
141
2.5
142
0.0
143
0.03937007874
144
1.0
145
0.0
146
1.0
147
0.625
148
0.0
 69
0
 70
0
 71
0
 72
0
 73
0
 74
0
 75
0
 76
0
 77
1
 78
8
 79
3
170
0
171
3
172
1
173
0
174
0
175
0
176
0
177
0
178
0
179
2
271
2
272
2
273
2
274
3
275
0
276
0
277
2
278
44
279
0
280
0
281
0
282
0
283
0
284
8
285
0
286
0
288
0
289
3
290
0
371
-2
372
-2
  0
ENDTAB
  0
TABLE
  2
BLOCK_RECORD
  5
9
330
0
100
AcDbSymbolTable
 70
2
  0
BLOCK_RECORD
  5
17
330
9
100
AcDbSymbolTableRecord
100
AcDbBlockTableRecord
  2
*Model_Space
340
1A
 70
0
280
1
281
0
  0
BLOCK_RECORD
  5
1B
330
9
100
AcDbSymbolTableRecord
100
AcDbBlockTableRecord
  2
*Paper_Space
340
1E
 70
0
280
1
281
0
  0
ENDTAB
  0
ENDSEC
  0
SECTION
  2
BLOCKS
  0
BLOCK
  5
18
330
17
100
AcDbEntity
  8
0
100
AcDbBlockBegin
  2
*Model_Space
 70
0
 10
0.0
 20
0.0
 30
0.0
  3
*Model_Space
  1

  0
ENDBLK
  5
19
330
17
100
AcDbEntity
  8
0
100
AcDbBlockEnd
  0
BLOCK
  5
1C
330
1B
100
AcDbEntity
  8
0
100
AcDbBlockBegin
  2
*Paper_Space
 70
0
 10
0.0
 20
0.0
 30
0.0
  3
*Paper_Space
  1

  0
ENDBLK
  5
1D
330
1B
100
AcDbEntity
  8
0
100
AcDbBlockEnd
  0
ENDSEC
  0
SECTION
  2
ENTITIES
  0
LINE
  5
30
330
17
100
AcDbEntity
  8
single line
370
20
100
AcDbLine
 10
82.0
 20
47.0
 30
0.0
 11
83.0
 21
46.0
 31
0.0
  0
LINE
  5
31
330
17
100
AcDbEntity
  8
single line
370
20
100
AcDbLine
 10
83.0
 20
46.0
 30
0.0
 11
89.0
 21
46.0
 31
0.0
  0
LINE
  5
32
330
17
100
AcDbEntity
  8
single line
370
20
100
AcDbLine
 10
89.0
 20
46.0
 30
0.0
 11
90.0
 21
47.0
 31
0.0
  0
LINE
  5
33
330
17
100
AcDbEntity
  8
single line
370
20
100
AcDbLine
 10
90.0
 20
47.0
 30
0.0
 11
99.0
 21
47.0
 31
0.0
  0
LINE
  5
34
330
17
100
AcDbEntity
  8
single line
370
20
100
AcDbLine
 10
99.0
 20
47.0
 30
0.0
 11
100.0
 21
48.0
 31
0.0
  0
LINE
  5
35
330
17
100
AcDbEntity
  8
single line
370
20
100
AcDbLine
 10
100.0
 20
48.0
 30
0.0
 11
103.0
 21
48.0
 31
0.0
  0
LINE
  5
36
330
17
100
AcDbEntity
  8
single line
370
20
100
AcDbLine
 10
103.0
 20
48.0
 30
0.0
 11
104.0
 21
49.0
 31
0.0
  0
LINE
  5
37
330
17
100
AcDbEntity
  8
single line
370
20
100
AcDbLine
 10
104.0
 20
49.0
 30
0.0
 11
105.0
 21
49.0
 31
0.0
  0
LINE
  5
38
330
17
100
AcDbEntity
  8
single line
370
20
100
AcDbLine
 10
105.0
 20
49.0
 30
0.0
 11
106.0
 21
50.0
 31
0.0
  0
LINE
  5
39
330
17
100
AcDbEntity
  8
single line
370
20
100
AcDbLine
 10
106.0
 20
50.0
 30
0.0
 11
108.0
 21
50.0
 31
0.0
  0
LINE
  5
3A
330
17
100
AcDbEntity
  8
single line
370
20
100
AcDbLine
 10
108.0
 20
50.0
 30
0.0
 11
109.0
 21
51.0
 31
0.0
  0
LINE
  5
3B
330
17
100
AcDbEntity
  8
single line
370
20
100
AcDbLine
 10
109.0
 20
51.0
 30
0.0
 11
110.0
 21
51.0
 31
0.0
  0
LINE
  5
3C
330
17
100
AcDbEntity
  8
single line
370
20
100
AcDbLine
 10
110.0
 20
51.0
 30
0.0
 11
111.0
 21
52.0
 31
0.0
  0
LINE
  5
3D
330
17
100
AcDbEntity
  8
single line
370
20
100
AcDbLine
 10
111.0
 20
52.0
 30
0.0
 11
112.0
 21
52.0
 31
0.0
  0
LINE
  5
3E
330
17
100
AcDbEntity
  8
single line
370
20
100
AcDbLine
 10
112.0
 20
52.0
 30
0.0
 11
113.0
 21
53.0
 31
0.0
  0
LINE
  5
3F
330
17
100
AcDbEntity
  8
single line
370
20
100
AcDbLine
 10
113.0
 20
53.0
 30
0.0
 11
114.0
 21
53.0
 31
0.0
  0
LINE
  5
40
330
17
100
AcDbEntity
  8
single line
370
20
100
AcDbLine
 10
114.0
 20
53.0
 30
0.0
 11
115.0
 21
54.0
 31
0.0
  0
LINE
  5
41
330
17
100
AcDbEntity
  8
single line
370
20
100
AcDbLine
 10
115.0
 20
54.0
 30
0.0
 11
116.0
 21
54.0
 31
0.0
  0
LINE
  5
42
330
17
100
AcDbEntity
  8
single line
370
20
100
AcDbLine
 10
116.0
 20
54.0
 30
0.0
 11
117.0
 21
55.0
 31
0.0
  0
LINE
  5
43
330
17
100
AcDbEntity
  8
single line
370
20
100
AcDbLine
 10
117.0
 20
55.0
 30
0.0
 11
118.0
 21
55.0
 31
0.0
  0
LINE
  5
44
330
17
100
AcDbEntity
  8
single line
370
20
100
AcDbLine
 10
118.0
 20
55.0
 30
0.0
 11
119.0
 21
56.0
 31
0.0
  0
LINE
  5
45
330
17
100
AcDbEntity
  8
single line
370
20
100
AcDbLine
 10
119.0
 20
56.0
 30
0.0
 11
120.0
 21
56.0
 31
0.0
  0
LINE
  5
46
330
17
100
AcDbEntity
  8
single line
370
20
100
AcDbLine
 10
120.0
 20
56.0
 30
0.0
 11
122.0
 21
58.0
 31
0.0
  0
LINE
  5
47
330
17
100
AcDbEntity
  8
single line
370
20
100
AcDbLine
 10
122.0
 20
58.0
 30
0.0
 11
123.0
 21
58.0
 31
0.0
  0
LINE
  5
48
330
17
100
AcDbEntity
  8
single line
370
20
100
AcDbLine
 10
123.0
 20
58.0
 30
0.0
 11
128.0
 21
63.0
 31
0.0
  0
LINE
  5
49
330
17
100
AcDbEntity
  8
single line
370
20
100
AcDbLine
 10
128.0
 20
63.0
 30
0.0
 11
129.0
 21
63.0
 31
0.0
  0
LINE
  5
4A
330
17
100
AcDbEntity
  8
single line
370
20
100
AcDbLine
 10
129.0
 20
63.0
 30
0.0
 11
136.0
 21
70.0
 31
0.0
  0
LINE
  5
4B
330
17
100
AcDbEntity
  8
single line
370
20
100
AcDbLine
 10
136.0
 20
70.0
 30
0.0
 11
137.0
 21
70.0
 31
0.0
  0
LINE
  5
4C
330
17
100
AcDbEntity
  8
single line
370
20
100
AcDbLine
 10
137.0
 20
70.0
 30
0.0
 11
139.0
 21
72.0
 31
0.0
  0
LINE
  5
4D
330
17
100
AcDbEntity
  8
single line
370
20
100
AcDbLine
 10
139.0
 20
72.0
 30
0.0
 11
140.0
 21
72.0
 31
0.0
  0
LINE
  5
4E
330
17
100
AcDbEntity
  8
single line
370
20
100
AcDbLine
 10
140.0
 20
72.0
 30
0.0
 11
142.0
 21
74.0
 31
0.0
  0
LINE
  5
4F
330
17
100
AcDbEntity
  8
single line
370
20
100
AcDbLine
 10
142.0
 20
74.0
 30
0.0
 11
143.0
 21
74.0
 31
0.0
  0
LINE
  5
50
330
17
100
AcDbEntity
  8
single line
370
20
100
AcDbLine
 10
143.0
 20
74.0
 30
0.0
 11
144.0
 21
75.0
 31
0.0
  0
LINE
  5
51
330
17
100
AcDbEntity
  8
single line
370
20
100
AcDbLine
 10
144.0
 20
75.0
 30
0.0
 11
145.0
 21
75.0
 31
0.0
  0
LINE
  5
52
330
17
100
AcDbEntity
  8
single line
370
20
100
AcDbLine
 10
145.0
 20
75.0
 30
0.0
 11
148.0
 21
78.0
 31
0.0
  0
LINE
  5
53
330
17
100
AcDbEntity
  8
single line
370
20
100
AcDbLine
 10
148.0
 20
78.0
 30
0.0
 11
149.0
 21
78.0
 31
0.0
  0
LINE
  5
54
330
17
100
AcDbEntity
  8
single line
370
20
100
AcDbLine
 10
149.0
 20
78.0
 30
0.0
 11
150.0
 21
79.0
 31
0.0
  0
LINE
  5
55
330
17
100
AcDbEntity
  8
single line
370
20
100
AcDbLine
 10
150.0
 20
79.0
 30
0.0
 11
151.0
 21
79.0
 31
0.0
  0
LINE
  5
56
330
17
100
AcDbEntity
  8
single line
370
20
100
AcDbLine
 10
151.0
 20
79.0
 30
0.0
 11
152.0
 21
80.0
 31
0.0
  0
LINE
  5
57
330
17
100
AcDbEntity
  8
single line
370
20
100
AcDbLine
 10
152.0
 20
80.0
 30
0.0
 11
153.0
 21
80.0
 31
0.0
  0
LINE
  5
58
330
17
100
AcDbEntity
  8
single line
370
20
100
AcDbLine
 10
153.0
 20
80.0
 30
0.0
 11
154.0
 21
81.0
 31
0.0
  0
LINE
  5
59
330
17
100
AcDbEntity
  8
single line
370
20
100
AcDbLine
 10
154.0
 20
81.0
 30
0.0
 11
155.0
 21
81.0
 31
0.0
  0
LINE
  5
5A
330
17
100
AcDbEntity
  8
single line
370
20
100
AcDbLine
 10
155.0
 20
81.0
 30
0.0
 11
156.0
 21
82.0
 31
0.0
  0
LINE
  5
5B
330
17
100
AcDbEntity
  8
single line
370
20
100
AcDbLine
 10
156.0
 20
82.0
 30
0.0
 11
157.0
 21
82.0
 31
0.0
  0
LINE
  5
5C
330
17
100
AcDbEntity
  8
single line
370
20
100
AcDbLine
 10
157.0
 20
82.0
 30
0.0
 11
158.0
 21
83.0
 31
0.0
  0
LINE
  5
5D
330
17
100
AcDbEntity
  8
single line
370
20
100
AcDbLine
 10
158.0
 20
83.0
 30
0.0
 11
159.0
 21
83.0
 31
0.0
  0
LINE
  5
5E
330
17
100
AcDbEntity
  8
single line
370
20
100
AcDbLine
 10
159.0
 20
83.0
 30
0.0
 11
160.0
 21
84.0
 31
0.0
  0
LINE
  5
5F
330
17
100
AcDbEntity
  8
single line
370
20
100
AcDbLine
 10
160.0
 20
84.0
 30
0.0
 11
162.0
 21
84.0
 31
0.0
  0
LINE
  5
60
330
17
100
AcDbEntity
  8
single line
370
20
100
AcDbLine
 10
162.0
 20
84.0
 30
0.0
 11
163.0
 21
85.0
 31
0.0
  0
LINE
  5
61
330
17
100
AcDbEntity
  8
single line
370
20
100
AcDbLine
 10
163.0
 20
85.0
 30
0.0
 11
165.0
 21
85.0
 31
0.0
  0
LINE
  5
62
330
17
100
AcDbEntity
  8
single line
370
20
100
AcDbLine
 10
165.0
 20
85.0
 30
0.0
 11
166.0
 21
86.0
 31
0.0
  0
LINE
  5
63
330
17
100
AcDbEntity
  8
single line
370
20
100
AcDbLine
 10
166.0
 20
86.0
 30
0.0
 11
167.0
 21
86.0
 31
0.0
  0
LINE
  5
64
330
17
100
AcDbEntity
  8
single line
370
20
100
AcDbLine
 10
167.0
 20
86.0
 30
0.0
 11
168.0
 21
87.0
 31
0.0
  0
LINE
  5
65
330
17
100
AcDbEntity
  8
single line
370
20
100
AcDbLine
 10
168.0
 20
87.0
 30
0.0
 11
170.0
 21
87.0
 31
0.0
  0
LINE
  5
66
330
17
100
AcDbEntity
  8
single line
370
20
100
AcDbLine
 10
170.0
 20
87.0
 30
0.0
 11
171.0
 21
88.0
 31
0.0
  0
LINE
  5
67
330
17
100
AcDbEntity
  8
single line
370
20
100
AcDbLine
 10
171.0
 20
88.0
 30
0.0
 11
173.0
 21
88.0
 31
0.0
  0
LINE
  5
68
330
17
100
AcDbEntity
  8
single line
370
20
100
AcDbLine
 10
173.0
 20
88.0
 30
0.0
 11
174.0
 21
89.0
 31
0.0
  0
LINE
  5
69
330
17
100
AcDbEntity
  8
single line
370
20
100
AcDbLine
 10
174.0
 20
89.0
 30
0.0
 11
177.0
 21
89.0
 31
0.0
  0
LINE
  5
6A
330
17
100
AcDbEntity
  8
single line
370
20
100
AcDbLine
 10
177.0
 20
89.0
 30
0.0
 11
178.0
 21
90.0
 31
0.0
  0
LINE
  5
6B
330
17
100
AcDbEntity
  8
single line
370
20
100
AcDbLine
 10
178.0
 20
90.0
 30
0.0
 11
181.0
 21
90.0
 31
0.0
  0
LINE
  5
6C
330
17
100
AcDbEntity
  8
single line
370
20
100
AcDbLine
 10
181.0
 20
90.0
 30
0.0
 11
182.0
 21
91.0
 31
0.0
  0
LINE
  5
6D
330
17
100
AcDbEntity
  8
single line
370
20
100
AcDbLine
 10
182.0
 20
91.0
 30
0.0
 11
186.0
 21
91.0
 31
0.0
  0
LINE
  5
6E
330
17
100
AcDbEntity
  8
single line
370
20
100
AcDbLine
 10
186.0
 20
91.0
 30
0.0
 11
187.0
 21
92.0
 31
0.0
  0
LINE
  5
6F
330
17
100
AcDbEntity
  8
single line
370
20
100
AcDbLine
 10
187.0
 20
92.0
 30
0.0
 11
193.0
 21
92.0
 31
0.0
  0
LINE
  5
70
330
17
100
AcDbEntity
  8
single line
370
20
100
AcDbLine
 10
193.0
 20
92.0
 30
0.0
 11
194.0
 21
93.0
 31
0.0
  0
LINE
  5
71
330
17
100
AcDbEntity
  8
single line
370
20
100
AcDbLine
 10
194.0
 20
93.0
 30
0.0
 11
202.0
 21
93.0
 31
0.0
  0
LINE
  5
72
330
17
100
AcDbEntity
  8
single line
370
20
100
AcDbLine
 10
202.0
 20
93.0
 30
0.0
 11
203.0
 21
94.0
 31
0.0
  0
LINE
  5
73
330
17
100
AcDbEntity
  8
single line
370
20
100
AcDbLine
 10
203.0
 20
94.0
 30
0.0
 11
215.0
 21
94.0
 31
0.0
  0
LINE
  5
74
330
17
100
AcDbEntity
  8
single line
370
20
100
AcDbLine
 10
215.0
 20
94.0
 30
0.0
 11
216.0
 21
95.0
 31
0.0
  0
LINE
  5
75
330
17
100
AcDbEntity
  8
single line
370
20
100
AcDbLine
 10
216.0
 20
95.0
 30
0.0
 11
269.0
 21
95.0
 31
0.0
  0
LINE
  5
76
330
17
100
AcDbEntity
  8
single line
370
20
100
AcDbLine
 10
269.0
 20
95.0
 30
0.0
 11
270.0
 21
96.0
 31
0.0
  0
LINE
  5
77
330
17
100
AcDbEntity
  8
single line
370
20
100
AcDbLine
 10
270.0
 20
96.0
 30
0.0
 11
335.0
 21
96.0
 31
0.0
  0
LINE
  5
78
330
17
100
AcDbEntity
  8
single line
370
20
100
AcDbLine
 10
335.0
 20
96.0
 30
0.0
 11
336.0
 21
97.0
 31
0.0
  0
LINE
  5
79
330
17
100
AcDbEntity
  8
single line
370
20
100
AcDbLine
 10
336.0
 20
97.0
 30
0.0
 11
340.0
 21
97.0
 31
0.0
  0
LINE
  5
7A
330
17
100
AcDbEntity
  8
single line
370
20
100
AcDbLine
 10
340.0
 20
97.0
 30
0.0
 11
341.0
 21
96.0
 31
0.0
  0
LINE
  5
7B
330
17
100
AcDbEntity
  8
single line
370
20
100
AcDbLine
 10
341.0
 20
96.0
 30
0.0
 11
344.0
 21
96.0
 31
0.0
  0
LINE
  5
7C
330
17
100
AcDbEntity
  8
single line
370
20
100
AcDbLine
 10
344.0
 20
96.0
 30
0.0
 11
345.0
 21
97.0
 31
0.0
  0
LINE
  5
7D
330
17
100
AcDbEntity
  8
single line
370
20
100
AcDbLine
 10
345.0
 20
97.0
 30
0.0
 11
408.0
 21
97.0
 31
0.0
  0
LINE
  5
7E
330
17
100
AcDbEntity
  8
single line
370
20
100
AcDbLine
 10
408.0
 20
97.0
 30
0.0
 11
409.0
 21
98.0
 31
0.0
  0
LINE
  5
7F
330
17
100
AcDbEntity
  8
single line
370
20
100
AcDbLine
 10
409.0
 20
98.0
 30
0.0
 11
490.0
 21
98.0
 31
0.0
  0
LINE
  5
80
330
17
100
AcDbEntity
  8
single line
370
20
100
AcDbLine
 10
490.0
 20
98.0
 30
0.0
 11
491.0
 21
99.0
 31
0.0
  0
LINE
  5
81
330
17
100
AcDbEntity
  8
single line
370
20
100
AcDbLine
 10
491.0
 20
99.0
 30
0.0
 11
599.0
 21
99.0
 31
0.0
  0
LINE
  5
82
330
17
100
AcDbEntity
  8
single line
370
20
100
AcDbLine
 10
599.0
 20
99.0
 30
0.0
 11
600.0
 21
100.0
 31
0.0
  0
LINE
  5
83
330
17
100
AcDbEntity
  8
single line
370
20
100
AcDbLine
 10
600.0
 20
100.0
 30
0.0
 11
601.0
 21
99.0
 31
0.0
  0
LINE
  5
84
330
17
100
AcDbEntity
  8
single line
370
20
100
AcDbLine
 10
601.0
 20
99.0
 30
0.0
 11
604.0
 21
99.0
 31
0.0
  0
LINE
  5
85
330
17
100
AcDbEntity
  8
single line
370
20
100
AcDbLine
 10
604.0
 20
99.0
 30
0.0
 11
605.0
 21
100.0
 31
0.0
  0
LINE
  5
86
330
17
100
AcDbEntity
  8
single line
370
20
100
AcDbLine
 10
605.0
 20
100.0
 30
0.0
 11
606.0
 21
99.0
 31
0.0
  0
LINE
  5
87
330
17
100
AcDbEntity
  8
single line
370
20
100
AcDbLine
 10
606.0
 20
99.0
 30
0.0
 11
607.0
 21
99.0
 31
0.0
  0
LINE
  5
88
330
17
100
AcDbEntity
  8
single line
370
20
100
AcDbLine
 10
607.0
 20
99.0
 30
0.0
 11
608.0
 21
100.0
 31
0.0
  0
LINE
  5
89
330
17
100
AcDbEntity
  8
single line
370
20
100
AcDbLine
 10
608.0
 20
100.0
 30
0.0
 11
623.0
 21
100.0
 31
0.0
  0
LINE
  5
8A
330
17
100
AcDbEntity
  8
single line
370
20
100
AcDbLine
 10
623.0
 20
100.0
 30
0.0
 11
624.0
 21
99.0
 31
0.0
  0
LINE
  5
8B
330
17
100
AcDbEntity
  8
single line
370
20
100
AcDbLine
 10
624.0
 20
99.0
 30
0.0
 11
631.0
 21
99.0
 31
0.0
  0
LINE
  5
8C
330
17
100
AcDbEntity
  8
single line
370
20
100
AcDbLine
 10
631.0
 20
99.0
 30
0.0
 11
632.0
 21
100.0
 31
0.0
  0
LINE
  5
8D
330
17
100
AcDbEntity
  8
single line
370
20
100
AcDbLine
 10
632.0
 20
100.0
 30
0.0
 11
764.0
 21
100.0
 31
0.0
  0
LINE
  5
8E
330
17
100
AcDbEntity
  8
single line
370
20
100
AcDbLine
 10
764.0
 20
100.0
 30
0.0
 11
765.0
 21
101.0
 31
0.0
  0
LINE
  5
8F
330
17
100
AcDbEntity
  8
single line
370
20
100
AcDbLine
 10
765.0
 20
101.0
 30
0.0
 11
770.0
 21
101.0
 31
0.0
  0
LINE
  5
90
330
17
100
AcDbEntity
  8
single line
370
20
100
AcDbLine
 10
770.0
 20
101.0
 30
0.0
 11
771.0
 21
102.0
 31
0.0
  0
LINE
  5
91
330
17
100
AcDbEntity
  8
single line
370
20
100
AcDbLine
 10
771.0
 20
102.0
 30
0.0
 11
773.0
 21
102.0
 31
0.0
  0
LINE
  5
92
330
17
100
AcDbEntity
  8
single line
370
20
100
AcDbLine
 10
773.0
 20
102.0
 30
0.0
 11
774.0
 21
103.0
 31
0.0
  0
LINE
  5
93
330
17
100
AcDbEntity
  8
single line
370
20
100
AcDbLine
 10
774.0
 20
103.0
 30
0.0
 11
775.0
 21
103.0
 31
0.0
  0
LINE
  5
94
330
17
100
AcDbEntity
  8
single line
370
20
100
AcDbLine
 10
775.0
 20
103.0
 30
0.0
 11
776.0
 21
104.0
 31
0.0
  0
LINE
  5
95
330
17
100
AcDbEntity
  8
single line
370
20
100
AcDbLine
 10
776.0
 20
104.0
 30
0.0
 11
777.0
 21
104.0
 31
0.0
  0
LINE
  5
96
330
17
100
AcDbEntity
  8
single line
370
20
100
AcDbLine
 10
777.0
 20
104.0
 30
0.0
 11
778.0
 21
105.0
 31
0.0
  0
LINE
  5
97
330
17
100
AcDbEntity
  8
single line
370
20
100
AcDbLine
 10
778.0
 20
105.0
 30
0.0
 11
779.0
 21
105.0
 31
0.0
  0
LINE
  5
98
330
17
100
AcDbEntity
  8
single line
370
20
100
AcDbLine
 10
779.0
 20
105.0
 30
0.0
 11
781.0
 21
107.0
 31
0.0
  0
LINE
  5
99
330
17
100
AcDbEntity
  8
single line
370
20
100
AcDbLine
 10
781.0
 20
107.0
 30
0.0
 11
782.0
 21
107.0
 31
0.0
  0
LINE
  5
9A
330
17
100
AcDbEntity
  8
single line
370
20
100
AcDbLine
 10
782.0
 20
107.0
 30
0.0
 11
784.0
 21
109.0
 31
0.0
  0
LINE
  5
9B
330
17
100
AcDbEntity
  8
single line
370
20
100
AcDbLine
 10
784.0
 20
109.0
 30
0.0
 11
784.0
 21
110.0
 31
0.0
  0
LINE
  5
9C
330
17
100
AcDbEntity
  8
single line
370
20
100
AcDbLine
 10
784.0
 20
110.0
 30
0.0
 11
785.0
 21
110.0
 31
0.0
  0
LINE
  5
9D
330
17
100
AcDbEntity
  8
single line
370
20
100
AcDbLine
 10
785.0
 20
110.0
 30
0.0
 11
787.0
 21
112.0
 31
0.0
  0
LINE
  5
9E
330
17
100
AcDbEntity
  8
single line
370
20
100
AcDbLine
 10
787.0
 20
112.0
 30
0.0
 11
787.0
 21
113.0
 31
0.0
  0
LINE
  5
9F
330
17
100
AcDbEntity
  8
single line
370
20
100
AcDbLine
 10
787.0
 20
113.0
 30
0.0
 11
789.0
 21
115.0
 31
0.0
  0
LINE
  5
A0
330
17
100
AcDbEntity
  8
single line
370
20
100
AcDbLine
 10
789.0
 20
115.0
 30
0.0
 11
789.0
 21
116.0
 31
0.0
  0
LINE
  5
A1
330
17
100
AcDbEntity
  8
single line
370
20
100
AcDbLine
 10
789.0
 20
116.0
 30
0.0
 11
790.0
 21
117.0
 31
0.0
  0
LINE
  5
A2
330
17
100
AcDbEntity
  8
single line
370
20
100
AcDbLine
 10
790.0
 20
117.0
 30
0.0
 11
790.0
 21
119.0
 31
0.0
  0
LINE
  5
A3
330
17
100
AcDbEntity
  8
single line
370
20
100
AcDbLine
 10
790.0
 20
119.0
 30
0.0
 11
791.0
 21
120.0
 31
0.0
  0
LINE
  5
A4
330
17
100
AcDbEntity
  8
single line
370
20
100
AcDbLine
 10
791.0
 20
120.0
 30
0.0
 11
791.0
 21
122.0
 31
0.0
  0
LINE
  5
A5
330
17
100
AcDbEntity
  8
single line
370
20
100
AcDbLine
 10
791.0
 20
122.0
 30
0.0
 11
792.0
 21
123.0
 31
0.0
  0
LINE
  5
A6
330
17
100
AcDbEntity
  8
single line
370
20
100
AcDbLine
 10
792.0
 20
123.0
 30
0.0
 11
792.0
 21
125.0
 31
0.0
  0
LINE
  5
A7
330
17
100
AcDbEntity
  8
single line
370
20
100
AcDbLine
 10
792.0
 20
125.0
 30
0.0
 11
793.0
 21
126.0
 31
0.0
  0
LINE
  5
A8
330
17
100
AcDbEntity
  8
single line
370
20
100
AcDbLine
 10
793.0
 20
126.0
 30
0.0
 11
793.0
 21
136.0
 31
0.0
  0
LINE
  5
A9
330
17
100
AcDbEntity
  8
single line
370
20
100
AcDbLine
 10
793.0
 20
136.0
 30
0.0
 11
792.0
 21
137.0
 31
0.0
  0
LINE
  5
AA
330
17
100
AcDbEntity
  8
single line
370
20
100
AcDbLine
 10
792.0
 20
137.0
 30
0.0
 11
792.0
 21
139.0
 31
0.0
  0
LINE
  5
AB
330
17
100
AcDbEntity
  8
single line
370
20
100
AcDbLine
 10
792.0
 20
139.0
 30
0.0
 11
791.0
 21
140.0
 31
0.0
  0
LINE
  5
AC
330
17
100
AcDbEntity
  8
single line
370
20
100
AcDbLine
 10
791.0
 20
140.0
 30
0.0
 11
791.0
 21
142.0
 31
0.0
  0
LINE
  5
AD
330
17
100
AcDbEntity
  8
single line
370
20
100
AcDbLine
 10
791.0
 20
142.0
 30
0.0
 11
790.0
 21
143.0
 31
0.0
  0
LINE
  5
AE
330
17
100
AcDbEntity
  8
single line
370
20
100
AcDbLine
 10
790.0
 20
143.0
 30
0.0
 11
790.0
 21
145.0
 31
0.0
  0
LINE
  5
AF
330
17
100
AcDbEntity
  8
single line
370
20
100
AcDbLine
 10
790.0
 20
145.0
 30
0.0
 11
789.0
 21
146.0
 31
0.0
  0
LINE
  5
B0
330
17
100
AcDbEntity
  8
single line
370
20
100
AcDbLine
 10
789.0
 20
146.0
 30
0.0
 11
789.0
 21
147.0
 31
0.0
  0
LINE
  5
B1
330
17
100
AcDbEntity
  8
single line
370
20
100
AcDbLine
 10
789.0
 20
147.0
 30
0.0
 11
787.0
 21
149.0
 31
0.0
  0
LINE
  5
B2
330
17
100
AcDbEntity
  8
single line
370
20
100
AcDbLine
 10
787.0
 20
149.0
 30
0.0
 11
787.0
 21
150.0
 31
0.0
  0
LINE
  5
B3
330
17
100
AcDbEntity
  8
single line
370
20
100
AcDbLine
 10
787.0
 20
150.0
 30
0.0
 11
781.0
 21
156.0
 31
0.0
  0
LINE
  5
B4
330
17
100
AcDbEntity
  8
single line
370
20
100
AcDbLine
 10
781.0
 20
156.0
 30
0.0
 11
780.0
 21
156.0
 31
0.0
  0
LINE
  5
B5
330
17
100
AcDbEntity
  8
single line
370
20
100
AcDbLine
 10
780.0
 20
156.0
 30
0.0
 11
779.0
 21
157.0
 31
0.0
  0
LINE
  5
B6
330
17
100
AcDbEntity
  8
single line
370
20
100
AcDbLine
 10
779.0
 20
157.0
 30
0.0
 11
778.0
 21
157.0
 31
0.0
  0
LINE
  5
B7
330
17
100
AcDbEntity
  8
single line
370
20
100
AcDbLine
 10
778.0
 20
157.0
 30
0.0
 11
777.0
 21
158.0
 31
0.0
  0
LINE
  5
B8
330
17
100
AcDbEntity
  8
single line
370
20
100
AcDbLine
 10
777.0
 20
158.0
 30
0.0
 11
776.0
 21
158.0
 31
0.0
  0
LINE
  5
B9
330
17
100
AcDbEntity
  8
single line
370
20
100
AcDbLine
 10
776.0
 20
158.0
 30
0.0
 11
775.0
 21
159.0
 31
0.0
  0
LINE
  5
BA
330
17
100
AcDbEntity
  8
single line
370
20
100
AcDbLine
 10
775.0
 20
159.0
 30
0.0
 11
774.0
 21
159.0
 31
0.0
  0
LINE
  5
BB
330
17
100
AcDbEntity
  8
single line
370
20
100
AcDbLine
 10
774.0
 20
159.0
 30
0.0
 11
773.0
 21
160.0
 31
0.0
  0
LINE
  5
BC
330
17
100
AcDbEntity
  8
single line
370
20
100
AcDbLine
 10
773.0
 20
160.0
 30
0.0
 11
770.0
 21
160.0
 31
0.0
  0
LINE
  5
BD
330
17
100
AcDbEntity
  8
single line
370
20
100
AcDbLine
 10
770.0
 20
160.0
 30
0.0
 11
769.0
 21
161.0
 31
0.0
  0
LINE
  5
BE
330
17
100
AcDbEntity
  8
single line
370
20
100
AcDbLine
 10
769.0
 20
161.0
 30
0.0
 11
764.0
 21
161.0
 31
0.0
  0
LINE
  5
BF
330
17
100
AcDbEntity
  8
single line
370
20
100
AcDbLine
 10
764.0
 20
161.0
 30
0.0
 11
763.0
 21
162.0
 31
0.0
  0
LINE
  5
C0
330
17
100
AcDbEntity
  8
single line
370
20
100
AcDbLine
 10
763.0
 20
162.0
 30
0.0
 11
758.0
 21
162.0
 31
0.0
  0
LINE
  5
C1
330
17
100
AcDbEntity
  8
single line
370
20
100
AcDbLine
 10
758.0
 20
162.0
 30
0.0
 11
757.0
 21
163.0
 31
0.0
  0
LINE
  5
C2
330
17
100
AcDbEntity
  8
single line
370
20
100
AcDbLine
 10
757.0
 20
163.0
 30
0.0
 11
680.0
 21
163.0
 31
0.0
  0
LINE
  5
C3
330
17
100
AcDbEntity
  8
single line
370
20
100
AcDbLine
 10
680.0
 20
163.0
 30
0.0
 11
679.0
 21
164.0
 31
0.0
  0
LINE
  5
C4
330
17
100
AcDbEntity
  8
single line
370
20
100
AcDbLine
 10
679.0
 20
164.0
 30
0.0
 11
622.0
 21
164.0
 31
0.0
  0
LINE
  5
C5
330
17
100
AcDbEntity
  8
single line
370
20
100
AcDbLine
 10
622.0
 20
164.0
 30
0.0
 11
621.0
 21
165.0
 31
0.0
  0
LINE
  5
C6
330
17
100
AcDbEntity
  8
single line
370
20
100
AcDbLine
 10
621.0
 20
165.0
 30
0.0
 11
571.0
 21
165.0
 31
0.0
  0
LINE
  5
C7
330
17
100
AcDbEntity
  8
single line
370
20
100
AcDbLine
 10
571.0
 20
165.0
 30
0.0
 11
570.0
 21
166.0
 31
0.0
  0
LINE
  5
C8
330
17
100
AcDbEntity
  8
single line
370
20
100
AcDbLine
 10
570.0
 20
166.0
 30
0.0
 11
496.0
 21
166.0
 31
0.0
  0
LINE
  5
C9
330
17
100
AcDbEntity
  8
single line
370
20
100
AcDbLine
 10
496.0
 20
166.0
 30
0.0
 11
495.0
 21
167.0
 31
0.0
  0
LINE
  5
CA
330
17
100
AcDbEntity
  8
single line
370
20
100
AcDbLine
 10
495.0
 20
167.0
 30
0.0
 11
436.0
 21
167.0
 31
0.0
  0
LINE
  5
CB
330
17
100
AcDbEntity
  8
single line
370
20
100
AcDbLine
 10
436.0
 20
167.0
 30
0.0
 11
435.0
 21
168.0
 31
0.0
  0
LINE
  5
CC
330
17
100
AcDbEntity
  8
single line
370
20
100
AcDbLine
 10
435.0
 20
168.0
 30
0.0
 11
365.0
 21
168.0
 31
0.0
  0
LINE
  5
CD
330
17
100
AcDbEntity
  8
single line
370
20
100
AcDbLine
 10
365.0
 20
168.0
 30
0.0
 11
364.0
 21
169.0
 31
0.0
  0
LINE
  5
CE
330
17
100
AcDbEntity
  8
single line
370
20
100
AcDbLine
 10
364.0
 20
169.0
 30
0.0
 11
266.0
 21
169.0
 31
0.0
  0
LINE
  5
CF
330
17
100
AcDbEntity
  8
single line
370
20
100
AcDbLine
 10
266.0
 20
169.0
 30
0.0
 11
265.0
 21
170.0
 31
0.0
  0
LINE
  5
D0
330
17
100
AcDbEntity
  8
single line
370
20
100
AcDbLine
 10
265.0
 20
170.0
 30
0.0
 11
207.0
 21
170.0
 31
0.0
  0
LINE
  5
D1
330
17
100
AcDbEntity
  8
single line
370
20
100
AcDbLine
 10
207.0
 20
170.0
 30
0.0
 11
206.0
 21
171.0
 31
0.0
  0
LINE
  5
D2
330
17
100
AcDbEntity
  8
single line
370
20
100
AcDbLine
 10
206.0
 20
171.0
 30
0.0
 11
199.0
 21
171.0
 31
0.0
  0
LINE
  5
D3
330
17
100
AcDbEntity
  8
single line
370
20
100
AcDbLine
 10
199.0
 20
171.0
 30
0.0
 11
198.0
 21
172.0
 31
0.0
  0
LINE
  5
D4
330
17
100
AcDbEntity
  8
single line
370
20
100
AcDbLine
 10
198.0
 20
172.0
 30
0.0
 11
194.0
 21
172.0
 31
0.0
  0
LINE
  5
D5
330
17
100
AcDbEntity
  8
single line
370
20
100
AcDbLine
 10
194.0
 20
172.0
 30
0.0
 11
193.0
 21
173.0
 31
0.0
  0
LINE
  5
D6
330
17
100
AcDbEntity
  8
single line
370
20
100
AcDbLine
 10
193.0
 20
173.0
 30
0.0
 11
190.0
 21
173.0
 31
0.0
  0
LINE
  5
D7
330
17
100
AcDbEntity
  8
single line
370
20
100
AcDbLine
 10
190.0
 20
173.0
 30
0.0
 11
189.0
 21
174.0
 31
0.0
  0
LINE
  5
D8
330
17
100
AcDbEntity
  8
single line
370
20
100
AcDbLine
 10
189.0
 20
174.0
 30
0.0
 11
187.0
 21
174.0
 31
0.0
  0
LINE
  5
D9
330
17
100
AcDbEntity
  8
single line
370
20
100
AcDbLine
 10
187.0
 20
174.0
 30
0.0
 11
186.0
 21
175.0
 31
0.0
  0
LINE
  5
DA
330
17
100
AcDbEntity
  8
single line
370
20
100
AcDbLine
 10
186.0
 20
175.0
 30
0.0
 11
185.0
 21
175.0
 31
0.0
  0
LINE
  5
DB
330
17
100
AcDbEntity
  8
single line
370
20
100
AcDbLine
 10
185.0
 20
175.0
 30
0.0
 11
184.0
 21
176.0
 31
0.0
  0
LINE
  5
DC
330
17
100
AcDbEntity
  8
single line
370
20
100
AcDbLine
 10
184.0
 20
176.0
 30
0.0
 11
180.0
 21
176.0
 31
0.0
  0
LINE
  5
DD
330
17
100
AcDbEntity
  8
single line
370
20
100
AcDbLine
 10
180.0
 20
176.0
 30
0.0
 11
178.0
 21
178.0
 31
0.0
  0
LINE
  5
DE
330
17
100
AcDbEntity
  8
single line
370
20
100
AcDbLine
 10
178.0
 20
178.0
 30
0.0
 11
176.0
 21
178.0
 31
0.0
  0
LINE
  5
DF
330
17
100
AcDbEntity
  8
single line
370
20
100
AcDbLine
 10
176.0
 20
178.0
 30
0.0
 11
175.0
 21
179.0
 31
0.0
  0
LINE
  5
E0
330
17
100
AcDbEntity
  8
single line
370
20
100
AcDbLine
 10
175.0
 20
179.0
 30
0.0
 11
174.0
 21
179.0
 31
0.0
  0
LINE
  5
E1
330
17
100
AcDbEntity
  8
single line
370
20
100
AcDbLine
 10
174.0
 20
179.0
 30
0.0
 11
172.0
 21
181.0
 31
0.0
  0
LINE
  5
E2
330
17
100
AcDbEntity
  8
single line
370
20
100
AcDbLine
 10
172.0
 20
181.0
 30
0.0
 11
170.0
 21
181.0
 31
0.0
  0
LINE
  5
E3
330
17
100
AcDbEntity
  8
single line
370
20
100
AcDbLine
 10
170.0
 20
181.0
 30
0.0
 11
169.0
 21
182.0
 31
0.0
  0
LINE
  5
E4
330
17
100
AcDbEntity
  8
single line
370
20
100
AcDbLine
 10
169.0
 20
182.0
 30
0.0
 11
168.0
 21
182.0
 31
0.0
  0
LINE
  5
E5
330
17
100
AcDbEntity
  8
single line
370
20
100
AcDbLine
 10
168.0
 20
182.0
 30
0.0
 11
166.0
 21
184.0
 31
0.0
  0
LINE
  5
E6
330
17
100
AcDbEntity
  8
single line
370
20
100
AcDbLine
 10
166.0
 20
184.0
 30
0.0
 11
165.0
 21
184.0
 31
0.0
  0
LINE
  5
E7
330
17
100
AcDbEntity
  8
single line
370
20
100
AcDbLine
 10
165.0
 20
184.0
 30
0.0
 11
163.0
 21
186.0
 31
0.0
  0
LINE
  5
E8
330
17
100
AcDbEntity
  8
single line
370
20
100
AcDbLine
 10
163.0
 20
186.0
 30
0.0
 11
162.0
 21
186.0
 31
0.0
  0
LINE
  5
E9
330
17
100
AcDbEntity
  8
single line
370
20
100
AcDbLine
 10
162.0
 20
186.0
 30
0.0
 11
156.0
 21
192.0
 31
0.0
  0
LINE
  5
EA
330
17
100
AcDbEntity
  8
single line
370
20
100
AcDbLine
 10
156.0
 20
192.0
 30
0.0
 11
155.0
 21
192.0
 31
0.0
  0
LINE
  5
EB
330
17
100
AcDbEntity
  8
single line
370
20
100
AcDbLine
 10
155.0
 20
192.0
 30
0.0
 11
154.0
 21
193.0
 31
0.0
  0
LINE
  5
EC
330
17
100
AcDbEntity
  8
single line
370
20
100
AcDbLine
 10
154.0
 20
193.0
 30
0.0
 11
154.0
 21
194.0
 31
0.0
  0
LINE
  5
ED
330
17
100
AcDbEntity
  8
single line
370
20
100
AcDbLine
 10
154.0
 20
194.0
 30
0.0
 11
153.0
 21
195.0
 31
0.0
  0
LINE
  5
EE
330
17
100
AcDbEntity
  8
single line
370
20
100
AcDbLine
 10
153.0
 20
195.0
 30
0.0
 11
152.0
 21
195.0
 31
0.0
  0
LINE
  5
EF
330
17
100
AcDbEntity
  8
single line
370
20
100
AcDbLine
 10
152.0
 20
195.0
 30
0.0
 11
149.0
 21
198.0
 31
0.0
  0
LINE
  5
F0
330
17
100
AcDbEntity
  8
single line
370
20
100
AcDbLine
 10
149.0
 20
198.0
 30
0.0
 11
149.0
 21
199.0
 31
0.0
  0
LINE
  5
F1
330
17
100
AcDbEntity
  8
single line
370
20
100
AcDbLine
 10
149.0
 20
199.0
 30
0.0
 11
142.0
 21
206.0
 31
0.0
  0
LINE
  5
F2
330
17
100
AcDbEntity
  8
single line
370
20
100
AcDbLine
 10
142.0
 20
206.0
 30
0.0
 11
141.0
 21
206.0
 31
0.0
  0
LINE
  5
F3
330
17
100
AcDbEntity
  8
single line
370
20
100
AcDbLine
 10
141.0
 20
206.0
 30
0.0
 11
137.0
 21
210.0
 31
0.0
  0
LINE
  5
F4
330
17
100
AcDbEntity
  8
single line
370
20
100
AcDbLine
 10
137.0
 20
210.0
 30
0.0
 11
136.0
 21
210.0
 31
0.0
  0
LINE
  5
F5
330
17
100
AcDbEntity
  8
single line
370
20
100
AcDbLine
 10
136.0
 20
210.0
 30
0.0
 11
133.0
 21
213.0
 31
0.0
  0
LINE
  5
F6
330
17
100
AcDbEntity
  8
single line
370
20
100
AcDbLine
 10
133.0
 20
213.0
 30
0.0
 11
132.0
 21
213.0
 31
0.0
  0
LINE
  5
F7
330
17
100
AcDbEntity
  8
single line
370
20
100
AcDbLine
 10
132.0
 20
213.0
 30
0.0
 11
130.0
 21
215.0
 31
0.0
  0
LINE
  5
F8
330
17
100
AcDbEntity
  8
single line
370
20
100
AcDbLine
 10
130.0
 20
215.0
 30
0.0
 11
129.0
 21
215.0
 31
0.0
  0
LINE
  5
F9
330
17
100
AcDbEntity
  8
single line
370
20
100
AcDbLine
 10
129.0
 20
215.0
 30
0.0
 11
128.0
 21
216.0
 31
0.0
  0
LINE
  5
FA
330
17
100
AcDbEntity
  8
single line
370
20
100
AcDbLine
 10
128.0
 20
216.0
 30
0.0
 11
127.0
 21
216.0
 31
0.0
  0
LINE
  5
FB
330
17
100
AcDbEntity
  8
single line
370
20
100
AcDbLine
 10
127.0
 20
216.0
 30
0.0
 11
126.0
 21
217.0
 31
0.0
  0
LINE
  5
FC
330
17
100
AcDbEntity
  8
single line
370
20
100
AcDbLine
 10
126.0
 20
217.0
 30
0.0
 11
124.0
 21
217.0
 31
0.0
  0
LINE
  5
FD
330
17
100
AcDbEntity
  8
single line
370
20
100
AcDbLine
 10
124.0
 20
217.0
 30
0.0
 11
123.0
 21
218.0
 31
0.0
  0
LINE
  5
FE
330
17
100
AcDbEntity
  8
single line
370
20
100
AcDbLine
 10
123.0
 20
218.0
 30
0.0
 11
122.0
 21
218.0
 31
0.0
  0
LINE
  5
FF
330
17
100
AcDbEntity
  8
single line
370
20
100
AcDbLine
 10
122.0
 20
218.0
 30
0.0
 11
121.0
 21
219.0
 31
0.0
  0
LINE
  5
100
330
17
100
AcDbEntity
  8
single line
370
20
100
AcDbLine
 10
121.0
 20
219.0
 30
0.0
 11
119.0
 21
219.0
 31
0.0
  0
LINE
  5
101
330
17
100
AcDbEntity
  8
single line
370
20
100
AcDbLine
 10
119.0
 20
219.0
 30
0.0
 11
118.0
 21
220.0
 31
0.0
  0
LINE
  5
102
330
17
100
AcDbEntity
  8
single line
370
20
100
AcDbLine
 10
118.0
 20
220.0
 30
0.0
 11
115.0
 21
220.0
 31
0.0
  0
LINE
  5
103
330
17
100
AcDbEntity
  8
single line
370
20
100
AcDbLine
 10
115.0
 20
220.0
 30
0.0
 11
114.0
 21
221.0
 31
0.0
  0
LINE
  5
104
330
17
100
AcDbEntity
  8
single line
370
20
100
AcDbLine
 10
114.0
 20
221.0
 30
0.0
 11
107.0
 21
221.0
 31
0.0
  0
LINE
  5
105
330
17
100
AcDbEntity
  8
single line
370
20
100
AcDbLine
 10
107.0
 20
221.0
 30
0.0
 11
106.0
 21
222.0
 31
0.0
  0
LINE
  5
106
330
17
100
AcDbEntity
  8
single line
370
20
100
AcDbLine
 10
106.0
 20
222.0
 30
0.0
 11
96.0
 21
222.0
 31
0.0
  0
LINE
  5
107
330
17
100
AcDbEntity
  8
single line
370
20
100
AcDbLine
 10
96.0
 20
222.0
 30
0.0
 11
95.0
 21
221.0
 31
0.0
  0
LINE
  5
108
330
17
100
AcDbEntity
  8
single line
370
20
100
AcDbLine
 10
95.0
 20
221.0
 30
0.0
 11
89.0
 21
221.0
 31
0.0
  0
LINE
  5
109
330
17
100
AcDbEntity
  8
single line
370
20
100
AcDbLine
 10
89.0
 20
221.0
 30
0.0
 11
88.0
 21
220.0
 31
0.0
  0
LINE
  5
10A
330
17
100
AcDbEntity
  8
single line
370
20
100
AcDbLine
 10
88.0
 20
220.0
 30
0.0
 11
83.0
 21
220.0
 31
0.0
  0
LINE
  5
10B
330
17
100
AcDbEntity
  8
single line
370
20
100
AcDbLine
 10
83.0
 20
220.0
 30
0.0
 11
82.0
 21
219.0
 31
0.0
  0
LINE
  5
10C
330
17
100
AcDbEntity
  8
single line
370
20
100
AcDbLine
 10
82.0
 20
219.0
 30
0.0
 11
78.0
 21
219.0
 31
0.0
  0
LINE
  5
10D
330
17
100
AcDbEntity
  8
single line
370
20
100
AcDbLine
 10
78.0
 20
219.0
 30
0.0
 11
77.0
 21
218.0
 31
0.0
  0
LINE
  5
10E
330
17
100
AcDbEntity
  8
single line
370
20
100
AcDbLine
 10
77.0
 20
218.0
 30
0.0
 11
74.0
 21
218.0
 31
0.0
  0
LINE
  5
10F
330
17
100
AcDbEntity
  8
single line
370
20
100
AcDbLine
 10
74.0
 20
218.0
 30
0.0
 11
73.0
 21
217.0
 31
0.0
  0
LINE
  5
110
330
17
100
AcDbEntity
  8
single line
370
20
100
AcDbLine
 10
73.0
 20
217.0
 30
0.0
 11
70.0
 21
217.0
 31
0.0
  0
LINE
  5
111
330
17
100
AcDbEntity
  8
single line
370
20
100
AcDbLine
 10
70.0
 20
217.0
 30
0.0
 11
69.0
 21
216.0
 31
0.0
  0
LINE
  5
112
330
17
100
AcDbEntity
  8
single line
370
20
100
AcDbLine
 10
69.0
 20
216.0
 30
0.0
 11
67.0
 21
216.0
 31
0.0
  0
LINE
  5
113
330
17
100
AcDbEntity
  8
single line
370
20
100
AcDbLine
 10
67.0
 20
216.0
 30
0.0
 11
66.0
 21
215.0
 31
0.0
  0
LINE
  5
114
330
17
100
AcDbEntity
  8
single line
370
20
100
AcDbLine
 10
66.0
 20
215.0
 30
0.0
 11
64.0
 21
215.0
 31
0.0
  0
LINE
  5
115
330
17
100
AcDbEntity
  8
single line
370
20
100
AcDbLine
 10
64.0
 20
215.0
 30
0.0
 11
63.0
 21
214.0
 31
0.0
  0
LINE
  5
116
330
17
100
AcDbEntity
  8
single line
370
20
100
AcDbLine
 10
63.0
 20
214.0
 30
0.0
 11
61.0
 21
214.0
 31
0.0
  0
LINE
  5
117
330
17
100
AcDbEntity
  8
single line
370
20
100
AcDbLine
 10
61.0
 20
214.0
 30
0.0
 11
60.0
 21
213.0
 31
0.0
  0
LINE
  5
118
330
17
100
AcDbEntity
  8
single line
370
20
100
AcDbLine
 10
60.0
 20
213.0
 30
0.0
 11
58.0
 21
213.0
 31
0.0
  0
LINE
  5
119
330
17
100
AcDbEntity
  8
single line
370
20
100
AcDbLine
 10
58.0
 20
213.0
 30
0.0
 11
57.0
 21
212.0
 31
0.0
  0
LINE
  5
11A
330
17
100
AcDbEntity
  8
single line
370
20
100
AcDbLine
 10
57.0
 20
212.0
 30
0.0
 11
55.0
 21
212.0
 31
0.0
  0
LINE
  5
11B
330
17
100
AcDbEntity
  8
single line
370
20
100
AcDbLine
 10
55.0
 20
212.0
 30
0.0
 11
54.0
 21
211.0
 31
0.0
  0
LINE
  5
11C
330
17
100
AcDbEntity
  8
single line
370
20
100
AcDbLine
 10
54.0
 20
211.0
 30
0.0
 11
53.0
 21
211.0
 31
0.0
  0
LINE
  5
11D
330
17
100
AcDbEntity
  8
single line
370
20
100
AcDbLine
 10
53.0
 20
211.0
 30
0.0
 11
52.0
 21
210.0
 31
0.0
  0
LINE
  5
11E
330
17
100
AcDbEntity
  8
single line
370
20
100
AcDbLine
 10
52.0
 20
210.0
 30
0.0
 11
50.0
 21
210.0
 31
0.0
  0
LINE
  5
11F
330
17
100
AcDbEntity
  8
single line
370
20
100
AcDbLine
 10
50.0
 20
210.0
 30
0.0
 11
49.0
 21
209.0
 31
0.0
  0
LINE
  5
120
330
17
100
AcDbEntity
  8
single line
370
20
100
AcDbLine
 10
49.0
 20
209.0
 30
0.0
 11
48.0
 21
209.0
 31
0.0
  0
LINE
  5
121
330
17
100
AcDbEntity
  8
single line
370
20
100
AcDbLine
 10
48.0
 20
209.0
 30
0.0
 11
47.0
 21
208.0
 31
0.0
  0
LINE
  5
122
330
17
100
AcDbEntity
  8
single line
370
20
100
AcDbLine
 10
47.0
 20
208.0
 30
0.0
 11
45.0
 21
208.0
 31
0.0
  0
LINE
  5
123
330
17
100
AcDbEntity
  8
single line
370
20
100
AcDbLine
 10
45.0
 20
208.0
 30
0.0
 11
44.0
 21
207.0
 31
0.0
  0
LINE
  5
124
330
17
100
AcDbEntity
  8
single line
370
20
100
AcDbLine
 10
44.0
 20
207.0
 30
0.0
 11
43.0
 21
207.0
 31
0.0
  0
LINE
  5
125
330
17
100
AcDbEntity
  8
single line
370
20
100
AcDbLine
 10
43.0
 20
207.0
 30
0.0
 11
42.0
 21
206.0
 31
0.0
  0
LINE
  5
126
330
17
100
AcDbEntity
  8
single line
370
20
100
AcDbLine
 10
42.0
 20
206.0
 30
0.0
 11
41.0
 21
206.0
 31
0.0
  0
LINE
  5
127
330
17
100
AcDbEntity
  8
single line
370
20
100
AcDbLine
 10
41.0
 20
206.0
 30
0.0
 11
40.0
 21
205.0
 31
0.0
  0
LINE
  5
128
330
17
100
AcDbEntity
  8
single line
370
20
100
AcDbLine
 10
40.0
 20
205.0
 30
0.0
 11
39.0
 21
205.0
 31
0.0
  0
LINE
  5
129
330
17
100
AcDbEntity
  8
single line
370
20
100
AcDbLine
 10
39.0
 20
205.0
 30
0.0
 11
38.0
 21
204.0
 31
0.0
  0
LINE
  5
12A
330
17
100
AcDbEntity
  8
single line
370
20
100
AcDbLine
 10
38.0
 20
204.0
 30
0.0
 11
37.0
 21
204.0
 31
0.0
  0
LINE
  5
12B
330
17
100
AcDbEntity
  8
single line
370
20
100
AcDbLine
 10
37.0
 20
204.0
 30
0.0
 11
36.0
 21
203.0
 31
0.0
  0
LINE
  5
12C
330
17
100
AcDbEntity
  8
single line
370
20
100
AcDbLine
 10
36.0
 20
203.0
 30
0.0
 11
35.0
 21
203.0
 31
0.0
  0
LINE
  5
12D
330
17
100
AcDbEntity
  8
single line
370
20
100
AcDbLine
 10
35.0
 20
203.0
 30
0.0
 11
34.0
 21
202.0
 31
0.0
  0
LINE
  5
12E
330
17
100
AcDbEntity
  8
single line
370
20
100
AcDbLine
 10
34.0
 20
202.0
 30
0.0
 11
33.0
 21
202.0
 31
0.0
  0
LINE
  5
12F
330
17
100
AcDbEntity
  8
single line
370
20
100
AcDbLine
 10
33.0
 20
202.0
 30
0.0
 11
29.0
 21
198.0
 31
0.0
  0
LINE
  5
130
330
17
100
AcDbEntity
  8
single line
370
20
100
AcDbLine
 10
29.0
 20
198.0
 30
0.0
 11
29.0
 21
197.0
 31
0.0
  0
LINE
  5
131
330
17
100
AcDbEntity
  8
single line
370
20
100
AcDbLine
 10
29.0
 20
197.0
 30
0.0
 11
27.0
 21
195.0
 31
0.0
  0
LINE
  5
132
330
17
100
AcDbEntity
  8
single line
370
20
100
AcDbLine
 10
27.0
 20
195.0
 30
0.0
 11
27.0
 21
189.0
 31
0.0
  0
LINE
  5
133
330
17
100
AcDbEntity
  8
single line
370
20
100
AcDbLine
 10
27.0
 20
189.0
 30
0.0
 11
29.0
 21
187.0
 31
0.0
  0
LINE
  5
134
330
17
100
AcDbEntity
  8
single line
370
20
100
AcDbLine
 10
29.0
 20
187.0
 30
0.0
 11
30.0
 21
187.0
 31
0.0
  0
LINE
  5
135
330
17
100
AcDbEntity
  8
single line
370
20
100
AcDbLine
 10
30.0
 20
187.0
 30
0.0
 11
30.0
 21
186.0
 31
0.0
  0
LINE
  5
136
330
17
100
AcDbEntity
  8
single line
370
20
100
AcDbLine
 10
30.0
 20
186.0
 30
0.0
 11
31.0
 21
185.0
 31
0.0
  0
LINE
  5
137
330
17
100
AcDbEntity
  8
single line
370
20
100
AcDbLine
 10
31.0
 20
185.0
 30
0.0
 11
32.0
 21
185.0
 31
0.0
  0
LINE
  5
138
330
17
100
AcDbEntity
  8
single line
370
20
100
AcDbLine
 10
32.0
 20
185.0
 30
0.0
 11
33.0
 21
184.0
 31
0.0
  0
LINE
  5
139
330
17
100
AcDbEntity
  8
single line
370
20
100
AcDbLine
 10
33.0
 20
184.0
 30
0.0
 11
34.0
 21
184.0
 31
0.0
  0
LINE
  5
13A
330
17
100
AcDbEntity
  8
single line
370
20
100
AcDbLine
 10
34.0
 20
184.0
 30
0.0
 11
35.0
 21
183.0
 31
0.0
  0
LINE
  5
13B
330
17
100
AcDbEntity
  8
single line
370
20
100
AcDbLine
 10
35.0
 20
183.0
 30
0.0
 11
38.0
 21
183.0
 31
0.0
  0
LINE
  5
13C
330
17
100
AcDbEntity
  8
single line
370
20
100
AcDbLine
 10
38.0
 20
183.0
 30
0.0
 11
39.0
 21
182.0
 31
0.0
  0
LINE
  5
13D
330
17
100
AcDbEntity
  8
single line
370
20
100
AcDbLine
 10
39.0
 20
182.0
 30
0.0
 11
42.0
 21
182.0
 31
0.0
  0
LINE
  5
13E
330
17
100
AcDbEntity
  8
single line
370
20
100
AcDbLine
 10
42.0
 20
182.0
 30
0.0
 11
43.0
 21
181.0
 31
0.0
  0
LINE
  5
13F
330
17
100
AcDbEntity
  8
single line
370
20
100
AcDbLine
 10
43.0
 20
181.0
 30
0.0
 11
45.0
 21
181.0
 31
0.0
  0
LINE
  5
140
330
17
100
AcDbEntity
  8
single line
370
20
100
AcDbLine
 10
45.0
 20
181.0
 30
0.0
 11
46.0
 21
180.0
 31
0.0
  0
LINE
  5
141
330
17
100
AcDbEntity
  8
single line
370
20
100
AcDbLine
 10
46.0
 20
180.0
 30
0.0
 11
49.0
 21
180.0
 31
0.0
  0
LINE
  5
142
330
17
100
AcDbEntity
  8
single line
370
20
100
AcDbLine
 10
49.0
 20
180.0
 30
0.0
 11
50.0
 21
179.0
 31
0.0
  0
LINE
  5
143
330
17
100
AcDbEntity
  8
single line
370
20
100
AcDbLine
 10
50.0
 20
179.0
 30
0.0
 11
53.0
 21
179.0
 31
0.0
  0
LINE
  5
144
330
17
100
AcDbEntity
  8
single line
370
20
100
AcDbLine
 10
53.0
 20
179.0
 30
0.0
 11
54.0
 21
178.0
 31
0.0
  0
LINE
  5
145
330
17
100
AcDbEntity
  8
single line
370
20
100
AcDbLine
 10
54.0
 20
178.0
 30
0.0
 11
57.0
 21
178.0
 31
0.0
  0
LINE
  5
146
330
17
100
AcDbEntity
  8
single line
370
20
100
AcDbLine
 10
57.0
 20
178.0
 30
0.0
 11
58.0
 21
177.0
 31
0.0
  0
LINE
  5
147
330
17
100
AcDbEntity
  8
single line
370
20
100
AcDbLine
 10
58.0
 20
177.0
 30
0.0
 11
60.0
 21
177.0
 31
0.0
  0
LINE
  5
148
330
17
100
AcDbEntity
  8
single line
370
20
100
AcDbLine
 10
60.0
 20
177.0
 30
0.0
 11
61.0
 21
176.0
 31
0.0
  0
LINE
  5
149
330
17
100
AcDbEntity
  8
single line
370
20
100
AcDbLine
 10
61.0
 20
176.0
 30
0.0
 11
64.0
 21
176.0
 31
0.0
  0
LINE
  5
14A
330
17
100
AcDbEntity
  8
single line
370
20
100
AcDbLine
 10
64.0
 20
176.0
 30
0.0
 11
65.0
 21
175.0
 31
0.0
  0
LINE
  5
14B
330
17
100
AcDbEntity
  8
single line
370
20
100
AcDbLine
 10
65.0
 20
175.0
 30
0.0
 11
68.0
 21
175.0
 31
0.0
  0
LINE
  5
14C
330
17
100
AcDbEntity
  8
single line
370
20
100
AcDbLine
 10
68.0
 20
175.0
 30
0.0
 11
69.0
 21
174.0
 31
0.0
  0
LINE
  5
14D
330
17
100
AcDbEntity
  8
single line
370
20
100
AcDbLine
 10
69.0
 20
174.0
 30
0.0
 11
72.0
 21
174.0
 31
0.0
  0
LINE
  5
14E
330
17
100
AcDbEntity
  8
single line
370
20
100
AcDbLine
 10
72.0
 20
174.0
 30
0.0
 11
73.0
 21
173.0
 31
0.0
  0
LINE
  5
14F
330
17
100
AcDbEntity
  8
single line
370
20
100
AcDbLine
 10
73.0
 20
173.0
 30
0.0
 11
76.0
 21
173.0
 31
0.0
  0
LINE
  5
150
330
17
100
AcDbEntity
  8
single line
370
20
100
AcDbLine
 10
76.0
 20
173.0
 30
0.0
 11
77.0
 21
172.0
 31
0.0
  0
LINE
  5
151
330
17
100
AcDbEntity
  8
single line
370
20
100
AcDbLine
 10
77.0
 20
172.0
 30
0.0
 11
79.0
 21
172.0
 31
0.0
  0
LINE
  5
152
330
17
100
AcDbEntity
  8
single line
370
20
100
AcDbLine
 10
79.0
 20
172.0
 30
0.0
 11
80.0
 21
171.0
 31
0.0
  0
LINE
  5
153
330
17
100
AcDbEntity
  8
single line
370
20
100
AcDbLine
 10
80.0
 20
171.0
 30
0.0
 11
82.0
 21
171.0
 31
0.0
  0
LINE
  5
154
330
17
100
AcDbEntity
  8
single line
370
20
100
AcDbLine
 10
82.0
 20
171.0
 30
0.0
 11
83.0
 21
170.0
 31
0.0
  0
LINE
  5
155
330
17
100
AcDbEntity
  8
single line
370
20
100
AcDbLine
 10
83.0
 20
170.0
 30
0.0
 11
84.0
 21
170.0
 31
0.0
  0
LINE
  5
156
330
17
100
AcDbEntity
  8
single line
370
20
100
AcDbLine
 10
84.0
 20
170.0
 30
0.0
 11
86.0
 21
168.0
 31
0.0
  0
LINE
  5
157
330
17
100
AcDbEntity
  8
single line
370
20
100
AcDbLine
 10
86.0
 20
168.0
 30
0.0
 11
87.0
 21
168.0
 31
0.0
  0
LINE
  5
158
330
17
100
AcDbEntity
  8
single line
370
20
100
AcDbLine
 10
87.0
 20
168.0
 30
0.0
 11
88.0
 21
167.0
 31
0.0
  0
LINE
  5
159
330
17
100
AcDbEntity
  8
single line
370
20
100
AcDbLine
 10
88.0
 20
167.0
 30
0.0
 11
88.0
 21
166.0
 31
0.0
  0
LINE
  5
15A
330
17
100
AcDbEntity
  8
single line
370
20
100
AcDbLine
 10
88.0
 20
166.0
 30
0.0
 11
89.0
 21
165.0
 31
0.0
  0
LINE
  5
15B
330
17
100
AcDbEntity
  8
single line
370
20
100
AcDbLine
 10
89.0
 20
165.0
 30
0.0
 11
90.0
 21
165.0
 31
0.0
  0
LINE
  5
15C
330
17
100
AcDbEntity
  8
single line
370
20
100
AcDbLine
 10
90.0
 20
165.0
 30
0.0
 11
90.0
 21
164.0
 31
0.0
  0
LINE
  5
15D
330
17
100
AcDbEntity
  8
single line
370
20
100
AcDbLine
 10
90.0
 20
164.0
 30
0.0
 11
91.0
 21
163.0
 31
0.0
  0
LINE
  5
15E
330
17
100
AcDbEntity
  8
single line
370
20
100
AcDbLine
 10
91.0
 20
163.0
 30
0.0
 11
91.0
 21
162.0
 31
0.0
  0
LINE
  5
15F
330
17
100
AcDbEntity
  8
single line
370
20
100
AcDbLine
 10
91.0
 20
162.0
 30
0.0
 11
93.0
 21
160.0
 31
0.0
  0
LINE
  5
160
330
17
100
AcDbEntity
  8
single line
370
20
100
AcDbLine
 10
93.0
 20
160.0
 30
0.0
 11
93.0
 21
159.0
 31
0.0
  0
LINE
  5
161
330
17
100
AcDbEntity
  8
single line
370
20
100
AcDbLine
 10
93.0
 20
159.0
 30
0.0
 11
94.0
 21
158.0
 31
0.0
  0
LINE
  5
162
330
17
100
AcDbEntity
  8
single line
370
20
100
AcDbLine
 10
94.0
 20
158.0
 30
0.0
 11
94.0
 21
156.0
 31
0.0
  0
LINE
  5
163
330
17
100
AcDbEntity
  8
single line
370
20
100
AcDbLine
 10
94.0
 20
156.0
 30
0.0
 11
95.0
 21
155.0
 31
0.0
  0
LINE
  5
164
330
17
100
AcDbEntity
  8
single line
370
20
100
AcDbLine
 10
95.0
 20
155.0
 30
0.0
 11
95.0
 21
153.0
 31
0.0
  0
LINE
  5
165
330
17
100
AcDbEntity
  8
single line
370
20
100
AcDbLine
 10
95.0
 20
153.0
 30
0.0
 11
96.0
 21
152.0
 31
0.0
  0
LINE
  5
166
330
17
100
AcDbEntity
  8
single line
370
20
100
AcDbLine
 10
96.0
 20
152.0
 30
0.0
 11
96.0
 21
149.0
 31
0.0
  0
LINE
  5
167
330
17
100
AcDbEntity
  8
single line
370
20
100
AcDbLine
 10
96.0
 20
149.0
 30
0.0
 11
97.0
 21
148.0
 31
0.0
  0
LINE
  5
168
330
17
100
AcDbEntity
  8
single line
370
20
100
AcDbLine
 10
97.0
 20
148.0
 30
0.0
 11
97.0
 21
144.0
 31
0.0
  0
LINE
  5
169
330
17
100
AcDbEntity
  8
single line
370
20
100
AcDbLine
 10
97.0
 20
144.0
 30
0.0
 11
98.0
 21
143.0
 31
0.0
  0
LINE
  5
16A
330
17
100
AcDbEntity
  8
single line
370
20
100
AcDbLine
 10
98.0
 20
143.0
 30
0.0
 11
98.0
 21
133.0
 31
0.0
  0
LINE
  5
16B
330
17
100
AcDbEntity
  8
single line
370
20
100
AcDbLine
 10
98.0
 20
133.0
 30
0.0
 11
97.0
 21
132.0
 31
0.0
  0
LINE
  5
16C
330
17
100
AcDbEntity
  8
single line
370
20
100
AcDbLine
 10
97.0
 20
132.0
 30
0.0
 11
97.0
 21
129.0
 31
0.0
  0
LINE
  5
16D
330
17
100
AcDbEntity
  8
single line
370
20
100
AcDbLine
 10
97.0
 20
129.0
 30
0.0
 11
96.0
 21
128.0
 31
0.0
  0
LINE
  5
16E
330
17
100
AcDbEntity
  8
single line
370
20
100
AcDbLine
 10
96.0
 20
128.0
 30
0.0
 11
96.0
 21
127.0
 31
0.0
  0
LINE
  5
16F
330
17
100
AcDbEntity
  8
single line
370
20
100
AcDbLine
 10
96.0
 20
127.0
 30
0.0
 11
93.0
 21
124.0
 31
0.0
  0
LINE
  5
170
330
17
100
AcDbEntity
  8
single line
370
20
100
AcDbLine
 10
93.0
 20
124.0
 30
0.0
 11
93.0
 21
123.0
 31
0.0
  0
LINE
  5
171
330
17
100
AcDbEntity
  8
single line
370
20
100
AcDbLine
 10
93.0
 20
123.0
 30
0.0
 11
89.0
 21
119.0
 31
0.0
  0
LINE
  5
172
330
17
100
AcDbEntity
  8
single line
370
20
100
AcDbLine
 10
89.0
 20
119.0
 30
0.0
 11
89.0
 21
118.0
 31
0.0
  0
LINE
  5
173
330
17
100
AcDbEntity
  8
single line
370
20
100
AcDbLine
 10
89.0
 20
118.0
 30
0.0
 11
87.0
 21
116.0
 31
0.0
  0
LINE
  5
174
330
17
100
AcDbEntity
  8
single line
370
20
100
AcDbLine
 10
87.0
 20
116.0
 30
0.0
 11
86.0
 21
116.0
 31
0.0
  0
LINE
  5
175
330
17
100
AcDbEntity
  8
single line
370
20
100
AcDbLine
 10
86.0
 20
116.0
 30
0.0
 11
82.0
 21
112.0
 31
0.0
  0
LINE
  5
176
330
17
100
AcDbEntity
  8
single line
370
20
100
AcDbLine
 10
82.0
 20
112.0
 30
0.0
 11
81.0
 21
112.0
 31
0.0
  0
LINE
  5
177
330
17
100
AcDbEntity
  8
single line
370
20
100
AcDbLine
 10
81.0
 20
112.0
 30
0.0
 11
79.0
 21
110.0
 31
0.0
  0
LINE
  5
178
330
17
100
AcDbEntity
  8
single line
370
20
100
AcDbLine
 10
79.0
 20
110.0
 30
0.0
 11
78.0
 21
110.0
 31
0.0
  0
LINE
  5
179
330
17
100
AcDbEntity
  8
single line
370
20
100
AcDbLine
 10
78.0
 20
110.0
 30
0.0
 11
77.0
 21
109.0
 31
0.0
  0
LINE
  5
17A
330
17
100
AcDbEntity
  8
single line
370
20
100
AcDbLine
 10
77.0
 20
109.0
 30
0.0
 11
75.0
 21
109.0
 31
0.0
  0
LINE
  5
17B
330
17
100
AcDbEntity
  8
single line
370
20
100
AcDbLine
 10
75.0
 20
109.0
 30
0.0
 11
74.0
 21
108.0
 31
0.0
  0
LINE
  5
17C
330
17
100
AcDbEntity
  8
single line
370
20
100
AcDbLine
 10
74.0
 20
108.0
 30
0.0
 11
72.0
 21
108.0
 31
0.0
  0
LINE
  5
17D
330
17
100
AcDbEntity
  8
single line
370
20
100
AcDbLine
 10
72.0
 20
108.0
 30
0.0
 11
71.0
 21
107.0
 31
0.0
  0
LINE
  5
17E
330
17
100
AcDbEntity
  8
single line
370
20
100
AcDbLine
 10
71.0
 20
107.0
 30
0.0
 11
66.0
 21
107.0
 31
0.0
  0
LINE
  5
17F
330
17
100
AcDbEntity
  8
single line
370
20
100
AcDbLine
 10
66.0
 20
107.0
 30
0.0
 11
65.0
 21
108.0
 31
0.0
  0
LINE
  5
180
330
17
100
AcDbEntity
  8
single line
370
20
100
AcDbLine
 10
65.0
 20
108.0
 30
0.0
 11
61.0
 21
108.0
 31
0.0
  0
LINE
  5
181
330
17
100
AcDbEntity
  8
single line
370
20
100
AcDbLine
 10
61.0
 20
108.0
 30
0.0
 11
60.0
 21
109.0
 31
0.0
  0
LINE
  5
182
330
17
100
AcDbEntity
  8
single line
370
20
100
AcDbLine
 10
60.0
 20
109.0
 30
0.0
 11
56.0
 21
109.0
 31
0.0
  0
LINE
  5
183
330
17
100
AcDbEntity
  8
single line
370
20
100
AcDbLine
 10
56.0
 20
109.0
 30
0.0
 11
55.0
 21
110.0
 31
0.0
  0
LINE
  5
184
330
17
100
AcDbEntity
  8
single line
370
20
100
AcDbLine
 10
55.0
 20
110.0
 30
0.0
 11
53.0
 21
110.0
 31
0.0
  0
LINE
  5
185
330
17
100
AcDbEntity
  8
single line
370
20
100
AcDbLine
 10
53.0
 20
110.0
 30
0.0
 11
52.0
 21
111.0
 31
0.0
  0
LINE
  5
186
330
17
100
AcDbEntity
  8
single line
370
20
100
AcDbLine
 10
52.0
 20
111.0
 30
0.0
 11
48.0
 21
111.0
 31
0.0
  0
LINE
  5
187
330
17
100
AcDbEntity
  8
single line
370
20
100
AcDbLine
 10
48.0
 20
111.0
 30
0.0
 11
47.0
 21
112.0
 31
0.0
  0
LINE
  5
188
330
17
100
AcDbEntity
  8
single line
370
20
100
AcDbLine
 10
47.0
 20
112.0
 30
0.0
 11
44.0
 21
112.0
 31
0.0
  0
LINE
  5
189
330
17
100
AcDbEntity
  8
single line
370
20
100
AcDbLine
 10
44.0
 20
112.0
 30
0.0
 11
43.0
 21
113.0
 31
0.0
  0
LINE
  5
18A
330
17
100
AcDbEntity
  8
single line
370
20
100
AcDbLine
 10
43.0
 20
113.0
 30
0.0
 11
40.0
 21
113.0
 31
0.0
  0
LINE
  5
18B
330
17
100
AcDbEntity
  8
single line
370
20
100
AcDbLine
 10
40.0
 20
113.0
 30
0.0
 11
39.0
 21
114.0
 31
0.0
  0
LINE
  5
18C
330
17
100
AcDbEntity
  8
single line
370
20
100
AcDbLine
 10
39.0
 20
114.0
 30
0.0
 11
36.0
 21
114.0
 31
0.0
  0
LINE
  5
18D
330
17
100
AcDbEntity
  8
single line
370
20
100
AcDbLine
 10
36.0
 20
114.0
 30
0.0
 11
35.0
 21
115.0
 31
0.0
  0
LINE
  5
18E
330
17
100
AcDbEntity
  8
single line
370
20
100
AcDbLine
 10
35.0
 20
115.0
 30
0.0
 11
32.0
 21
115.0
 31
0.0
  0
LINE
  5
18F
330
17
100
AcDbEntity
  8
single line
370
20
100
AcDbLine
 10
32.0
 20
115.0
 30
0.0
 11
31.0
 21
116.0
 31
0.0
  0
LINE
  5
190
330
17
100
AcDbEntity
  8
single line
370
20
100
AcDbLine
 10
31.0
 20
116.0
 30
0.0
 11
28.0
 21
116.0
 31
0.0
  0
LINE
  5
191
330
17
100
AcDbEntity
  8
single line
370
20
100
AcDbLine
 10
28.0
 20
116.0
 30
0.0
 11
27.0
 21
117.0
 31
0.0
  0
LINE
  5
192
330
17
100
AcDbEntity
  8
single line
370
20
100
AcDbLine
 10
27.0
 20
117.0
 30
0.0
 11
24.0
 21
117.0
 31
0.0
  0
LINE
  5
193
330
17
100
AcDbEntity
  8
single line
370
20
100
AcDbLine
 10
24.0
 20
117.0
 30
0.0
 11
23.0
 21
118.0
 31
0.0
  0
LINE
  5
194
330
17
100
AcDbEntity
  8
single line
370
20
100
AcDbLine
 10
23.0
 20
118.0
 30
0.0
 11
13.0
 21
118.0
 31
0.0
  0
LINE
  5
195
330
17
100
AcDbEntity
  8
single line
370
20
100
AcDbLine
 10
13.0
 20
118.0
 30
0.0
 11
11.0
 21
116.0
 31
0.0
  0
LINE
  5
196
330
17
100
AcDbEntity
  8
single line
370
20
100
AcDbLine
 10
11.0
 20
116.0
 30
0.0
 11
10.0
 21
116.0
 31
0.0
  0
LINE
  5
197
330
17
100
AcDbEntity
  8
single line
370
20
100
AcDbLine
 10
10.0
 20
116.0
 30
0.0
 11
9.0
 21
115.0
 31
0.0
  0
LINE
  5
198
330
17
100
AcDbEntity
  8
single line
370
20
100
AcDbLine
 10
9.0
 20
115.0
 30
0.0
 11
9.0
 21
114.0
 31
0.0
  0
LINE
  5
199
330
17
100
AcDbEntity
  8
single line
370
20
100
AcDbLine
 10
9.0
 20
114.0
 30
0.0
 11
8.0
 21
113.0
 31
0.0
  0
LINE
  5
19A
330
17
100
AcDbEntity
  8
single line
370
20
100
AcDbLine
 10
8.0
 20
113.0
 30
0.0
 11
8.0
 21
112.0
 31
0.0
  0
LINE
  5
19B
330
17
100
AcDbEntity
  8
single line
370
20
100
AcDbLine
 10
8.0
 20
112.0
 30
0.0
 11
7.0
 21
111.0
 31
0.0
  0
LINE
  5
19C
330
17
100
AcDbEntity
  8
single line
370
20
100
AcDbLine
 10
7.0
 20
111.0
 30
0.0
 11
7.0
 21
102.0
 31
0.0
  0
LINE
  5
19D
330
17
100
AcDbEntity
  8
single line
370
20
100
AcDbLine
 10
7.0
 20
102.0
 30
0.0
 11
9.0
 21
100.0
 31
0.0
  0
LINE
  5
19E
330
17
100
AcDbEntity
  8
single line
370
20
100
AcDbLine
 10
9.0
 20
100.0
 30
0.0
 11
9.0
 21
98.0
 31
0.0
  0
LINE
  5
19F
330
17
100
AcDbEntity
  8
single line
370
20
100
AcDbLine
 10
9.0
 20
98.0
 30
0.0
 11
12.0
 21
95.0
 31
0.0
  0
LINE
  5
1A0
330
17
100
AcDbEntity
  8
single line
370
20
100
AcDbLine
 10
12.0
 20
95.0
 30
0.0
 11
13.0
 21
95.0
 31
0.0
  0
LINE
  5
1A1
330
17
100
AcDbEntity
  8
single line
370
20
100
AcDbLine
 10
13.0
 20
95.0
 30
0.0
 11
16.0
 21
92.0
 31
0.0
  0
LINE
  5
1A2
330
17
100
AcDbEntity
  8
single line
370
20
100
AcDbLine
 10
16.0
 20
92.0
 30
0.0
 11
16.0
 21
91.0
 31
0.0
  0
LINE
  5
1A3
330
17
100
AcDbEntity
  8
single line
370
20
100
AcDbLine
 10
16.0
 20
91.0
 30
0.0
 11
21.0
 21
86.0
 31
0.0
  0
LINE
  5
1A4
330
17
100
AcDbEntity
  8
single line
370
20
100
AcDbLine
 10
21.0
 20
86.0
 30
0.0
 11
21.0
 21
85.0
 31
0.0
  0
LINE
  5
1A5
330
17
100
AcDbEntity
  8
single line
370
20
100
AcDbLine
 10
21.0
 20
85.0
 30
0.0
 11
23.0
 21
83.0
 31
0.0
  0
LINE
  5
1A6
330
17
100
AcDbEntity
  8
single line
370
20
100
AcDbLine
 10
23.0
 20
83.0
 30
0.0
 11
24.0
 21
83.0
 31
0.0
  0
LINE
  5
1A7
330
17
100
AcDbEntity
  8
single line
370
20
100
AcDbLine
 10
24.0
 20
83.0
 30
0.0
 11
24.0
 21
82.0
 31
0.0
  0
LINE
  5
1A8
330
17
100
AcDbEntity
  8
single line
370
20
100
AcDbLine
 10
24.0
 20
82.0
 30
0.0
 11
39.0
 21
67.0
 31
0.0
  0
LINE
  5
1A9
330
17
100
AcDbEntity
  8
single line
370
20
100
AcDbLine
 10
39.0
 20
67.0
 30
0.0
 11
40.0
 21
67.0
 31
0.0
  0
LINE
  5
1AA
330
17
100
AcDbEntity
  8
single line
370
20
100
AcDbLine
 10
40.0
 20
67.0
 30
0.0
 11
45.0
 21
62.0
 31
0.0
  0
LINE
  5
1AB
330
17
100
AcDbEntity
  8
single line
370
20
100
AcDbLine
 10
45.0
 20
62.0
 30
0.0
 11
46.0
 21
62.0
 31
0.0
  0
LINE
  5
1AC
330
17
100
AcDbEntity
  8
single line
370
20
100
AcDbLine
 10
46.0
 20
62.0
 30
0.0
 11
49.0
 21
59.0
 31
0.0
  0
LINE
  5
1AD
330
17
100
AcDbEntity
  8
single line
370
20
100
AcDbLine
 10
49.0
 20
59.0
 30
0.0
 11
50.0
 21
59.0
 31
0.0
  0
LINE
  5
1AE
330
17
100
AcDbEntity
  8
single line
370
20
100
AcDbLine
 10
50.0
 20
59.0
 30
0.0
 11
52.0
 21
57.0
 31
0.0
  0
LINE
  5
1AF
330
17
100
AcDbEntity
  8
single line
370
20
100
AcDbLine
 10
52.0
 20
57.0
 30
0.0
 11
53.0
 21
57.0
 31
0.0
  0
LINE
  5
1B0
330
17
100
AcDbEntity
  8
single line
370
20
100
AcDbLine
 10
53.0
 20
57.0
 30
0.0
 11
55.0
 21
55.0
 31
0.0
  0
LINE
  5
1B1
330
17
100
AcDbEntity
  8
single line
370
20
100
AcDbLine
 10
55.0
 20
55.0
 30
0.0
 11
56.0
 21
55.0
 31
0.0
  0
LINE
  5
1B2
330
17
100
AcDbEntity
  8
single line
370
20
100
AcDbLine
 10
56.0
 20
55.0
 30
0.0
 11
57.0
 21
54.0
 31
0.0
  0
LINE
  5
1B3
330
17
100
AcDbEntity
  8
single line
370
20
100
AcDbLine
 10
57.0
 20
54.0
 30
0.0
 11
58.0
 21
54.0
 31
0.0
  0
LINE
  5
1B4
330
17
100
AcDbEntity
  8
single line
370
20
100
AcDbLine
 10
58.0
 20
54.0
 30
0.0
 11
59.0
 21
53.0
 31
0.0
  0
LINE
  5
1B5
330
17
100
AcDbEntity
  8
single line
370
20
100
AcDbLine
 10
59.0
 20
53.0
 30
0.0
 11
60.0
 21
53.0
 31
0.0
  0
LINE
  5
1B6
330
17
100
AcDbEntity
  8
single line
370
20
100
AcDbLine
 10
60.0
 20
53.0
 30
0.0
 11
61.0
 21
52.0
 31
0.0
  0
LINE
  5
1B7
330
17
100
AcDbEntity
  8
single line
370
20
100
AcDbLine
 10
61.0
 20
52.0
 30
0.0
 11
62.0
 21
52.0
 31
0.0
  0
LINE
  5
1B8
330
17
100
AcDbEntity
  8
single line
370
20
100
AcDbLine
 10
62.0
 20
52.0
 30
0.0
 11
63.0
 21
51.0
 31
0.0
  0
LINE
  5
1B9
330
17
100
AcDbEntity
  8
single line
370
20
100
AcDbLine
 10
63.0
 20
51.0
 30
0.0
 11
64.0
 21
51.0
 31
0.0
  0
LINE
  5
1BA
330
17
100
AcDbEntity
  8
single line
370
20
100
AcDbLine
 10
64.0
 20
51.0
 30
0.0
 11
65.0
 21
50.0
 31
0.0
  0
LINE
  5
1BB
330
17
100
AcDbEntity
  8
single line
370
20
100
AcDbLine
 10
65.0
 20
50.0
 30
0.0
 11
67.0
 21
50.0
 31
0.0
  0
LINE
  5
1BC
330
17
100
AcDbEntity
  8
single line
370
20
100
AcDbLine
 10
67.0
 20
50.0
 30
0.0
 11
68.0
 21
49.0
 31
0.0
  0
LINE
  5
1BD
330
17
100
AcDbEntity
  8
single line
370
20
100
AcDbLine
 10
68.0
 20
49.0
 30
0.0
 11
71.0
 21
49.0
 31
0.0
  0
LINE
  5
1BE
330
17
100
AcDbEntity
  8
single line
370
20
100
AcDbLine
 10
71.0
 20
49.0
 30
0.0
 11
72.0
 21
48.0
 31
0.0
  0
LINE
  5
1BF
330
17
100
AcDbEntity
  8
single line
370
20
100
AcDbLine
 10
72.0
 20
48.0
 30
0.0
 11
75.0
 21
48.0
 31
0.0
  0
LINE
  5
1C0
330
17
100
AcDbEntity
  8
single line
370
20
100
AcDbLine
 10
75.0
 20
48.0
 30
0.0
 11
76.0
 21
47.0
 31
0.0
  0
ENDSEC
  0
SECTION
  2
OBJECTS
  0
DICTIONARY
  5
A
330
0
100
AcDbDictionary
280
0
281
1
  3
ACAD_COLOR
350
B
  3
ACAD_GROUP
350
C
  3
ACAD_LAYOUT
350
D
  3
ACAD_MATERIAL
350
E
  3
ACAD_MLEADERSTYLE
350
F
  3
ACAD_MLINESTYLE
350
10
  3
ACAD_PLOTSETTINGS
350
11
  3
ACAD_PLOTSTYLENAME
350
12
  3
ACAD_SCALELIST
350
14
  3
ACAD_TABLESTYLE
350
15
  3
ACAD_VISUALSTYLE
350
16
  3
EZDXF_META
350
2D
  0
DICTIONARY
  5
B
330
A
100
AcDbDictionary
280
0
281
1
  0
DICTIONARY
  5
C
330
A
100
AcDbDictionary
280
0
281
1
  0
DICTIONARY
  5
D
330
A
100
AcDbDictionary
280
0
281
1
  3
Model
350
1A
  3
Layout1
350
1E
  0
DICTIONARY
  5
E
330
A
100
AcDbDictionary
280
0
281
1
  3
ByBlock
350
1F
  3
ByLayer
350
20
  3
Global
350
21
  0
DICTIONARY
  5
F
330
A
100
AcDbDictionary
280
0
281
1
  3
Standard
350
2C
  0
DICTIONARY
  5
10
330
A
100
AcDbDictionary
280
0
281
1
  3
Standard
350
22
  0
DICTIONARY
  5
11
330
A
100
AcDbDictionary
280
0
281
1
  0
ACDBDICTIONARYWDFLT
  5
12
330
A
100
AcDbDictionary
280
0
281
1
  3
Normal
350
13
100
AcDbDictionaryWithDefault
340
13
  0
ACDBPLACEHOLDER
  5
13
330
12
  0
DICTIONARY
  5
14
330
A
100
AcDbDictionary
280
0
281
1
  0
DICTIONARY
  5
15
330
A
100
AcDbDictionary
280
0
281
1
  0
DICTIONARY
  5
16
330
A
100
AcDbDictionary
280
0
281
1
  0
LAYOUT
  5
1A
330
D
100
AcDbPlotSettings
  1

  2
Adobe PDF
  4
A3
  6

 40
7.5
 41
20.0
 42
7.5
 43
20.0
 44
420.0
 45
297.0
 46
0.0
 47
0.0
 48
0.0
 49
0.0
140
0.0
141
0.0
142
1.0
143
1.0
 70
1024
 72
1
 73
0
 74
5
  7

 75
16
 76
0
 77
2
 78
300
147
1.0
148
0.0
149
0.0
100
AcDbLayout
  1
Model
 70
1
 71
0
 10
0.0
 20
0.0
 11
420.0
 21
297.0
 12
0.0
 22
0.0
 32
0.0
 14
1e+20
 24
1e+20
 34
1e+20
 15
-1e+20
 25
-1e+20
 35
-1e+20
146
0.0
 13
0.0
 23
0.0
 33
0.0
 16
1.0
 26
0.0
 36
0.0
 17
0.0
 27
1.0
 37
0.0
 76
1
330
17
  0
LAYOUT
  5
1E
330
D
100
AcDbPlotSettings
  1

  2
Adobe PDF
  4
A3
  6

 40
7.5
 41
20.0
 42
7.5
 43
20.0
 44
420.0
 45
297.0
 46
0.0
 47
0.0
 48
0.0
 49
0.0
140
0.0
141
0.0
142
1.0
143
1.0
 70
0
 72
1
 73
0
 74
5
  7

 75
16
 76
0
 77
2
 78
300
147
1.0
148
0.0
149
0.0
100
AcDbLayout
  1
Layout1
 70
1
 71
1
 10
0.0
 20
0.0
 11
420.0
 21
297.0
 12
0.0
 22
0.0
 32
0.0
 14
1e+20
 24
1e+20
 34
1e+20
 15
-1e+20
 25
-1e+20
 35
-1e+20
146
0.0
 13
0.0
 23
0.0
 33
0.0
 16
1.0
 26
0.0
 36
0.0
 17
0.0
 27
1.0
 37
0.0
 76
1
330
1B
  0
MATERIAL
  5
1F
102
{ACAD_REACTORS
330
E
102
}
330
E
100
AcDbMaterial
  1
ByBlock
  2

 70
0
 40
1.0
 71
1
 41
1.0
 91
-1023410177
 42
1.0
 72
1
  3

 73
1
 74
1
 75
1
 44
0.5
 73
0
 45
1.0
 46
1.0
 77
1
  4

 78
1
 79
1
170
1
 48
1.0
171
1
  6

172
1
173
1
174
1
140
1.0
141
1.0
175
1
  7

176
1
177
1
178
1
143
1.0
179
1
  8

270
1
271
1
272
1
145
1.0
146
1.0
273
1
  9

274
1
275
1
276
1
 42
1.0
 72
1
  3

 73
1
 74
1
 75
1
 94
63
  0
MATERIAL
  5
20
102
{ACAD_REACTORS
330
E
102
}
330
E
100
AcDbMaterial
  1
ByLayer
  2

 70
0
 40
1.0
 71
1
 41
1.0
 91
-1023410177
 42
1.0
 72
1
  3

 73
1
 74
1
 75
1
 44
0.5
 73
0
 45
1.0
 46
1.0
 77
1
  4

 78
1
 79
1
170
1
 48
1.0
171
1
  6

172
1
173
1
174
1
140
1.0
141
1.0
175
1
  7

176
1
177
1
178
1
143
1.0
179
1
  8

270
1
271
1
272
1
145
1.0
146
1.0
273
1
  9

274
1
275
1
276
1
 42
1.0
 72
1
  3

 73
1
 74
1
 75
1
 94
63
  0
MATERIAL
  5
21
102
{ACAD_REACTORS
330
E
102
}
330
E
100
AcDbMaterial
  1
Global
  2

 70
0
 40
1.0
 71
1
 41
1.0
 91
-1023410177
 42
1.0
 72
1
  3

 73
1
 74
1
 75
1
 44
0.5
 73
0
 45
1.0
 46
1.0
 77
1
  4

 78
1
 79
1
170
1
 48
1.0
171
1
  6

172
1
173
1
174
1
140
1.0
141
1.0
175
1
  7

176
1
177
1
178
1
143
1.0
179
1
  8

270
1
271
1
272
1
145
1.0
146
1.0
273
1
  9

274
1
275
1
276
1
 42
1.0
 72
1
  3

 73
1
 74
1
 75
1
 94
63
  0
MLINESTYLE
  5
22
102
{ACAD_REACTORS
330
10
102
}
330
10
100
AcDbMlineStyle
  2
Standard
 70
0
  3

 62
256
 51
90.0
 52
90.0
 71
2
 49
0.5
 62
256
  6
BYLAYER
 49
-0.5
 62
256
  6
BYLAYER
  0
MLEADERSTYLE
  5
2C
102
{ACAD_REACTORS
330
F
102
}
330
F
100
AcDbMLeaderStyle
179
2
170
2
171
1
172
0
 90
2
 40
0.0
 41
0.0
173
1
 91
-1056964608
 92
-2
290
1
 42
2.0
291
1
 43
8.0
  3
Standard
 44
4.0
300

342
29
174
1
175
1
176
0
178
1
 93
-1056964608
 45
4.0
292
0
297
0
 46
4.0
 94
-1056964608
 47
1.0
 49
1.0
140
1.0
294
1
141
0.0
177
0
142
1.0
295
0
296
0
143
3.75
271
0
272
9
273
9
  0
DICTIONARY
  5
2D
330
A
100
AcDbDictionary
281
1
  3
CREATED_BY_EZDXF
350
2E
  3
WRITTEN_BY_EZDXF
350
1C3
  0
DICTIONARYVAR
  5
2E
330
2D
100
DictionaryVariables
280
0
  1
1.0.3 @ 2023-04-24T13:35:08.095765+00:00
  0
DICTIONARYVAR
  5
1C3
330
2D
100
DictionaryVariables
280
0
  1
1.0.3 @ 2023-04-24T13:35:08.112874+00:00
  0
ENDSEC
  0
EOF
